<?xml version="1.0" encoding="UTF-8" standalone="no"?>
<svg
   xmlns:freecad="http://www.freecadweb.org/wiki/index.php?title=Svg_Namespace"
   xmlns:dc="http://purl.org/dc/elements/1.1/"
   xmlns:cc="http://creativecommons.org/ns#"
   xmlns:rdf="http://www.w3.org/1999/02/22-rdf-syntax-ns#"
   xmlns:svg="http://www.w3.org/2000/svg"
   xmlns="http://www.w3.org/2000/svg"
   xmlns:sodipodi="http://sodipodi.sourceforge.net/DTD/sodipodi-0.dtd"
   xmlns:inkscape="http://www.inkscape.org/namespaces/inkscape"
   version="1.1"
   width="420mm"
   height="297mm"
   viewBox="0 0 420 297"
   id="svg2827"
   sodipodi:docname="BottomFrame.svg"
   inkscape:version="0.92.1 r15371">
  <metadata
     id="metadata2833">
    <rdf:RDF>
      <cc:Work
         rdf:about="">
        <dc:format>image/svg+xml</dc:format>
        <dc:type
           rdf:resource="http://purl.org/dc/dcmitype/StillImage" />
      </cc:Work>
    </rdf:RDF>
  </metadata>
  <defs
     id="defs2831" />
  <sodipodi:namedview
     pagecolor="#ffffff"
     bordercolor="#666666"
     borderopacity="1"
     objecttolerance="10"
     gridtolerance="10"
     guidetolerance="10"
     inkscape:pageopacity="0"
     inkscape:pageshadow="2"
     inkscape:window-width="1321"
     inkscape:window-height="744"
     id="namedview2829"
     showgrid="false"
     inkscape:zoom="0.53629349"
     inkscape:cx="922.351"
     inkscape:cy="557.51406"
     inkscape:window-x="45"
     inkscape:window-y="24"
     inkscape:window-maximized="1"
     inkscape:current-layer="svg2827" />
  <!-- Working space 20 10 410 287 -->
  <!-- Title block 230 227 410 287 -->
  <g
     id="g2237">
    <rect
       id="drawing-border"
       style="fill:none;stroke:#000000;stroke-width:0.35;stroke-linecap:miter;stroke-miterlimit:4"
       width="390"
       height="277"
       x="20"
       y="10" />
    <!-- width-30, height-20 -->
    <g
       transform="translate(210,0)"
       id="g2235">
      <!-- A4 Portrait based for other formats width-210, height-297 -->
      <!--        page       rect   translation
			               w    h    rw   rh   tx   ty
			        A4-P  210  297  180  277    0    0
			        A3-L  420  297  390  277  210    0
			        A2-L  594  420  564  400  384  123
			        A1-L  841  594  811  574  631  297
			        A0-L 1189  841 1159  821  979  544
			-->
      <g
         id="titleblock-structure"
         style="fill:none;stroke:#000000;stroke-width:0.35;stroke-linecap:miter;stroke-miterlimit:4">
        <rect
           width="180"
           height="60"
           x="20"
           y="227"
           id="rect2129" />
        <path
           d="m 20,239 h 180"
           id="path2131" />
        <path
           d="m 80,227 v 12"
           id="path2133" />
        <path
           d="m 140,239 v 48"
           id="path2135" />
        <path
           d="m 160,239 v 12"
           id="path2137" />
        <path
           d="m 180,239 v 12"
           id="path2139" />
        <path
           d="m 140,251 h 60"
           id="path2141" />
        <path
           d="m 140,275 h 60"
           id="path2143" />
        <path
           d="m 180,275 v 12"
           id="path2145" />
      </g>
      <g
         id="titleblock-text-non-editable"
         style="font-size:3px;text-anchor:start;fill:#000000;font-family:osifont"
         xml:space="preserve"><text
           x="21"
           y="230"
           id="text2148">Created by:</text>
<text
           x="81"
           y="230"
           id="text2150">Title:</text>
<text
           x="21"
           y="242"
           id="text2152">Supplementary information:</text>
<text
           x="141"
           y="242"
           id="text2154">Size:</text>
<text
           x="161"
           y="242"
           id="text2156">Sheet:</text>
<text
           x="181"
           y="242"
           id="text2158">Scale:</text>
<text
           x="141"
           y="254"
           id="text2160">Part number:</text>
<text
           x="141"
           y="266"
           id="text2162">Drawing number:</text>
<text
           x="141"
           y="278"
           id="text2164">Date:</text>
<text
           x="181"
           y="278"
           id="text2166">Revision:</text>
</g>      <g
         id="titleblock-text-editable"
         style="font-size:5px;text-anchor:middle;fill:#000000;font-family:osifont"
         xml:space="preserve"><text
           freecad:editable="AUTHOR NAME"
           x="50"
           y="236"
           id="text2171"><tspan
             id="tspan2169">B.D.G</tspan></text>
<text
           freecad:editable="DRAWING TITLE"
           x="140"
           y="236"
           id="text2175"><tspan
             id="tspan2173">Bottom Frame</tspan></text>
<text
           freecad:editable="SI-1"
           x="80"
           y="248"
           id="text2179"><tspan
             id="tspan2177" /></text>
<text
           freecad:editable="SI-2"
           x="80"
           y="255"
           id="text2183"><tspan
             id="tspan2181" /></text>
<text
           freecad:editable="FreeCAD DRAWING"
           x="80"
           y="262"
           id="text2187"><tspan
             id="tspan2185">The frame house the electronics and provides</tspan></text>
<text
           freecad:editable="SI-4"
           x="80"
           y="269"
           id="text2191"><tspan
             id="tspan2189" /></text>
<text
           freecad:editable="SI-5"
           x="80"
           y="276"
           id="text2195"><tspan
             id="tspan2193" /></text>
<text
           freecad:editable="SI-6"
           x="80"
           y="283"
           id="text2199"><tspan
             id="tspan2197" /></text>
<text
           freecad:editable="FC-SI"
           x="150"
           y="248"
           id="text2203"><tspan
             id="tspan2201">A3</tspan></text>
<text
           freecad:editable="FC-SH"
           x="170"
           y="248"
           id="text2207"><tspan
             id="tspan2205">1 / 1</tspan></text>
<text
           freecad:editable="FC-SC"
           x="190"
           y="248"
           id="text2211"><tspan
             id="tspan2209">4 : 1</tspan></text>
<text
           freecad:editable="PN"
           x="170"
           y="260"
           id="text2215"><tspan
             id="tspan2213">04.00</tspan></text>
<text
           freecad:editable="DN"
           x="170"
           y="272"
           id="text2219"><tspan
             id="tspan2217">17.04.00</tspan></text>
<text
           freecad:editable="FC-DATE"
           x="160"
           y="284"
           id="text2223"><tspan
             id="tspan2221">1/05/2017</tspan></text>
<text
           freecad:editable="FC-REV"
           x="190"
           y="284"
           id="text2227"><tspan
             id="tspan2225">REV A</tspan></text>
</g>      <!-- Set display:none to hide FreeCAD Logo -->
      <g
         style="display:inline"
         id="freecad-logo"
         transform="translate(128.5,276)"
         fill-rule="evenodd"
         stroke="#000"
         stroke-width="0.35"
         fill="none">
        <path
           d="m0.1524 0.15254v8.8549h1.9744v-3.4652h1.396v-1.3661h-1.396v-1.4745h3.4391v-2.5441l-5.4135-0.005z"
           id="path2230" />
        <path
           d="m7.7927 3.4504-0.50715-0.176-0.48387-1.2366-0.76115 0.04-0.34718 1.2787-0.4859 0.23269-1.2119-0.53015-0.51188 0.56882 0.65892 1.1485-0.18006 0.50567-1.2366 0.48387 0.044064 0.76263 1.2787 0.34718 0.23269 0.4859-0.53421 1.2104 0.56882 0.51188 1.1485-0.65891 0.50973 0.18155 0.4798 1.2351 0.7667-0.04258 0.34311-1.2802 0.4859-0.23269 1.2145 0.5357 0.51188-0.56882-0.65891-1.1485 0.17748-0.51122 1.2351-0.4798-0.03851-0.76521-1.2802-0.34311-0.23269-0.4859 0.53163-1.216-0.56881-0.51184zm-0.5715 1.2244 0.23576 0.13679 0.20426 0.18519 0.16353 0.22101 0.11763 0.24572 0.06916 0.26489 0.01146 0.27146-0.03921 0.27139-0.08948 0.25764-0.14234 0.23834-0.17964 0.20167-0.22101 0.16353-0.24572 0.11763-0.26489 0.06916-0.27295 0.01553-0.2719-0.04-0.2576-0.089-0.2383-0.143-0.2002-0.183-0.165-0.217-0.1177-0.246-0.0676-0.269-0.0156-0.273 0.039206-0.2714 0.089484-0.25764 0.14085-0.23427 0.18113-0.20574 0.22101-0.16352 0.24572-0.11763 0.26895-0.06768 0.27147-0.01146 0.27139 0.03921 0.25764 0.08948z"
           id="path2232" />
      </g>
    </g>
  </g>
  <g
     id="View"
     transform="rotate(120,210,110) translate(210,110) scale(0.25,0.25)">
    <g
       stroke="rgb(0, 0, 0)"
       stroke-width="1.4"
       stroke-linecap="butt"
       stroke-linejoin="miter"
       fill="none"
       transform="scale(1,-1)"
       id="g2290">
      <path
         id="1"
         d=" M 317.491 -357.345 L 325.713 -352.598 " />
      <path
         id="2"
         d=" M 317.491 -348.108 L 321.713 -345.67 " />
      <path
         id="3"
         d=" M 317.491 -11.3957 L 325.713 -6.64844 " />
      <path
         id="4"
         d=" M 313.35 -4.54917 L 321.713 0.279765 " />
      <path
         id="5"
         d=" M 8.24264 171.604 L 12.6066 174.124 " />
      <path
         id="6"
         d=" M 0.242641 176.223 L 8.6066 181.052 " />
      <path
         id="7"
         d=" M -7.54994 176.343 L -64.1185 143.683 " />
      <path
         id="8"
         d=" M 258.063 -367.709 L 258.063 -61.6279 " />
      <path
         id="9"
         d=" M 250.063 -367.709 L 250.063 -57.0091 " />
      <path
         id="10"
         d=" M 300.49 -343.214 L 300.49 -37.8214 " />
      <path
         id="11"
         d=" M 292.49 -343.214 L 292.49 -42.4402 " />
      <path
         id="12"
         d=" M -43.0226 -193.877 L -43.0226 -174.282 " />
      <path
         id="13"
         d=" M -51.0226 -193.877 L -51.0226 -174.282 " />
      <path
         id="14"
         d=" M -0.596194 -169.382 L -0.596194 -150.171 " />
      <path
         id="15"
         d=" M -8.59619 -169.382 L -8.59619 -154.79 " />
      <path
         id="16"
         d=" M -0.596194 107.982 L -0.596194 141.726 " />
      <path
         id="17"
         d=" M -8.59619 107.982 L -8.59619 137.108 " />
      <path
         id="18"
         d=" M -43.0226 83.4868 L -43.0226 117.231 " />
      <path
         id="19"
         d=" M -51.0226 83.4868 L -51.0226 116.849 " />
      <path
         id="20"
         d=" M 313.571 -364.227 L 257.003 -396.887 " />
      <path
         id="21"
         d=" M -56.0226 -152.481 L -56.0226 -169.627 " />
      <path
         id="22"
         d=" M -56.0226 83.4868 L -56.0226 58.9919 " />
      <path
         id="23"
         d=" M 258.063 -32.3741 L 258.063 -29.1081 " />
      <path
         id="24"
         d=" M 250.063 -32.3741 L 250.063 -29.1081 " />
      <path
         id="25"
         d=" M 300.49 -7.87919 L 300.49 -4.61321 " />
      <path
         id="26"
         d=" M 292.49 -7.87919 L 292.49 -4.61321 " />
      <path
         id="27"
         d=" M 219.647 -67.8857 L 255.453 -47.2135 " />
      <path
         id="28"
         d=" M 215.647 -60.9575 L 251.453 -40.2852 " />
      <path
         id="29"
         d=" M 219.647 -413.835 L 255.453 -393.163 " />
      <path
         id="30"
         d=" M 215.647 -406.907 L 251.453 -386.235 " />
      <path
         id="31"
         d=" M -93.4594 -233.063 L -57.6541 -212.391 " />
      <path
         id="32"
         d=" M -97.4594 -226.135 L -61.6541 -205.463 " />
      <path
         id="33"
         d=" M -56.0226 -55.3176 L -56.0226 -70.8311 " />
      <path
         id="34"
         d=" M -93.4594 112.887 L -57.6684 133.551 " />
      <path
         id="35"
         d=" M -97.4594 119.815 L -61.6686 140.479 " />
      <path
         id="36"
         d=" M -56.0226 -22.6578 L -56.0226 -47.1527 " />
      <path
         id="37"
         d=" M -0.596194 165.974 L -0.596194 169.219 " />
      <path
         id="38"
         d=" M -8.59619 165.696 L -8.59619 169.219 " />
      <path
         id="39"
         d=" M -43.0226 141.479 L -43.0226 144.724 " />
      <path
         id="40"
         d=" M -51.0226 141.201 L -51.0226 144.724 " />
      <path
         id="41"
         d=" M -43.0226 -55.3176 L -43.0226 -51.8074 " />
      <path
         id="42"
         d=" M -51.0226 -55.3176 L -51.0226 -51.8074 " />
      <path
         id="43"
         d=" M -0.596194 -30.8227 L -0.596194 -27.6968 " />
      <path
         id="44"
         d=" M -0.596194 -127.986 L -0.596194 -51.3752 " />
      <path
         id="45"
         d=" M -8.59619 -127.986 L -8.59619 -55.9941 " />
      <path
         id="46"
         d=" M -43.0226 -152.481 L -43.0226 -75.4858 " />
      <path
         id="47"
         d=" M -51.0226 -152.481 L -51.0226 -75.4858 " />
      <path
         id="48"
         d=" M -0.596194 1.83712 L -0.596194 78.4477 " />
      <path
         id="49"
         d=" M -8.59619 1.83712 L -8.59619 73.8289 " />
      <path
         id="50"
         d=" M -43.0226 -22.6578 L -43.0226 54.3371 " />
      <path
         id="51"
         d=" M -51.0226 -22.6578 L -51.0226 54.3371 " />
    </g>
    <g
       stroke="rgb(0, 0, 0)"
       stroke-width="1.4"
       stroke-linecap="butt"
       stroke-linejoin="miter"
       fill="none"
       transform="scale(1,-1)"
       id="g2712">
      <path
         id="path2292"
         d=" M 127.279 60.0125 L -0.596194 133.841 " />
      <path
         id="path2294"
         d=" M 127.279 -217.596 L 127.279 60.0125 " />
      <path
         id="path2296"
         d=" M -5.65685 179.629 L -8.48528 177.996 " />
      <path
         id="path2298"
         d=" M -8.48528 175.803 L -8.48528 177.996 " />
      <path
         id="path2300"
         d=" M -5.65685 179.629 L 317.491 -6.94022 " />
      <path
         id="path2302"
         d=" M 317.491 -6.94022 L 317.491 -363.749 " />
      <path
         id="path2304"
         d=" M 7.77817 -145.336 L 127.279 -214.33 " />
      <path
         id="path2306"
         d=" M 9.15782 167.81 L 296.136 2.1229 " />
      <path
         id="path2308"
         d=" M 314.663 -29.6388 L 314.663 -345.541 " />
      <path
         id="path2310"
         d=" M 300.49 -337.359 L 314.663 -345.541 " />
      <path
         id="path2312"
         d=" M 279.661 -345.174 L 258.063 -332.705 " />
      <path
         id="path2314"
         d=" M 250.063 -328.086 L 9.19239 -189.019 " />
      <path
         id="path2316"
         d=" M 9.19239 -189.019 L 9.19239 -169.178 " />
      <path
         id="path2318"
         d=" M 9.19239 -169.178 L -0.596194 -163.527 " />
      <path
         id="path2320"
         d=" M 4.94975 -146.969 L 127.279 -217.596 " />
      <path
         id="path2322"
         d=" M 9.15782 167.81 L 9.22984 147.399 " />
      <path
         id="path2324"
         d=" M -8.48528 177.996 L -6.26226 176.713 " />
      <path
         id="path2326"
         d=" M 317.491 -6.94022 L 314.663 -8.57321 " />
      <path
         id="path2328"
         d=" M 312.31 -7.21497 L 314.663 -8.57321 " />
      <path
         d="M-7.54994 176.343 A8 4.6188 -60 0 0 -6.26226 176.713"
         id="path2330" />
      <path
         id="path2332"
         d=" M 314.663 -8.57321 L 314.663 -11.4415 " />
      <path
         id="path2334"
         d=" M 317.491 -363.749 L 314.663 -365.382 " />
      <path
         id="path2336"
         d=" M 314.663 -363.086 L 314.663 -365.382 " />
      <path
         id="path2338"
         d=" M 314.663 -365.382 L 313.117 -364.49 " />
      <path
         d="M326.542 -350.767 A4 2.3094 120 0 1 321.713 -345.67"
         id="path2340" />
      <path
         d="M325.713 -352.598 A4 2.3094 120 0 1 326.542 -350.767"
         id="path2342" />
      <path
         d="M326.542 -4.81733 A4 2.3094 120 0 1 321.713 0.279765"
         id="path2344" />
      <path
         d="M325.713 -6.64844 A4 2.3094 120 0 1 326.542 -4.81733"
         id="path2346" />
      <path
         d="M13.435 175.955 A4 2.3094 120 0 1 8.6066 181.052"
         id="path2348" />
      <path
         d="M12.6066 174.124 A4 2.3094 120 0 1 13.435 175.955"
         id="path2350" />
      <path
         id="path2352"
         d=" M 296.843 2.53115 L 240.275 -30.1287 " />
      <path
         id="path2354"
         d=" M 240.275 -30.1287 L 240.275 -46.7388 " />
      <path
         id="path2356"
         d=" M 244.275 -53.667 L 258.66 -61.9721 " />
      <path
         id="path2358"
         d=" M 315.228 -29.3122 L 258.66 -61.9721 " />
      <path
         id="path2360"
         d=" M 240.275 -367.913 L 250.063 -362.262 " />
      <path
         id="path2362"
         d=" M 258.063 -357.643 L 292.49 -337.767 " />
      <path
         id="path2364"
         d=" M 240.275 -367.913 L 258.66 -378.528 " />
      <path
         id="path2366"
         d=" M 258.66 -378.528 L 315.228 -345.868 " />
      <path
         id="path2368"
         d=" M 314.663 -345.541 L 315.228 -345.868 " />
      <path
         d="M299.318 -344.847 A4 2.3094 -1.55815e-14 0 1 300.49 -343.214"
         id="path2370" />
      <path
         d="M292.49 -343.214 A4 2.3094 -1.55815e-14 0 1 299.318 -344.847"
         id="path2372" />
      <path
         d="M256.892 -369.342 A4 2.3094 -1.55815e-14 0 1 258.063 -367.709"
         id="path2374" />
      <path
         d="M250.063 -367.709 A4 2.3094 -1.55815e-14 0 1 256.892 -369.342"
         id="path2376" />
      <path
         id="path2378"
         d=" M 240.275 -389.142 L 240.275 -367.913 " />
      <path
         id="path2380"
         d=" M 9.19239 -190.407 L -47.3762 -223.067 " />
      <path
         id="path2382"
         d=" M 9.19239 -190.407 L 9.19239 -189.019 " />
      <path
         id="path2384"
         d=" M -47.3762 -223.067 L -47.3762 -201.838 " />
      <path
         id="path2386"
         d=" M 9.19239 -169.178 L -47.3762 -201.838 " />
      <path
         id="path2388"
         d=" M -47.3762 -201.838 L -65.7609 -191.223 " />
      <path
         id="path2390"
         d=" M -8.59619 -158.908 L -9.19239 -158.564 " />
      <path
         id="path2392"
         d=" M -9.19239 -158.564 L -43.0226 -178.096 " />
      <path
         id="52"
         d=" M -51.0226 -182.714 L -65.7609 -191.223 " />
      <path
         d="M-51.0226 -193.877 A4 2.3094 -1.75292e-14 0 1 -44.1942 -195.51"
         id="path2395" />
      <path
         d="M-44.1942 -195.51 A4 2.3094 -1.75292e-14 0 1 -43.0226 -193.877"
         id="path2397" />
      <path
         d="M-8.59619 -169.382 A4 2.3094 -1.75292e-14 0 1 -1.76777 -171.015"
         id="path2399" />
      <path
         d="M-1.76777 -171.015 A4 2.3094 -1.75292e-14 0 1 -0.596194 -169.382"
         id="path2401" />
      <path
         id="57"
         d=" M -47.3387 114.74 L 9.22984 147.399 " />
      <path
         id="58"
         d=" M -47.3387 114.74 L -65.7233 125.267 " />
      <path
         id="59"
         d=" M -47.4138 136.012 L 9.15478 168.672 " />
      <path
         id="60"
         d=" M -47.4138 136.012 L -47.3387 114.74 " />
      <path
         id="61"
         d=" M 9.15478 168.672 L 9.15782 167.81 " />
      <path
         id="62"
         d=" M -3.57305 175.96 L 9.15478 168.672 " />
      <path
         d="M-6.26226 176.713 A8 4.6188 -60 0 0 -3.57305 175.96"
         id="path2409" />
      <path
         d="M314.663 -11.4415 A8 4.6188 120 0 1 312.31 -7.21497"
         id="path2411" />
      <path
         id="65"
         d=" M 309.571 -4.81733 L 296.843 2.53115 " />
      <path
         d="M312.31 -7.21497 A8 4.6188 120 0 1 309.571 -4.81733"
         id="path2414" />
      <path
         id="67"
         d=" M -65.7233 125.267 L -65.7361 128.893 " />
      <path
         id="68"
         d=" M -65.7686 138.112 L -65.7753 139.994 " />
      <path
         d="M-65.7753 139.994 A8 4.6188 -60 0 0 -64.1185 143.683"
         id="path2418" />
      <path
         d="M-64.1185 143.683 A8 4.6188 -60 0 0 -60.1416 143.3"
         id="path2420" />
      <path
         id="71"
         d=" M 315.228 -29.3122 L 315.228 -14.6153 " />
      <path
         d="M315.228 -14.6153 A8 4.6188 120 0 1 314.663 -11.4415"
         id="path2423" />
      <path
         d="M314.663 -363.086 A8 4.6188 -60 0 0 313.571 -364.227"
         id="path2425" />
      <path
         id="74"
         d=" M 315.228 -345.868 L 315.228 -360.565 " />
      <path
         d="M315.228 -360.565 A8 4.6188 -60 0 0 314.663 -363.086"
         id="path2428" />
      <path
         id="76"
         d=" M 253.003 -37.4772 L 240.275 -30.1287 " />
      <path
         id="77"
         d=" M 246.916 -28.8188 L 252.148 -25.7978 " />
      <path
         id="78"
         d=" M 248.831 -32.9456 L 246.916 -28.8188 " />
      <path
         id="79"
         d=" M 255.979 -34.0514 L 248.831 -32.9456 " />
      <path
         id="80"
         d=" M 261.211 -31.0304 L 255.979 -34.0514 " />
      <path
         id="81"
         d=" M 259.296 -26.9036 L 261.211 -31.0304 " />
      <path
         id="82"
         d=" M 252.148 -25.7978 L 259.296 -26.9036 " />
      <path
         id="83"
         d=" M 289.342 -4.32392 L 294.575 -1.30288 " />
      <path
         id="84"
         d=" M 291.257 -8.45073 L 289.342 -4.32392 " />
      <path
         id="85"
         d=" M 298.405 -9.55651 L 291.257 -8.45073 " />
      <path
         id="86"
         d=" M 303.638 -6.53547 L 298.405 -9.55651 " />
      <path
         id="87"
         d=" M 301.722 -2.40866 L 303.638 -6.53547 " />
      <path
         id="88"
         d=" M 294.575 -1.30288 L 301.722 -2.40866 " />
      <path
         id="89"
         d=" M 258.66 -61.9721 L 258.66 -47.2751 " />
      <path
         d="M258.66 -47.2751 A8 4.6188 120 0 1 253.003 -37.4772"
         id="path2444" />
      <path
         d="M254.553 -47.7331 A4.1 2.36714 120 0 1 255.053 -47.5599"
         id="path2446" />
      <path
         d="M255.053 -47.5599 A4.1 2.36714 120 1 1 250.953 -40.4585"
         id="path2448" />
      <path
         d="M250.953 -40.4585 A4.1 2.36714 120 0 1 250.553 -40.8049"
         id="path2450" />
      <path
         id="94"
         d=" M 253.003 -396.491 L 251.346 -395.534 " />
      <path
         id="95"
         d=" M 243.346 -390.915 L 240.275 -389.142 " />
      <path
         id="96"
         d=" M 258.66 -378.528 L 258.66 -393.225 " />
      <path
         d="M258.66 -393.225 A8 4.6188 -60 0 0 257.003 -396.887"
         id="path2455" />
      <path
         d="M257.003 -396.887 A8 4.6188 -60 0 0 253.003 -396.491"
         id="path2457" />
      <path
         d="M253.003 -386.611 A4.1 2.36714 -60 0 0 255.053 -393.509"
         id="path2459" />
      <path
         d="M255.053 -393.509 A4.1 2.36714 -60 0 0 254.553 -393.683"
         id="path2461" />
      <path
         d="M250.553 -386.754 A4.1 2.36714 -60 0 0 250.953 -386.408"
         id="path2463" />
      <path
         d="M250.953 -386.408 A4.1 2.36714 -60 0 0 253.003 -386.611"
         id="path2465" />
      <path
         id="103"
         d=" M -60.1041 -215.718 L -47.3762 -223.067 " />
      <path
         id="104"
         d=" M -65.7609 -191.223 L -65.7609 -205.92 " />
      <path
         d="M-65.7609 -205.92 A8 4.6188 120 0 1 -65.5682 -207.722"
         id="path2469" />
      <path
         d="M-61.5682 -214.651 A8 4.6188 120 0 1 -60.1041 -215.718"
         id="path2471" />
      <path
         d="M-60.1041 -205.839 A4.1 2.36714 120 0 1 -62.1541 -205.636"
         id="path2473" />
      <path
         d="M-62.1541 -205.636 A4.1 2.36714 120 0 1 -62.5541 -205.982"
         id="path2475" />
      <path
         d="M-58.5541 -212.91 A4.1 2.36714 120 0 1 -58.0541 -212.737"
         id="path2477" />
      <path
         d="M-58.0541 -212.737 A4.1 2.36714 120 0 1 -60.1041 -205.839"
         id="path2479" />
      <path
         id="111"
         d=" M -60.1416 143.3 L -47.4138 136.012 " />
      <path
         d="M-62.5684 139.959 A4.1 2.36714 -60 0 0 -62.1685 140.306"
         id="path2482" />
      <path
         d="M-62.1685 140.306 A4.1 2.36714 -60 0 0 -58.0685 133.204"
         id="path2484" />
      <path
         d="M-58.0685 133.204 A4.1 2.36714 -60 0 0 -58.5686 133.031"
         id="path2486" />
      <path
         d="M-1.76777 106.349 A4 2.3094 180 0 0 -8.59619 107.982"
         id="path2488" />
      <path
         d="M-0.596194 107.982 A4 2.3094 180 0 0 -1.76777 106.349"
         id="path2490" />
      <path
         d="M-44.1942 81.8538 A4 2.3094 180 0 0 -51.0226 83.4868"
         id="path2492" />
      <path
         d="M-43.0226 83.4868 A4 2.3094 180 0 0 -44.1942 81.8538"
         id="path2494" />
      <path
         id="119"
         d=" M 2.51407 167.351 L -2.71852 164.33 " />
      <path
         id="120"
         d=" M 0.598845 171.457 L 2.51407 167.351 " />
      <path
         id="121"
         d=" M -6.54897 172.541 L 0.598845 171.457 " />
      <path
         id="122"
         d=" M -11.7816 169.52 L -6.54897 172.541 " />
      <path
         id="123"
         d=" M -9.86634 165.415 L -11.7816 169.52 " />
      <path
         id="124"
         d=" M -2.71852 164.33 L -9.86634 165.415 " />
      <path
         id="125"
         d=" M -39.9123 142.856 L -45.1449 139.835 " />
      <path
         id="126"
         d=" M -41.8276 146.962 L -39.9123 142.856 " />
      <path
         id="127"
         d=" M -48.9754 148.046 L -41.8276 146.962 " />
      <path
         id="128"
         d=" M -54.208 145.025 L -48.9754 148.046 " />
      <path
         id="129"
         d=" M -52.2927 140.92 L -54.208 145.025 " />
      <path
         id="130"
         d=" M -45.1449 139.835 L -52.2927 140.92 " />
      <path
         id="131"
         d=" M 247.812 -30.7507 L 250.063 -29.4509 " />
      <path
         id="132"
         d=" M 252.148 -27.0806 L 252.148 -25.7978 " />
      <path
         id="133"
         d=" M 259.296 -29.3531 L 260.315 -31.548 " />
      <path
         id="134"
         d=" M 259.296 -29.3531 L 259.296 -26.9036 " />
      <path
         id="135"
         d=" M 258.063 -29.1624 L 259.296 -29.3531 " />
      <path
         id="136"
         d=" M 290.239 -6.25578 L 292.49 -4.956 " />
      <path
         id="137"
         d=" M 294.575 -2.58575 L 294.575 -1.30288 " />
      <path
         id="138"
         d=" M 301.722 -4.85815 L 302.741 -7.05311 " />
      <path
         id="139"
         d=" M 301.722 -4.85815 L 301.722 -2.40866 " />
      <path
         id="140"
         d=" M 300.49 -4.66747 L 301.722 -4.85815 " />
      <path
         d="M-40.6586 -173.301 A9 5.19615 180 0 0 -56.0226 -169.627"
         id="path2518" />
      <path
         id="142"
         d=" M 99.3485 -179.833 L 85.2064 -187.998 " />
      <path
         id="143"
         d=" M 9.54594 -144.316 L -40.6586 -173.301 " />
      <path
         id="144"
         d=" M 85.2064 -187.998 L 9.54594 -144.316 " />
      <path
         id="145"
         d=" M 10.9602 124.312 L -0.596194 117.64 " />
      <path
         id="146"
         d=" M -8.59619 113.021 L -43.0226 93.1446 " />
      <path
         id="147"
         d=" M -51.0226 88.5258 L -53.3866 87.161 " />
      <path
         id="148"
         d=" M 10.9602 124.312 L 127.279 57.1548 " />
      <path
         d="M-40.6586 79.8125 A9 5.19615 180 0 0 -56.0226 83.4868"
         id="path2527" />
      <path
         d="M-56.0226 83.4868 A9 5.19615 180 0 0 -53.3866 87.161"
         id="path2529" />
      <path
         id="151"
         d=" M 127.279 56.7465 L 113.491 48.7857 " />
      <path
         id="152"
         d=" M 9.54594 108.798 L -40.6586 79.8125 " />
      <path
         id="153"
         d=" M 113.491 48.7857 L 9.54594 108.798 " />
      <path
         id="154"
         d=" M 0.607506 169.002 L 1.61882 166.834 " />
      <path
         id="155"
         d=" M 0.607506 169.002 L 0.598845 171.457 " />
      <path
         id="156"
         d=" M -0.596194 169.185 L 0.607506 169.002 " />
      <path
         id="157"
         d=" M -6.54436 171.236 L -6.54897 172.541 " />
      <path
         id="158"
         d=" M -10.8776 167.582 L -8.59619 168.9 " />
      <path
         id="159"
         d=" M -41.8189 144.507 L -40.8076 142.34 " />
      <path
         id="160"
         d=" M -41.8189 144.507 L -41.8276 146.962 " />
      <path
         id="161"
         d=" M -43.0226 144.69 L -41.8189 144.507 " />
      <path
         id="162"
         d=" M -48.9708 146.741 L -48.9754 148.046 " />
      <path
         id="163"
         d=" M -53.3041 143.088 L -51.0226 144.405 " />
      <path
         d="M250.312 -33.1747 A4 2.3094 -180 0 0 250.063 -32.3741"
         id="path2544" />
      <path
         d="M258.063 -32.3741 A4 2.3094 -180 0 0 257.954 -32.9111"
         id="path2546" />
      <path
         d="M292.738 -8.67979 A4 2.3094 -180 0 0 292.49 -7.87919"
         id="path2548" />
      <path
         d="M300.49 -7.87919 A4 2.3094 -180 0 0 300.38 -8.41618"
         id="path2550" />
      <path
         id="168"
         d=" M -52.64 -51.2124 L -53.3866 -51.6434 " />
      <path
         id="169"
         d=" M -8.59619 -122.947 L -43.0226 -142.823 " />
      <path
         id="170"
         d=" M -51.0226 -147.442 L -53.3866 -148.807 " />
      <path
         id="171"
         d=" M 99.3485 -179.833 L 99.3485 -73.6888 " />
      <path
         id="172"
         d=" M 30.052 -130.027 L 30.052 -44.2949 " />
      <path
         id="173"
         d=" M 83.085 -160.646 L 30.052 -130.027 " />
      <path
         d="M-40.6586 -156.155 A9 5.19615 180 0 0 -53.3866 -156.155"
         id="path2558" />
      <path
         d="M-53.3866 -156.155 A9 5.19615 180 0 0 -56.0226 -152.481"
         id="path2560" />
      <path
         d="M-56.0226 -152.481 A9 5.19615 180 0 0 -53.3866 -148.807"
         id="path2562" />
      <path
         id="177"
         d=" M 92.2774 -69.6063 L 85.2064 -73.6888 " />
      <path
         id="178"
         d=" M 85.2064 -187.998 L 85.2064 -73.6888 " />
      <path
         id="179"
         d=" M 9.54594 -144.316 L 9.54594 -141.866 " />
      <path
         id="180"
         d=" M 9.54594 -141.866 L 20.1525 -135.743 " />
      <path
         id="181"
         d=" M 20.1525 -135.743 L 20.1525 -38.5795 " />
      <path
         id="182"
         d=" M 9.54594 -32.4557 L 9.54594 -30.0062 " />
      <path
         id="183"
         d=" M 9.54594 -30.0062 L -40.6586 -58.9919 " />
      <path
         id="184"
         d=" M 9.54594 -45.5197 L -40.6586 -74.5053 " />
      <path
         id="185"
         d=" M 9.54594 -127.169 L 9.54594 -45.5197 " />
      <path
         id="186"
         d=" M 9.54594 -127.169 L -40.6586 -156.155 " />
      <path
         id="187"
         d=" M 85.2064 -73.6888 L 9.54594 -30.0062 " />
      <path
         id="188"
         d=" M 9.54594 -32.4557 L 83.085 -74.9136 " />
      <path
         id="189"
         d=" M 83.085 -74.9136 L 83.085 -184.324 " />
      <path
         id="190"
         d=" M 83.085 -184.324 L 9.54594 -141.866 " />
      <path
         id="191"
         d=" M -8.59619 6.87619 L -43.0226 -12.9999 " />
      <path
         id="192"
         d=" M -51.0226 -17.6187 L -53.3866 -18.9835 " />
      <path
         id="193"
         d=" M 34.2947 -5.1031 L 34.2947 92.06 " />
      <path
         id="194"
         d=" M 111.369 -49.6022 L 34.2947 -5.1031 " />
      <path
         d="M-40.6586 55.3176 A9 5.19615 180 0 0 -53.3866 55.3176"
         id="path2582" />
      <path
         d="M-53.3866 55.3176 A9 5.19615 180 0 0 -56.0226 58.9919"
         id="path2584" />
      <path
         id="197"
         d=" M 113.491 -81.8538 L 113.491 48.7857 " />
      <path
         id="198"
         d=" M 127.279 -73.8929 L 113.491 -81.8538 " />
      <path
         id="199"
         d=" M 9.54594 -21.8413 L -40.6586 -50.8269 " />
      <path
         id="200"
         d=" M 9.54594 -21.8413 L 9.54594 -19.3918 " />
      <path
         id="201"
         d=" M 9.54594 -19.3918 L 20.1525 -13.2681 " />
      <path
         id="202"
         d=" M 20.1525 -13.2681 L 20.1525 100.225 " />
      <path
         id="203"
         d=" M 9.54594 106.349 L 9.54594 108.798 " />
      <path
         id="204"
         d=" M 9.54594 84.3033 L -40.6586 55.3176 " />
      <path
         id="205"
         d=" M 9.54594 2.65361 L 9.54594 84.3033 " />
      <path
         id="206"
         d=" M 9.54594 2.65361 L -40.6586 -26.332 " />
      <path
         id="207"
         d=" M 113.491 -81.8538 L 9.54594 -21.8413 " />
      <path
         id="208"
         d=" M 9.54594 106.349 L 111.369 47.5609 " />
      <path
         id="209"
         d=" M 111.369 47.5609 L 111.369 -78.1795 " />
      <path
         id="210"
         d=" M 111.369 -78.1795 L 9.54594 -19.3918 " />
      <path
         d="M-8.38667 165.19 A4 2.29995 -179.798 0 0 -8.62506 165.967"
         id="path2600" />
      <path
         d="M-8.62506 165.967 A4 2.29995 -179.798 0 0 -8.59619 166.248"
         id="path2602" />
      <path
         d="M-0.679253,165.508 L-0.667845,165.541  L-0.657273,165.574  L-0.647538,165.607  L-0.638643,165.64  L-0.630589,165.673  L-0.623379,165.706  L-0.617013,165.74  L-0.611493,165.773  L-0.60682,165.807  L-0.602996,165.84  L-0.600021,165.874  L-0.597895,165.907  L-0.596619,165.941  L-0.596194,165.974 "
         id="path2604" />
      <path
         d="M-50.8131 140.695 A4 2.29995 -179.798 0 0 -51.0515 141.472"
         id="path2606" />
      <path
         d="M-51.0515 141.472 A4 2.29995 -179.798 0 0 -51.0226 141.753"
         id="path2608" />
      <path
         d="M-43.1057,141.013 L-43.0943,141.046  L-43.0837,141.079  L-43.0739,141.112  L-43.065,141.145  L-43.057,141.178  L-43.0498,141.211  L-43.0434,141.245  L-43.0379,141.278  L-43.0332,141.312  L-43.0294,141.345  L-43.0264,141.379  L-43.0243,141.412  L-43.023,141.446  L-43.0226,141.479 "
         id="path2610" />
      <path
         d="M256.892 -30.7411 A4 2.3094 180 0 0 250.063 -29.1081"
         id="path2612" />
      <path
         d="M250.063 -29.1081 A4 2.3094 180 0 0 258.063 -29.1081"
         id="path2614" />
      <path
         d="M258.063 -29.1081 A4 2.3094 180 0 0 256.892 -30.7411"
         id="path2616" />
      <path
         d="M299.318 -6.2462 A4 2.3094 180 0 0 292.49 -4.61321"
         id="path2618" />
      <path
         d="M292.49 -4.61321 A4 2.3094 180 0 0 300.49 -4.61321"
         id="path2620" />
      <path
         d="M300.49 -4.61321 A4 2.3094 180 0 0 299.318 -6.2462"
         id="path2622" />
      <path
         d="M220.476 -66.0546 A4 2.3094 120 0 1 215.647 -60.9575"
         id="path2624" />
      <path
         d="M215.647 -60.9575 A4 2.3094 120 0 1 219.647 -67.8857"
         id="path2626" />
      <path
         d="M219.647 -67.8857 A4 2.3094 120 0 1 220.476 -66.0546"
         id="path2628" />
      <path
         d="M220.476 -412.004 A4 2.3094 120 0 1 215.647 -406.907"
         id="path2630" />
      <path
         d="M215.647 -406.907 A4 2.3094 120 0 1 219.647 -413.835"
         id="path2632" />
      <path
         d="M219.647 -413.835 A4 2.3094 120 0 1 220.476 -412.004"
         id="path2634" />
      <path
         d="M-92.631 -231.232 A4 2.3094 120 0 1 -97.4594 -226.135"
         id="path2636" />
      <path
         d="M-97.4594 -226.135 A4 2.3094 120 0 1 -93.4594 -233.063"
         id="path2638" />
      <path
         d="M-93.4594 -233.063 A4 2.3094 120 0 1 -92.631 -231.232"
         id="path2640" />
      <path
         d="M-40.6586 -58.9919 A9 5.19615 180 0 0 -56.0226 -55.3176"
         id="path2642" />
      <path
         d="M-56.0226 -55.3176 A9 5.19615 180 0 0 -53.3866 -51.6434"
         id="path2644" />
      <path
         d="M-44.1942 -56.9506 A4 2.3094 180 0 0 -51.0226 -55.3176"
         id="path2646" />
      <path
         d="M-43.0226 -55.3176 A4 2.3094 180 0 0 -44.1942 -56.9506"
         id="path2648" />
      <path
         d="M-1.76777 -32.4557 A4 2.3094 180 0 0 -8.04191 -31.9956"
         id="path2650" />
      <path
         d="M-0.596194 -30.8227 A4 2.3094 180 0 0 -1.76777 -32.4557"
         id="path2652" />
      <path
         d="M-40.6586 -74.5053 A9 5.19615 180 0 0 -53.3866 -74.5053"
         id="path2654" />
      <path
         d="M-53.3866 -74.5053 A9 5.19615 180 0 0 -56.0226 -70.8311"
         id="path2656" />
      <path
         id="240"
         d=" M -0.596194 -121.314 L 9.54594 -127.169 " />
      <path
         d="M-1.76777 -129.619 A4 2.3094 180 0 0 -8.59619 -127.986"
         id="path2659" />
      <path
         d="M-0.596194 -127.986 A4 2.3094 180 0 0 -1.76777 -129.619"
         id="path2661" />
      <path
         d="M-44.1942 -154.114 A4 2.3094 180 0 0 -51.0226 -152.481"
         id="path2663" />
      <path
         d="M-43.0226 -152.481 A4 2.3094 180 0 0 -44.1942 -154.114"
         id="path2665" />
      <path
         id="245"
         d=" M 26.5165 -132.068 L 30.052 -130.027 " />
      <path
         id="246"
         d=" M 26.5165 -132.068 L 26.5165 -42.2537 " />
      <path
         id="247"
         d=" M 83.085 -164.728 L 26.5165 -132.068 " />
      <path
         id="248"
         d=" M 83.085 -172.077 L 20.1525 -135.743 " />
      <path
         d="M-92.631 114.718 A4 2.3094 120 0 1 -97.4594 119.815"
         id="path2671" />
      <path
         d="M-97.4594 119.815 A4 2.3094 120 0 1 -93.4594 112.887"
         id="path2673" />
      <path
         d="M-93.4594 112.887 A4 2.3094 120 0 1 -92.631 114.718"
         id="path2675" />
      <path
         d="M-40.6586 -50.8269 A9 5.19615 180 0 0 -56.0226 -47.1527"
         id="path2677" />
      <path
         id="253"
         d=" M -0.596194 8.50918 L 9.54594 2.65361 " />
      <path
         d="M-40.6586 -26.332 A9 5.19615 180 0 0 -53.3866 -26.332"
         id="path2680" />
      <path
         d="M-53.3866 -26.332 A9 5.19615 180 0 0 -56.0226 -22.6578"
         id="path2682" />
      <path
         d="M-56.0226 -22.6578 A9 5.19615 180 0 0 -53.3866 -18.9835"
         id="path2684" />
      <path
         d="M-1.76777 0.204124 A4 2.3094 180 0 0 -8.59619 1.83712"
         id="path2686" />
      <path
         d="M-0.596194 1.83712 A4 2.3094 180 0 0 -1.76777 0.204124"
         id="path2688" />
      <path
         d="M-44.1942 -24.2908 A4 2.3094 180 0 0 -51.0226 -22.6578"
         id="path2690" />
      <path
         d="M-43.0226 -22.6578 A4 2.3094 180 0 0 -44.1942 -24.2908"
         id="path2692" />
      <path
         id="261"
         d=" M 111.369 47.5609 L 111.369 -53.6847 " />
      <path
         id="262"
         d=" M 30.7591 94.1012 L 111.369 47.5609 " />
      <path
         id="263"
         d=" M 30.7591 -7.14435 L 34.2947 -5.1031 " />
      <path
         id="264"
         d=" M 30.7591 -7.14435 L 30.7591 94.1012 " />
      <path
         id="265"
         d=" M 111.369 -53.6847 L 30.7591 -7.14435 " />
      <path
         id="266"
         d=" M 111.369 -65.9321 L 20.1525 -13.2681 " />
      <path
         d="M-1.76777 167.586 A4 2.3094 180 0 0 -8.59619 169.219"
         id="path2700" />
      <path
         d="M-8.59619 169.219 A4 2.3094 180 0 0 -0.596194 169.219"
         id="path2702" />
      <path
         d="M-0.596194 169.219 A4 2.3094 180 0 0 -1.76777 167.586"
         id="path2704" />
      <path
         d="M-44.1942 143.091 A4 2.3094 180 0 0 -51.0226 144.724"
         id="path2706" />
      <path
         d="M-51.0226 144.724 A4 2.3094 180 0 0 -43.0226 144.724"
         id="path2708" />
      <path
         d="M-43.0226 144.724 A4 2.3094 180 0 0 -44.1942 143.091"
         id="path2710" />
    </g>
  </g>
  <g
     id="g2721">
    <line
       x1="201.548762"
       y1="44.510769"
       x2="176.819119"
       y2="71.859473"
       style="stroke:rgb(0,0,255);stroke-width:0.50"
       id="line2715" />
    <polygon
       points="176.819119,71.859473 179.572944,70.304980 179.501911,68.892551 178.089483,68.963583"
       style="fill:rgb(0,0,255);stroke:rgb(0,0,255);stroke-width:0"
       id="polygon2717" />
    <line
       x1="201.548762"
       y1="44.510769"
       x2="219.052997"
       y2="44.510769"
       style="stroke:rgb(0,0,255);stroke-width:0.50"
       id="line2719" />
  </g>
  <g
     id="g2729">
    <line
       x1="241.969337"
       y1="46.415502"
       x2="200.542444"
       y2="90.965422"
       style="stroke:rgb(0,0,255);stroke-width:0.50"
       id="line2723" />
    <polygon
       points="200.542444,90.965422 203.317671,89.449468 203.266335,88.036187 201.853053,88.087523"
       style="fill:rgb(0,0,255);stroke:rgb(0,0,255);stroke-width:0"
       id="polygon2725" />
    <line
       x1="241.969337"
       y1="46.415502"
       x2="258.709354"
       y2="46.415502"
       style="stroke:rgb(0,0,255);stroke-width:0.50"
       id="line2727" />
  </g>
  <g
     id="g2737">
    <line
       x1="286.102109"
       y1="47.556867"
       x2="228.649927"
       y2="107.193285"
       style="stroke:rgb(0,0,255);stroke-width:0.50"
       id="line2731" />
    <polygon
       points="228.649927,107.193285 231.451485,105.726563 231.425108,104.312596 230.011140,104.338973"
       style="fill:rgb(0,0,255);stroke:rgb(0,0,255);stroke-width:0"
       id="polygon2733" />
    <line
       x1="286.102109"
       y1="47.556867"
       x2="303.222581"
       y2="47.556867"
       style="stroke:rgb(0,0,255);stroke-width:0.50"
       id="line2735" />
  </g>
  <g
     id="g2745">
    <line
       x1="142.670600"
       y1="212.293852"
       x2="209.314912"
       y2="153.669832"
       style="stroke:rgb(0,0,255);stroke-width:0.50"
       id="line2739" />
    <polygon
       points="209.314912,153.669832 206.401905,154.900436 206.311545,156.311760 207.722869,156.402120"
       style="fill:rgb(0,0,255);stroke:rgb(0,0,255);stroke-width:0"
       id="polygon2741" />
    <line
       x1="142.670600"
       y1="212.293852"
       x2="124.028308"
       y2="212.293852"
       style="stroke:rgb(0,0,255);stroke-width:0.50"
       id="line2743" />
  </g>
  <g
     id="g2749">
    <text
       x="207.347938"
       y="40.328223"
       font-family="inherit"
       font-size="5"
       fill="rgb(0,0,0)"
       text-anchor="inherit"
       transform="rotate(0.000000 207.347938,40.328223)"
       id="text2747">1</text>
  </g>
  <g
     id="g2753">
    <text
       x="248.056616"
       y="40.328223"
       font-family="inherit"
       font-size="5"
       fill="rgb(0,0,0)"
       text-anchor="inherit"
       transform="rotate(0.000000 248.056616,40.328223)"
       id="text2751">2</text>
  </g>
  <g
     id="g2757">
    <text
       x="292.570783"
       y="42.010164"
       font-family="inherit"
       font-size="5"
       fill="rgb(0,0,0)"
       text-anchor="inherit"
       transform="rotate(0.000000 292.570783,42.010164)"
       id="text2755">3</text>
  </g>
  <g
     id="g2761">
    <text
       x="131.031701"
       y="209.550698"
       font-family="inherit"
       font-size="5"
       fill="rgb(0,0,0)"
       text-anchor="inherit"
       transform="rotate(0.000000 131.031701,209.550698)"
       id="text2759">4</text>
  </g>
  <g
     transform="translate(290.287114,191.749286)"
     id="g2825">
    <line
       x1="0.000000"
       y1="0.000000"
       x2="120.000000"
       y2="0.000000"
       style="stroke:rgb(0,0,0);stroke-width:0.30"
       id="line2763" />
    <line
       x1="0.000000"
       y1="7.000000"
       x2="120.000000"
       y2="7.000000"
       style="stroke:rgb(0,0,0);stroke-width:0.30"
       id="line2765" />
    <line
       x1="0.000000"
       y1="14.000000"
       x2="120.000000"
       y2="14.000000"
       style="stroke:rgb(0,0,0);stroke-width:0.30"
       id="line2767" />
    <line
       x1="0.000000"
       y1="21.000000"
       x2="120.000000"
       y2="21.000000"
       style="stroke:rgb(0,0,0);stroke-width:0.30"
       id="line2769" />
    <line
       x1="0.000000"
       y1="28.000000"
       x2="120.000000"
       y2="28.000000"
       style="stroke:rgb(0,0,0);stroke-width:0.30"
       id="line2771" />
    <line
       x1="0.000000"
       y1="35.000000"
       x2="120.000000"
       y2="35.000000"
       style="stroke:rgb(0,0,0);stroke-width:0.30"
       id="line2773" />
    <line
       x1="0.000000"
       y1="0.000000"
       x2="0.000000"
       y2="35.000000"
       style="stroke:rgb(0,0,0);stroke-width:0.30"
       id="line2775" />
    <line
       x1="16.000000"
       y1="0.000000"
       x2="16.000000"
       y2="35.000000"
       style="stroke:rgb(0,0,0);stroke-width:0.30"
       id="line2777" />
    <line
       x1="70.000000"
       y1="0.000000"
       x2="70.000000"
       y2="35.000000"
       style="stroke:rgb(0,0,0);stroke-width:0.30"
       id="line2779" />
    <line
       x1="100.000000"
       y1="0.000000"
       x2="100.000000"
       y2="35.000000"
       style="stroke:rgb(0,0,0);stroke-width:0.30"
       id="line2781" />
    <line
       x1="120.000000"
       y1="0.000000"
       x2="120.000000"
       y2="35.000000"
       style="stroke:rgb(0,0,0);stroke-width:0.30"
       id="line2783" />
    <text
       x="1.000000"
       y="6.000000"
       font-family="inherit"
       font-size="5"
       fill="rgb(0,0,0)"
       text-anchor="inherit"
       id="text2785">4</text>
    <text
       x="17.000000"
       y="6.000000"
       font-family="inherit"
       font-size="5"
       fill="rgb(0,0,0)"
       text-anchor="inherit"
       id="text2787">Plexi Base</text>
    <text
       x="71.000000"
       y="6.000000"
       font-family="inherit"
       font-size="5"
       fill="rgb(0,0,0)"
       text-anchor="inherit"
       id="text2789">17.04.04</text>
    <text
       x="101.000000"
       y="6.000000"
       font-family="inherit"
       font-size="5"
       fill="rgb(0,0,0)"
       text-anchor="inherit"
       id="text2791">1</text>
    <text
       x="1.000000"
       y="13.000000"
       font-family="inherit"
       font-size="5"
       fill="rgb(0,0,0)"
       text-anchor="inherit"
       id="text2793">3</text>
    <text
       x="17.000000"
       y="13.000000"
       font-family="inherit"
       font-size="5"
       fill="rgb(0,0,0)"
       text-anchor="inherit"
       id="text2795">PCB Mount</text>
    <text
       x="71.000000"
       y="13.000000"
       font-family="inherit"
       font-size="5"
       fill="rgb(0,0,0)"
       text-anchor="inherit"
       id="text2797">17.04.03</text>
    <text
       x="101.000000"
       y="13.000000"
       font-family="inherit"
       font-size="5"
       fill="rgb(0,0,0)"
       text-anchor="inherit"
       id="text2799">1</text>
    <text
       x="1.000000"
       y="20.000000"
       font-family="inherit"
       font-size="5"
       fill="rgb(0,0,0)"
       text-anchor="inherit"
       id="text2801">2</text>
    <text
       x="17.000000"
       y="20.000000"
       font-family="inherit"
       font-size="5"
       fill="rgb(0,0,0)"
       text-anchor="inherit"
       id="text2803">Gen7 Board Mount</text>
    <text
       x="71.000000"
       y="20.000000"
       font-family="inherit"
       font-size="5"
       fill="rgb(0,0,0)"
       text-anchor="inherit"
       id="text2805">17.04.02</text>
    <text
       x="101.000000"
       y="20.000000"
       font-family="inherit"
       font-size="5"
       fill="rgb(0,0,0)"
       text-anchor="inherit"
       id="text2807">1</text>
    <text
       x="1.000000"
       y="27.000000"
       font-family="inherit"
       font-size="5"
       fill="rgb(0,0,0)"
       text-anchor="inherit"
       id="text2809">1</text>
    <text
       x="17.000000"
       y="27.000000"
       font-family="inherit"
       font-size="5"
       fill="rgb(0,0,0)"
       text-anchor="inherit"
       id="text2811">Bottom Corner</text>
    <text
       x="71.000000"
       y="27.000000"
       font-family="inherit"
       font-size="5"
       fill="rgb(0,0,0)"
       text-anchor="inherit"
       id="text2813">17.04.01</text>
    <text
       x="101.000000"
       y="27.000000"
       font-family="inherit"
       font-size="5"
       fill="rgb(0,0,0)"
       text-anchor="inherit"
       id="text2815">4</text>
    <text
       x="1.000000"
       y="34.000000"
       font-family="inherit"
       font-size="5"
       fill="rgb(0,0,0)"
       text-anchor="inherit"
       id="text2817">No.</text>
    <text
       x="17.000000"
       y="34.000000"
       font-family="inherit"
       font-size="5"
       fill="rgb(0,0,0)"
       text-anchor="inherit"
       id="text2819">Name</text>
    <text
       x="71.000000"
       y="34.000000"
       font-family="inherit"
       font-size="5"
       fill="rgb(0,0,0)"
       text-anchor="inherit"
       id="text2821">DWG No.</text>
    <text
       x="101.000000"
       y="34.000000"
       font-family="inherit"
       font-size="5"
       fill="rgb(0,0,0)"
       text-anchor="inherit"
       id="text2823">Qty</text>
  </g>
  <text
     style="font-size:5px;font-family:osifont;text-anchor:middle;fill:#000000;stroke-width:0.99999994"
     freecad:editable="FreeCAD DRAWING"
     x="290.20355"
     y="268.72672"
     id="text2187-3">
    <tspan
       style="stroke-width:0.99999994"
       id="tspan2185-6">shelving for lightweight objects.</tspan>
  </text>
</svg>
