<?xml version="1.0" encoding="UTF-8" standalone="no"?>
<svg
   xmlns:freecad="http://www.freecadweb.org/wiki/index.php?title=Svg_Namespace"
   xmlns:dc="http://purl.org/dc/elements/1.1/"
   xmlns:cc="http://creativecommons.org/ns#"
   xmlns:rdf="http://www.w3.org/1999/02/22-rdf-syntax-ns#"
   xmlns:svg="http://www.w3.org/2000/svg"
   xmlns="http://www.w3.org/2000/svg"
   xmlns:sodipodi="http://sodipodi.sourceforge.net/DTD/sodipodi-0.dtd"
   xmlns:inkscape="http://www.inkscape.org/namespaces/inkscape"
   version="1.1"
   width="420mm"
   height="297mm"
   viewBox="0 0 420 297"
   id="svg442"
   sodipodi:docname="HotEndMount.svg"
   inkscape:version="0.92.1 r15371"
   inkscape:export-filename="/home/damian/3DPrinter/CAD/SVG/HotEndMount.png"
   inkscape:export-xdpi="96"
   inkscape:export-ydpi="96">
  <metadata
     id="metadata448">
    <rdf:RDF>
      <cc:Work
         rdf:about="">
        <dc:format>image/svg+xml</dc:format>
        <dc:type
           rdf:resource="http://purl.org/dc/dcmitype/StillImage" />
      </cc:Work>
    </rdf:RDF>
  </metadata>
  <defs
     id="defs446" />
  <sodipodi:namedview
     pagecolor="#ffffff"
     bordercolor="#666666"
     borderopacity="1"
     objecttolerance="10"
     gridtolerance="10"
     guidetolerance="10"
     inkscape:pageopacity="0"
     inkscape:pageshadow="2"
     inkscape:window-width="1321"
     inkscape:window-height="744"
     id="namedview444"
     showgrid="false"
     inkscape:zoom="0.53629349"
     inkscape:cx="482.32458"
     inkscape:cy="615.80796"
     inkscape:window-x="45"
     inkscape:window-y="24"
     inkscape:window-maximized="1"
     inkscape:current-layer="g398" />
  <!-- Working space 20 10 410 287 -->
  <!-- Title block 230 227 410 287 -->
  <g
     id="g119">
    <rect
       id="drawing-border"
       style="fill:none;stroke:#000000;stroke-width:0.35;stroke-linecap:miter;stroke-miterlimit:4"
       width="390"
       height="277"
       x="20"
       y="10" />
    <!-- width-30, height-20 -->
    <g
       transform="translate(210,0)"
       id="g117">
      <!-- A4 Portrait based for other formats width-210, height-297 -->
      <!--        page       rect   translation
			               w    h    rw   rh   tx   ty
			        A4-P  210  297  180  277    0    0
			        A3-L  420  297  390  277  210    0
			        A2-L  594  420  564  400  384  123
			        A1-L  841  594  811  574  631  297
			        A0-L 1189  841 1159  821  979  544
			-->
      <g
         id="titleblock-structure"
         style="fill:none;stroke:#000000;stroke-width:0.35;stroke-linecap:miter;stroke-miterlimit:4">
        <rect
           width="180"
           height="60"
           x="20"
           y="227"
           id="rect11" />
        <path
           d="m 20,239 h 180"
           id="path13" />
        <path
           d="m 80,227 v 12"
           id="path15" />
        <path
           d="m 140,239 v 48"
           id="path17" />
        <path
           d="m 160,239 v 12"
           id="path19" />
        <path
           d="m 180,239 v 12"
           id="path21" />
        <path
           d="m 140,251 h 60"
           id="path23" />
        <path
           d="m 140,275 h 60"
           id="path25" />
        <path
           d="m 180,275 v 12"
           id="path27" />
      </g>
      <g
         id="titleblock-text-non-editable"
         style="font-size:3px;text-anchor:start;fill:#000000;font-family:osifont"
         xml:space="preserve"><text
           x="21"
           y="230"
           id="text30">Created by:</text>
<text
           x="81"
           y="230"
           id="text32">Title:</text>
<text
           x="21"
           y="242"
           id="text34">Supplementary information:</text>
<text
           x="141"
           y="242"
           id="text36">Size:</text>
<text
           x="161"
           y="242"
           id="text38">Sheet:</text>
<text
           x="181"
           y="242"
           id="text40">Scale:</text>
<text
           x="141"
           y="254"
           id="text42">Part number:</text>
<text
           x="141"
           y="266"
           id="text44">Drawing number:</text>
<text
           x="141"
           y="278"
           id="text46">Date:</text>
<text
           x="181"
           y="278"
           id="text48">Revision:</text>
</g>      <g
         id="titleblock-text-editable"
         style="font-size:5px;text-anchor:middle;fill:#000000;font-family:osifont"
         xml:space="preserve"><text
           freecad:editable="AUTHOR NAME"
           x="50"
           y="236"
           id="text53"><tspan
             id="tspan51">B.D.G</tspan></text>
<text
           freecad:editable="DRAWING TITLE"
           x="140"
           y="236"
           id="text57"><tspan
             id="tspan55">HOT-END MOUNT</tspan></text>
<text
           freecad:editable="SI-1"
           x="80"
           y="248"
           id="text61"><tspan
             id="tspan59" /></text>
<text
           freecad:editable="SI-2"
           x="80"
           y="255"
           id="text65"><tspan
             id="tspan63" /></text>
<text
           freecad:editable="FreeCAD DRAWING"
           x="80"
           y="262"
           id="text69"><tspan
             id="tspan67">Clamps the hot-end into place.</tspan></text>
<text
           freecad:editable="SI-4"
           x="80"
           y="269"
           id="text73"><tspan
             id="tspan71" /></text>
<text
           freecad:editable="SI-5"
           x="80"
           y="276"
           id="text77"><tspan
             id="tspan75" /></text>
<text
           freecad:editable="SI-6"
           x="80"
           y="283"
           id="text81"><tspan
             id="tspan79" /></text>
<text
           freecad:editable="FC-SI"
           x="150"
           y="248"
           id="text85"><tspan
             id="tspan83">A3</tspan></text>
<text
           freecad:editable="FC-SH"
           x="170"
           y="248"
           id="text89"><tspan
             id="tspan87">1 / 1</tspan></text>
<text
           freecad:editable="FC-SC"
           x="190"
           y="248"
           id="text93"><tspan
             id="tspan91">3:1</tspan></text>
<text
           freecad:editable="PN"
           x="170"
           y="260"
           id="text97"><tspan
             id="tspan95">01.06</tspan></text>
<text
           freecad:editable="DN"
           x="170"
           y="272"
           id="text101"><tspan
             id="tspan99">17.01.06</tspan></text>
<text
           freecad:editable="FC-DATE"
           x="160"
           y="284"
           id="text105"><tspan
             id="tspan103">1/05/2017</tspan></text>
<text
           freecad:editable="FC-REV"
           x="190"
           y="284"
           id="text109"><tspan
             id="tspan107">REV A</tspan></text>
</g>      <!-- Set display:none to hide FreeCAD Logo -->
      <g
         style="display:inline"
         id="freecad-logo"
         transform="translate(128.5,276)"
         fill-rule="evenodd"
         stroke="#000"
         stroke-width="0.35"
         fill="none">
        <path
           d="m0.1524 0.15254v8.8549h1.9744v-3.4652h1.396v-1.3661h-1.396v-1.4745h3.4391v-2.5441l-5.4135-0.005z"
           id="path112" />
        <path
           d="m7.7927 3.4504-0.50715-0.176-0.48387-1.2366-0.76115 0.04-0.34718 1.2787-0.4859 0.23269-1.2119-0.53015-0.51188 0.56882 0.65892 1.1485-0.18006 0.50567-1.2366 0.48387 0.044064 0.76263 1.2787 0.34718 0.23269 0.4859-0.53421 1.2104 0.56882 0.51188 1.1485-0.65891 0.50973 0.18155 0.4798 1.2351 0.7667-0.04258 0.34311-1.2802 0.4859-0.23269 1.2145 0.5357 0.51188-0.56882-0.65891-1.1485 0.17748-0.51122 1.2351-0.4798-0.03851-0.76521-1.2802-0.34311-0.23269-0.4859 0.53163-1.216-0.56881-0.51184zm-0.5715 1.2244 0.23576 0.13679 0.20426 0.18519 0.16353 0.22101 0.11763 0.24572 0.06916 0.26489 0.01146 0.27146-0.03921 0.27139-0.08948 0.25764-0.14234 0.23834-0.17964 0.20167-0.22101 0.16353-0.24572 0.11763-0.26489 0.06916-0.27295 0.01553-0.2719-0.04-0.2576-0.089-0.2383-0.143-0.2002-0.183-0.165-0.217-0.1177-0.246-0.0676-0.269-0.0156-0.273 0.039206-0.2714 0.089484-0.25764 0.14085-0.23427 0.18113-0.20574 0.22101-0.16352 0.24572-0.11763 0.26895-0.06768 0.27147-0.01146 0.27139 0.03921 0.25764 0.08948z"
           id="path114" />
      </g>
    </g>
  </g>
  <g
     id="Ortho_0_1"
     transform="rotate(90,96,30) translate(96,30) scale(3,3)">
    <g
       stroke="rgb(0, 0, 0)"
       stroke-width="0.116667"
       stroke-linecap="butt"
       stroke-linejoin="miter"
       fill="none"
       transform="scale(1,-1)"
       id="g132">
      <path
         id="1"
         d=" M 0 0 L 0 10 " />
      <path
         d="M-4.44089e-16 10 A2 2 0 0 0 2 12"
         id="path122" />
      <path
         id="3"
         d=" M 21.65 0 L 0 0 " />
      <path
         id="4"
         d=" M 2 12 L 40 12 " />
      <path
         d="M32.85 0 A5.6 5.6 0 0 1 21.65 1.80941e-14"
         id="path126" />
      <path
         d="M40 12 A2 2 0 0 0 42 10"
         id="path128" />
      <path
         id="7"
         d=" M 32.85 0 L 42 0 " />
      <path
         id="8"
         d=" M 42 10 L 42 0 " />
    </g>
  </g>
  <g
     id="Ortho_1_1"
     transform="rotate(0,300,160) translate(300,160) scale(3,3)">
    <g
       stroke="rgb(0, 0, 0)"
       stroke-width="0.116667"
       stroke-linecap="butt"
       stroke-linejoin="miter"
       fill="none"
       transform="scale(1,-1)"
       id="g163">
      <path
         id="path135"
         d=" M -8 21.65 L -8 0 " />
      <path
         d="M-8,32.85 L-8,32.7096  L-8,32.2954  L-8,31.6283  L-8,30.7415  L-8,29.6797  L-8,28.4961  L-8,27.25  L-8,26.0039  L-8,24.8203  L-8,23.7585  L-8,22.8717  L-8,22.2046  L-8,21.7904  L-8,21.65 "
         id="path137" />
      <path
         id="path139"
         d=" M -8 32.85 L -8 42 " />
      <path
         id="path141"
         d=" M 0 -4.44089e-16 L -8 -4.44089e-16 " />
      <path
         id="5"
         d=" M 0 0 L -8 0 " />
      <path
         id="6"
         d=" M -2.3 19.25 L -2.3 21.65 " />
      <path
         id="path145"
         d=" M -2.3 19.25 L 0 19.25 " />
      <path
         id="path147"
         d=" M 0 19.25 L 0 0 " />
      <path
         id="9"
         d=" M -2.3 21.65 L -8 21.65 " />
      <circle
         cx="-4"
         cy="5.5"
         r="1.6"
         id="circle150" />
      <path
         d="M-2.3,21.65 L-2.3,21.7904  L-2.3,22.2046  L-2.3,22.8717  L-2.3,23.7585  L-2.3,24.8203  L-2.3,26.0039  L-2.3,27.25  L-2.3,28.4961  L-2.3,29.6797  L-2.3,30.7415  L-2.3,31.6283  L-2.3,32.2954  L-2.3,32.7096  L-2.3,32.85 "
         id="path152" />
      <path
         id="12"
         d=" M -2.3 32.85 L -8 32.85 " />
      <path
         id="13"
         d=" M -2.3 35.25 L -2.3 32.85 " />
      <path
         id="14"
         d=" M 0 35.25 L -2.3 35.25 " />
      <path
         id="15"
         d=" M 0 35.25 L 0 42 " />
      <path
         id="16"
         d=" M 0 42 L -8 42 " />
      <circle
         cx="-4"
         cy="36.5"
         r="1.6"
         id="circle159" />
      <path
         d="M0,35.25 L0,35.0494  L0,34.4578  L0,33.5047  L0,32.2379  L0,30.7211  L0,29.0302  L0,27.25  L0,25.4698  L0,23.7789  L0,22.2621  L0,20.9953  L0,20.0422  L0,19.4506  L0,19.25 "
         id="path161" />
    </g>
  </g>
  <g
     id="View"
     transform="rotate(90,132,240) translate(132,240) scale(3,3)">
    <g
       stroke="rgb(0, 0, 0)"
       stroke-width="0.116667"
       stroke-linecap="butt"
       stroke-linejoin="miter"
       fill="none"
       transform="scale(1,-1)"
       id="g203">
      <path
         d="M-8,-5.6 L-8,-5.56479  L-8,-5.4596  L-8,-5.28575  L-8,-5.04543  L-8,-4.74166  L-8,-4.37826  L-8,-3.9598  L-8,-3.49154  L-8,-2.97938  L-8,-2.42975  L-8,-1.84956  L-8,-1.24612  L-8,-0.627001  L-8,-1.80941e-14 "
         id="path166" />
      <path
         d="M-8,-12 L-8,-11.9874  L-8,-11.9499  L-8,-11.8878  L-8,-11.8019  L-8,-11.6934  L-8,-11.5637  L-8,-11.4142  L-8,-11.247  L-8,-11.0641  L-8,-10.8678  L-8,-10.6606  L-8,-10.445  L-8,-10.2239  L-8,-10 "
         id="path168" />
      <path
         id="path170"
         d=" M -8 -12 L -8 0 " />
      <path
         id="path172"
         d=" M 0 0 L -2.4 0 " />
      <path
         d="M-2.4,-7.99361e-16 L-2.41006,-8.02711e-16  L-2.44012,-8.12722e-16  L-2.48979,-8.29266e-16  L-2.55845,-8.52135e-16  L-2.64524,-8.81042e-16  L-2.74907,-9.15624e-16  L-2.86863,-9.55445e-16  L-3.00242,-1.00001e-15  L-3.14875,-1.04874e-15  L-3.30579,-1.10105e-15  L-3.47155,-1.15626e-15  L-3.64397,-1.21368e-15  L-3.82086,-1.2726e-15  L-4,-1.33227e-15 "
         id="path174" />
      <path
         d="M-4,-1.33227e-15 L-4.17914,-1.39193e-15  L-4.35603,-1.45085e-15  L-4.52845,-1.50828e-15  L-4.69421,-1.56349e-15  L-4.85125,-1.61579e-15  L-4.99758,-1.66453e-15  L-5.13137,-1.70909e-15  L-5.25093,-1.74891e-15  L-5.35476,-1.78349e-15  L-5.44155,-1.8124e-15  L-5.51021,-1.83527e-15  L-5.55988,-1.85181e-15  L-5.58994,-1.86182e-15  L-5.6,-1.86517e-15 "
         id="path176" />
      <path
         id="path178"
         d=" M -5.6 0 L -8 0 " />
      <path
         id="path180"
         d=" M -8 -12 L -7 -12 " />
      <path
         d="M-4,-12 L-4.33589,-12  L-4.66756,-12  L-4.99084,-12  L-5.30165,-12  L-5.5961,-12  L-5.87047,-12  L-6.12132,-12  L-6.34549,-12  L-6.54017,-12  L-6.70291,-12  L-6.83165,-12  L-6.92478,-12  L-6.98114,-12  L-7,-12 "
         id="path182" />
      <path
         d="M-1,-12 L-1.01886,-12  L-1.07522,-12  L-1.16835,-12  L-1.29709,-12  L-1.45983,-12  L-1.65451,-12  L-1.87868,-12  L-2.12953,-12  L-2.4039,-12  L-2.69835,-12  L-3.00916,-12  L-3.33244,-12  L-3.66411,-12  L-4,-12 "
         id="path184" />
      <path
         id="11"
         d=" M -1 -12 L 0 -12 " />
      <path
         id="path187"
         d=" M -7 -12 L -7 -9 " />
      <path
         id="path189"
         d=" M -7 -9 L -5.6 -9 " />
      <path
         id="path191"
         d=" M -5.6 -9 L -5.6 -1.86517e-15 " />
      <path
         id="path193"
         d=" M 0 -12 L 0 0 " />
      <path
         id="path195"
         d=" M -2.4 -9 L -2.4 -7.99361e-16 " />
      <path
         id="17"
         d=" M -2.4 -9 L -1 -9 " />
      <path
         id="18"
         d=" M -1 -12 L -1 -9 " />
      <path
         d="M-2.4,-9 L-2.41006,-9  L-2.44012,-9  L-2.48979,-9  L-2.55845,-9  L-2.64524,-9  L-2.74907,-9  L-2.86863,-9  L-3.00242,-9  L-3.14875,-9  L-3.30579,-9  L-3.47155,-9  L-3.64397,-9  L-3.82086,-9  L-4,-9 "
         id="path199" />
      <path
         d="M-4,-9 L-4.17914,-9  L-4.35603,-9  L-4.52845,-9  L-4.69421,-9  L-4.85125,-9  L-4.99758,-9  L-5.13137,-9  L-5.25093,-9  L-5.35476,-9  L-5.44155,-9  L-5.51021,-9  L-5.55988,-9  L-5.58994,-9  L-5.6,-9 "
         id="path201" />
    </g>
  </g>
  <g
     transform="scale(3.000000,3.000000)"
     stroke="rgb(0,0,255)"
     stroke-width="0.106667"
     id="g210">
    <path
       d="M 32.000000,47.425000 L 33.000000,47.425000 M 33.666667,47.425000 L 35.666667,47.425000 M 36.333333,47.425000 L 37.333333,47.425000 M 38.000000,47.425000 L 40.000000,47.425000 M 40.666667,47.425000 L 41.666667,47.425000 M 42.333333,47.425000 L 44.333333,47.425000 M 45.000000,47.425000 L 45.677718,47.425000 "
       id="path206" />
    <path
       d="M 32.000000,47.425000 L 31.000000,47.425000 M 30.333333,47.425000 L 30.007260,47.425000 "
       id="path208" />
  </g>
  <g
     id="g214">
    <line
       x1="136.068477921"
       y1="142.299087692"
       x2="136.068477921"
       y2="142.299087692"
       style="stroke:rgb(0,0,0);stroke-width:0.01"
       id="line212" />
  </g>
  <g
     id="g218">
    <line
       x1="90.6453228097"
       y1="142.299087692"
       x2="90.6453228097"
       y2="142.299087692"
       style="stroke:rgb(0,0,0);stroke-width:0.01"
       id="line216" />
  </g>
  <g
     id="g226">
    <line
       x1="136.068478"
       y1="129.234906"
       x2="136.068478"
       y2="142.299088"
       style="stroke:rgb(0,0,255);stroke-width:0.50"
       id="line220" />
    <polygon
       points="136.068478,142.299088 137.068478,139.299088 136.068478,138.299088 135.068478,139.299088"
       style="fill:rgb(0,0,255);stroke:rgb(0,0,255);stroke-width:0"
       id="polygon222" />
    <line
       x1="136.068478"
       y1="129.234906"
       x2="135.867491"
       y2="129.234906"
       style="stroke:rgb(0,0,255);stroke-width:0.50"
       id="line224" />
  </g>
  <g
     id="g234">
    <line
       x1="90.846310"
       y1="129.234906"
       x2="90.645323"
       y2="142.299088"
       style="stroke:rgb(0,0,255);stroke-width:0.50"
       id="line228" />
    <polygon
       points="90.645323,142.299088 91.691353,139.314825 90.706854,138.299561 89.691590,139.284060"
       style="fill:rgb(0,0,255);stroke:rgb(0,0,255);stroke-width:0"
       id="polygon230" />
    <line
       x1="90.846310"
       y1="129.234906"
       x2="90.846310"
       y2="129.234906"
       style="stroke:rgb(0,0,255);stroke-width:0.50"
       id="line232" />
  </g>
  <g
     id="g238">
    <text
       x="137.274402"
       y="135.867491"
       font-family="inherit"
       font-size="5"
       fill="rgb(0,0,0)"
       text-anchor="inherit"
       transform="rotate(0.000000 137.274402,135.867491)"
       id="text236">A</text>
  </g>
  <g
     id="g242">
    <text
       x="85.821625"
       y="134.661566"
       font-family="inherit"
       font-size="5"
       fill="rgb(0,0,0)"
       text-anchor="inherit"
       transform="rotate(0.000000 85.821625,134.661566)"
       id="text240">A</text>
  </g>
  <g
     id="g246">
    <text
       x="89.483000"
       y="267.079363"
       font-family="inherit"
       font-size="10"
       fill="rgb(0,0,0)"
       text-anchor="inherit"
       transform="rotate(0.000000 89.483000,267.079363)"
       id="text244">Section A-A</text>
  </g>
  <g
     id="g260">
    <line
       x1="96.000000"
       y1="217.056580"
       x2="96.000000"
       y2="202.869369"
       style="stroke:rgb(0,0,255);stroke-width:0.50"
       id="line248" />
    <line
       x1="105.000000"
       y1="217.000000"
       x2="105.000000"
       y2="202.869369"
       style="stroke:rgb(0,0,255);stroke-width:0.50"
       id="line250" />
    <line
       x1="96.000000"
       y1="203.869369"
       x2="105.000000"
       y2="203.869369"
       style="stroke:rgb(0,0,255);stroke-width:0.50"
       id="line252" />
    <polygon
       points="105.000000,203.869369 108.000000,204.869369 109.000000,203.869369 108.000000,202.869369"
       style="fill:rgb(0,0,255);stroke:rgb(0,0,255);stroke-width:0"
       id="polygon254" />
    <polygon
       points="96.000000,203.869369 93.000000,202.869369 92.000000,203.869369 93.000000,204.869369"
       style="fill:rgb(0,0,255);stroke:rgb(0,0,255);stroke-width:0"
       id="polygon256" />
    <text
       x="100.500000"
       y="201.869369"
       font-family="inherit"
       font-size="3.6"
       fill="rgb(0,0,255)"
       text-anchor="middle"
       transform="rotate(0.000000 100.500000,201.869369)"
       id="text258">3</text>
  </g>
  <g
     id="g274">
    <line
       x1="134.000000"
       y1="216.000000"
       x2="150.936609"
       y2="216.000000"
       style="stroke:rgb(0,0,255);stroke-width:0.50"
       id="line262" />
    <line
       x1="134.000000"
       y1="240.000000"
       x2="150.936609"
       y2="240.000000"
       style="stroke:rgb(0,0,255);stroke-width:0.50"
       id="line264" />
    <line
       x1="149.936609"
       y1="216.000000"
       x2="149.936609"
       y2="240.000000"
       style="stroke:rgb(0,0,255);stroke-width:0.50"
       id="line266" />
    <polygon
       points="149.936609,240.000000 150.936609,237.000000 149.936609,236.000000 148.936609,237.000000"
       style="fill:rgb(0,0,255);stroke:rgb(0,0,255);stroke-width:0"
       id="polygon268" />
    <polygon
       points="149.936609,216.000000 148.936609,219.000000 149.936609,220.000000 150.936609,219.000000"
       style="fill:rgb(0,0,255);stroke:rgb(0,0,255);stroke-width:0"
       id="polygon270" />
    <text
       x="147.936609"
       y="228.000000"
       font-family="inherit"
       font-size="3.6"
       fill="rgb(0,0,255)"
       text-anchor="middle"
       transform="rotate(-90.000000 147.936609,228.000000)"
       id="text272">8</text>
  </g>
  <g
     id="g288">
    <line
       x1="94.000000"
       y1="30.000000"
       x2="66.933102"
       y2="30.000000"
       style="stroke:rgb(0,0,255);stroke-width:0.50"
       id="line276" />
    <line
       x1="94.000000"
       y1="156.000000"
       x2="66.933102"
       y2="156.000000"
       style="stroke:rgb(0,0,255);stroke-width:0.50"
       id="line278" />
    <line
       x1="67.933102"
       y1="30.000000"
       x2="67.933102"
       y2="156.000000"
       style="stroke:rgb(0,0,255);stroke-width:0.50"
       id="line280" />
    <polygon
       points="67.933102,156.000000 68.933102,153.000000 67.933102,152.000000 66.933102,153.000000"
       style="fill:rgb(0,0,255);stroke:rgb(0,0,255);stroke-width:0"
       id="polygon282" />
    <polygon
       points="67.933102,30.000000 66.933102,33.000000 67.933102,34.000000 68.933102,33.000000"
       style="fill:rgb(0,0,255);stroke:rgb(0,0,255);stroke-width:0"
       id="polygon284" />
    <text
       x="65.933102"
       y="93.000000"
       font-family="inherit"
       font-size="3.6"
       fill="rgb(0,0,255)"
       text-anchor="middle"
       transform="rotate(-90.000000 65.933102,93.000000)"
       id="text286">42</text>
  </g>
  <g
     id="g302">
    <line
       x1="96.000000"
       y1="158.000000"
       x2="96.000000"
       y2="178.126186"
       style="stroke:rgb(0,0,255);stroke-width:0.50"
       id="line290" />
    <line
       x1="132.000000"
       y1="152.000000"
       x2="132.000000"
       y2="178.126186"
       style="stroke:rgb(0,0,255);stroke-width:0.50"
       id="line292" />
    <line
       x1="96.000000"
       y1="177.126186"
       x2="132.000000"
       y2="177.126186"
       style="stroke:rgb(0,0,255);stroke-width:0.50"
       id="line294" />
    <polygon
       points="132.000000,177.126186 129.000000,176.126186 128.000000,177.126186 129.000000,178.126186"
       style="fill:rgb(0,0,255);stroke:rgb(0,0,255);stroke-width:0"
       id="polygon296" />
    <polygon
       points="96.000000,177.126186 99.000000,178.126186 100.000000,177.126186 99.000000,176.126186"
       style="fill:rgb(0,0,255);stroke:rgb(0,0,255);stroke-width:0"
       id="polygon298" />
    <text
       x="114.000000"
       y="175.126186"
       font-family="inherit"
       font-size="3.6"
       fill="rgb(0,0,255)"
       text-anchor="middle"
       transform="rotate(0.000000 114.000000,175.126186)"
       id="text300">12</text>
  </g>
  <g
     id="g314">
    <circle
       cx="126.000000"
       cy="36.000000"
       r="0.250000"
       stroke="none"
       fill="rgb(0,0,255)"
       id="circle304" />
    <line
       x1="136.282972"
       y1="30.007260"
       x2="126.000000"
       y2="36.000000"
       style="stroke:rgb(0,0,255);stroke-width:0.50"
       id="line306" />
    <polygon
       points="131.183915,32.978903 128.088441,33.625466 127.727972,34.992968 129.095474,35.353437"
       style="fill:rgb(0,0,255);stroke:rgb(0,0,255);stroke-width:0"
       id="polygon308" />
    <line
       x1="136.282972"
       y1="30.007260"
       x2="151.286602"
       y2="30.007260"
       style="stroke:rgb(0,0,255);stroke-width:0.50"
       id="line310" />
    <text
       x="143.784787"
       y="28.007260"
       font-family="inherit"
       font-size="3.6"
       fill="rgb(0,0,255)"
       text-anchor="middle"
       transform="rotate(0.000000 143.784787,28.007260)"
       id="text312">2x R2</text>
  </g>
  <g
     id="g328">
    <circle
       cx="288.000000"
       cy="50.500000"
       r="0.250000"
       stroke="none"
       fill="rgb(0,0,255)"
       id="circle316" />
    <line
       x1="263.959996"
       y1="57.625070"
       x2="292.602121"
       y2="49.136005"
       style="stroke:rgb(0,0,255);stroke-width:0.50"
       id="line318" />
    <polygon
       points="283.397879,51.863995 286.558370,51.970273 287.232980,50.727332 285.990039,50.052723"
       style="fill:rgb(0,0,255);stroke:rgb(0,0,255);stroke-width:0"
       id="polygon320" />
    <polygon
       points="292.602121,49.136005 289.441630,49.029727 288.767020,50.272668 290.009961,50.947277"
       style="fill:rgb(0,0,255);stroke:rgb(0,0,255);stroke-width:0"
       id="polygon322" />
    <line
       x1="263.95999"
       y1="57.625069"
       x2="246.44499"
       y2="57.625069"
       style="stroke:#0000ff;stroke-width:0.70216215"
       id="line324" />
    <text
       x="256.31253"
       y="56.488441"
       font-size="3.6"
       id="text326"
       style="font-size:3.5999999px;font-family:inherit;text-anchor:middle;fill:#0000ff">2x Ø3.2 H7</text>
  </g>
  <g
     id="g342">
    <line
       x1="274.000000"
       y1="61.450000"
       x2="255.622993"
       y2="61.450000"
       style="stroke:rgb(0,0,255);stroke-width:0.50"
       id="line330" />
    <line
       x1="274.000000"
       y1="95.050000"
       x2="255.622993"
       y2="95.050000"
       style="stroke:rgb(0,0,255);stroke-width:0.50"
       id="line332" />
    <line
       x1="256.622993"
       y1="61.450000"
       x2="256.622993"
       y2="95.050000"
       style="stroke:rgb(0,0,255);stroke-width:0.50"
       id="line334" />
    <polygon
       points="256.622993,95.050000 257.622993,92.050000 256.622993,91.050000 255.622993,92.050000"
       style="fill:rgb(0,0,255);stroke:rgb(0,0,255);stroke-width:0"
       id="polygon336" />
    <polygon
       points="256.622993,61.450000 255.622993,64.450000 256.622993,65.450000 257.622993,64.450000"
       style="fill:rgb(0,0,255);stroke:rgb(0,0,255);stroke-width:0"
       id="polygon338" />
    <text
       x="254.62299"
       y="78.25"
       font-size="3.6"
       transform="rotate(-90,254.62299,78.25)"
       id="text340"
       style="font-size:3.5999999px;font-family:inherit;text-anchor:middle;fill:#0000ff">Ø11.2 H7</text>
  </g>
  <g
     id="g356">
    <line
       x1="302.000000"
       y1="54.250000"
       x2="316.549465"
       y2="54.250000"
       style="stroke:rgb(0,0,255);stroke-width:0.50"
       id="line344" />
    <line
       x1="302.000000"
       y1="102.250000"
       x2="316.549465"
       y2="102.250000"
       style="stroke:rgb(0,0,255);stroke-width:0.50"
       id="line346" />
    <line
       x1="315.549465"
       y1="54.250000"
       x2="315.549465"
       y2="102.250000"
       style="stroke:rgb(0,0,255);stroke-width:0.50"
       id="line348" />
    <polygon
       points="315.549465,102.250000 316.549465,99.250000 315.549465,98.250000 314.549465,99.250000"
       style="fill:rgb(0,0,255);stroke:rgb(0,0,255);stroke-width:0"
       id="polygon350" />
    <polygon
       points="315.549465,54.250000 314.549465,57.250000 315.549465,58.250000 316.549465,57.250000"
       style="fill:rgb(0,0,255);stroke:rgb(0,0,255);stroke-width:0"
       id="polygon352" />
    <text
       x="313.54947"
       y="78.25"
       font-size="3.6"
       transform="rotate(-90,313.54947,78.25)"
       id="text354"
       style="font-size:3.5999999px;font-family:inherit;text-anchor:middle;fill:#0000ff">Ø16 H7</text>
  </g>
  <g
     id="g370">
    <line
       x1="293.100000"
       y1="52.250000"
       x2="293.100000"
       y2="22.958810"
       style="stroke:rgb(0,0,255);stroke-width:0.50"
       id="line358" />
    <line
       x1="300.000000"
       y1="52.250000"
       x2="300.000000"
       y2="22.958810"
       style="stroke:rgb(0,0,255);stroke-width:0.50"
       id="line360" />
    <line
       x1="293.100000"
       y1="23.958810"
       x2="300.000000"
       y2="23.958810"
       style="stroke:rgb(0,0,255);stroke-width:0.50"
       id="line362" />
    <polygon
       points="300.000000,23.958810 303.000000,24.958810 304.000000,23.958810 303.000000,22.958810"
       style="fill:rgb(0,0,255);stroke:rgb(0,0,255);stroke-width:0"
       id="polygon364" />
    <polygon
       points="293.100000,23.958810 290.100000,22.958810 289.100000,23.958810 290.100000,24.958810"
       style="fill:rgb(0,0,255);stroke:rgb(0,0,255);stroke-width:0"
       id="polygon366" />
    <text
       x="296.550000"
       y="21.958810"
       font-family="inherit"
       font-size="3.6"
       fill="rgb(0,0,255)"
       text-anchor="middle"
       transform="rotate(0.000000 296.550000,21.958810)"
       id="text368">2.3</text>
  </g>
  <g
     id="g384">
    <line
       x1="132.000000"
       y1="242.000000"
       x2="132.000000"
       y2="254.054607"
       style="stroke:rgb(0,0,255);stroke-width:0.50"
       id="line372" />
    <line
       x1="96.000000"
       y1="242.000000"
       x2="96.000000"
       y2="254.054607"
       style="stroke:rgb(0,0,255);stroke-width:0.50"
       id="line374" />
    <line
       x1="132.000000"
       y1="253.054607"
       x2="96.000000"
       y2="253.054607"
       style="stroke:rgb(0,0,255);stroke-width:0.50"
       id="line376" />
    <polygon
       points="96.000000,253.054607 99.000000,254.054607 100.000000,253.054607 99.000000,252.054607"
       style="fill:rgb(0,0,255);stroke:rgb(0,0,255);stroke-width:0"
       id="polygon378" />
    <polygon
       points="132.000000,253.054607 129.000000,252.054607 128.000000,253.054607 129.000000,254.054607"
       style="fill:rgb(0,0,255);stroke:rgb(0,0,255);stroke-width:0"
       id="polygon380" />
    <text
       x="114.000000"
       y="251.054607"
       font-family="inherit"
       font-size="3.6"
       fill="rgb(0,0,255)"
       text-anchor="middle"
       transform="rotate(-0.000000 114.000000,251.054607)"
       id="text382">12</text>
  </g>
  <g
     id="g398">
    <line
       x1="94.000000"
       y1="237.000000"
       x2="83.289094"
       y2="237.000000"
       style="stroke:rgb(0,0,255);stroke-width:0.50"
       id="line388" />
    <line
       x1="84.289094"
       y1="219.000000"
       x2="84.289094"
       y2="237.000000"
       style="stroke:rgb(0,0,255);stroke-width:0.50"
       id="line390" />
    <polygon
       points="84.289094,237.000000 85.289094,234.000000 84.289094,233.000000 83.289094,234.000000"
       style="fill:rgb(0,0,255);stroke:rgb(0,0,255);stroke-width:0"
       id="polygon392" />
    <polygon
       points="84.289094,219.000000 83.289094,222.000000 84.289094,223.000000 85.289094,222.000000"
       style="fill:rgb(0,0,255);stroke:rgb(0,0,255);stroke-width:0"
       id="polygon394" />
    <text
       x="-230.52921"
       y="81.591385"
       font-size="3.6"
       transform="rotate(-90)"
       id="text396"
       style="font-size:3.5999999px;font-family:inherit;text-anchor:middle;fill:#0000ff">Ø6</text>
    <text
       xml:space="preserve"
       style="font-style:normal;font-weight:normal;font-size:10.58333302px;line-height:1.25;font-family:sans-serif;letter-spacing:0px;word-spacing:0px;fill:#000000;fill-opacity:1;stroke:none;stroke-width:0.26458332"
       x="-227.67062"
       y="79.801903"
       id="text5401"
       transform="rotate(-90)"><tspan
         sodipodi:role="line"
         id="tspan5399"
         x="-227.67062"
         y="79.801903"
         style="font-size:2.11666656px;stroke-width:0.26458332">+0.5</tspan></text>
    <text
       xml:space="preserve"
       style="font-style:normal;font-weight:normal;font-size:10.58333302px;line-height:1.25;font-family:sans-serif;letter-spacing:0px;word-spacing:0px;fill:#000000;fill-opacity:1;stroke:none;stroke-width:0.26458332"
       x="-227.26256"
       y="82.037971"
       id="text5401-3"
       transform="rotate(-90)"><tspan
         sodipodi:role="line"
         id="tspan5399-6"
         x="-227.26256"
         y="82.037971"
         style="font-size:2.11666656px;stroke-width:0.26458332">- 0.0</tspan></text>
    <path
       style="fill:none;stroke:#000000;stroke-width:0.15643032px;stroke-linecap:butt;stroke-linejoin:miter;stroke-opacity:1"
       d="m 372.2947,214.54871 h -7.39041 l 3.91205,5.86109 6.15866,-10.39894 h 11.78946"
       id="path6592"
       inkscape:connector-curvature="0"
       sodipodi:nodetypes="ccccc" />
    <path
       style="fill:none;stroke:#000000;stroke-width:0.20781881px;stroke-linecap:butt;stroke-linejoin:miter;stroke-opacity:1"
       d="m 389.5489,215.64474 c 1.43175,1.4246 4.29527,5.34226 4.29527,5.34226 l 6.20429,-12.46528"
       id="path6626"
       inkscape:connector-curvature="0" />
    <ellipse
       style="fill:none;fill-opacity:1;stroke:#000000;stroke-width:0.54219013;stroke-linejoin:round;stroke-miterlimit:4;stroke-dasharray:13.01256253, 13.01256253;stroke-dashoffset:0;stroke-opacity:1"
       id="path6652"
       cx="129.05394"
       cy="436.31763"
       rx="8.2369528"
       ry="8.1775112"
       transform="matrix(0.68146299,-0.73185257,0.7047956,0.70941043,0,0)" />
    <text
       style="font-size:2.72459078px;font-family:inherit;text-anchor:middle;fill:#0000ff;stroke-width:0.75683069"
       x="372.0939"
       y="212.58197"
       font-size="3.6"
       id="text5067-2"
       transform="scale(1.0203674,0.98003915)">
      <tspan
         style="font-size:3.73790288px;stroke-width:0.75683069"
         id="tspan6609">Ra16</tspan>
    </text>
    <path
       style="fill:none;stroke:#000000;stroke-width:0.44738391px;stroke-linecap:butt;stroke-linejoin:miter;stroke-opacity:1"
       d="M 94.657264,218.9811 71.110177,218.81022"
       id="path11629"
       inkscape:connector-curvature="0" />
    <path
       style="fill:none;stroke:#000000;stroke-width:0.15643032px;stroke-linecap:butt;stroke-linejoin:miter;stroke-opacity:1"
       d="m 285.39308,89.124947 h -7.39041 l 3.91205,5.86109 6.15866,-10.39894 h 11.78946"
       id="path6592-5-28"
       inkscape:connector-curvature="0"
       sodipodi:nodetypes="ccccc" />
    <text
       style="font-size:2.72459078px;font-family:inherit;text-anchor:middle;fill:#0000ff;stroke-width:0.75683069"
       x="287.84183"
       y="84.663834"
       font-size="3.6"
       id="text5067-2-6-97"
       transform="scale(1.0203674,0.98003915)">
      <tspan
         style="font-size:3.73790288px;stroke-width:0.75683069"
         id="tspan6609-2-3">Ra3.2</tspan>
    </text>
  </g>
  <g
     id="g412">
    <line
       x1="286.000000"
       y1="143.500000"
       x2="239.662119"
       y2="143.500000"
       style="stroke:rgb(0,0,255);stroke-width:0.50"
       id="line400" />
    <line
       x1="286.000000"
       y1="50.500000"
       x2="239.662119"
       y2="50.500000"
       style="stroke:rgb(0,0,255);stroke-width:0.50"
       id="line402" />
    <line
       x1="240.662119"
       y1="143.500000"
       x2="240.662119"
       y2="50.500000"
       style="stroke:rgb(0,0,255);stroke-width:0.50"
       id="line404" />
    <polygon
       points="240.662119,50.500000 239.662119,53.500000 240.662119,54.500000 241.662119,53.500000"
       style="fill:rgb(0,0,255);stroke:rgb(0,0,255);stroke-width:0"
       id="polygon406" />
    <polygon
       points="240.662119,143.500000 241.662119,140.500000 240.662119,139.500000 239.662119,140.500000"
       style="fill:rgb(0,0,255);stroke:rgb(0,0,255);stroke-width:0"
       id="polygon408" />
    <text
       x="238.662119"
       y="97.000000"
       font-family="inherit"
       font-size="3.6"
       fill="rgb(0,0,255)"
       text-anchor="middle"
       transform="rotate(-90.000000 238.662119,97.000000)"
       id="text410">31</text>
  </g>
  <g
     id="g426">
    <line
       x1="286.000000"
       y1="143.500000"
       x2="239.662119"
       y2="143.500000"
       style="stroke:rgb(0,0,255);stroke-width:0.50"
       id="line414" />
    <line
       x1="274.000000"
       y1="160.000000"
       x2="239.662119"
       y2="160.000000"
       style="stroke:rgb(0,0,255);stroke-width:0.50"
       id="line416" />
    <line
       x1="240.662119"
       y1="143.500000"
       x2="240.662119"
       y2="160.000000"
       style="stroke:rgb(0,0,255);stroke-width:0.50"
       id="line418" />
    <polygon
       points="240.662119,160.000000 241.662119,157.000000 240.662119,156.000000 239.662119,157.000000"
       style="fill:rgb(0,0,255);stroke:rgb(0,0,255);stroke-width:0"
       id="polygon420" />
    <polygon
       points="240.662119,143.500000 239.662119,146.500000 240.662119,147.500000 241.662119,146.500000"
       style="fill:rgb(0,0,255);stroke:rgb(0,0,255);stroke-width:0"
       id="polygon422" />
    <text
       x="-151.89812"
       y="238.18991"
       font-size="3.6"
       transform="rotate(-90)"
       id="text424"
       style="font-size:3.5999999px;font-family:inherit;text-anchor:middle;fill:#0000ff">5.5</text>
    <text
       xml:space="preserve"
       style="font-style:normal;font-weight:normal;font-size:10.58333302px;line-height:1.25;font-family:sans-serif;letter-spacing:0px;word-spacing:0px;fill:#000000;fill-opacity:1;stroke:none;stroke-width:0.26458332"
       x="-94.386086"
       y="236.83311"
       id="text5401-5"
       transform="rotate(-90)"><tspan
         sodipodi:role="line"
         id="tspan5399-62"
         x="-94.386086"
         y="236.83311"
         style="font-size:2.11666656px;stroke-width:0.26458332">+0.1</tspan></text>
    <text
       xml:space="preserve"
       style="font-style:normal;font-weight:normal;font-size:10.58333302px;line-height:1.25;font-family:sans-serif;letter-spacing:0px;word-spacing:0px;fill:#000000;fill-opacity:1;stroke:none;stroke-width:0.26458332"
       x="-93.978027"
       y="239.06918"
       id="text5401-3-9"
       transform="rotate(-90)"><tspan
         sodipodi:role="line"
         id="tspan5399-6-1"
         x="-93.978027"
         y="239.06918"
         style="font-size:2.11666656px;stroke-width:0.26458332">- 0.1</tspan></text>
  </g>
  <g
     id="g440">
    <line
       x1="288.000000"
       y1="145.500000"
       x2="288.000000"
       y2="175.216229"
       style="stroke:rgb(0,0,255);stroke-width:0.50"
       id="line428" />
    <line
       x1="300.000000"
       y1="162.000000"
       x2="300.000000"
       y2="175.216229"
       style="stroke:rgb(0,0,255);stroke-width:0.50"
       id="line430" />
    <line
       x1="288.000000"
       y1="174.216229"
       x2="300.000000"
       y2="174.216229"
       style="stroke:rgb(0,0,255);stroke-width:0.50"
       id="line432" />
    <polygon
       points="300.000000,174.216229 297.000000,173.216229 296.000000,174.216229 297.000000,175.216229"
       style="fill:rgb(0,0,255);stroke:rgb(0,0,255);stroke-width:0"
       id="polygon434" />
    <polygon
       points="288.000000,174.216229 291.000000,175.216229 292.000000,174.216229 291.000000,173.216229"
       style="fill:rgb(0,0,255);stroke:rgb(0,0,255);stroke-width:0"
       id="polygon436" />
    <text
       x="291.65659"
       y="172.58624"
       font-size="3.6"
       id="text438"
       style="font-size:3.5999999px;font-family:inherit;text-anchor:middle;fill:#0000ff">4</text>
    <text
       xml:space="preserve"
       style="font-style:normal;font-weight:normal;font-size:10.58333302px;line-height:1.25;font-family:sans-serif;letter-spacing:0px;word-spacing:0px;fill:#000000;fill-opacity:1;stroke:none;stroke-width:0.26458332"
       x="292.88788"
       y="170.70865"
       id="text5401-7"><tspan
         sodipodi:role="line"
         id="tspan5399-5"
         x="292.88788"
         y="170.70865"
         style="font-size:2.11666656px;stroke-width:0.26458332">+0.1</tspan></text>
    <text
       xml:space="preserve"
       style="font-style:normal;font-weight:normal;font-size:10.58333302px;line-height:1.25;font-family:sans-serif;letter-spacing:0px;word-spacing:0px;fill:#000000;fill-opacity:1;stroke:none;stroke-width:0.26458332"
       x="293.3161"
       y="172.97438"
       id="text5401-3-3"><tspan
         sodipodi:role="line"
         id="tspan5399-6-5"
         x="293.3161"
         y="172.97438"
         style="font-size:2.11666656px;stroke-width:0.26458332">- 0.1</tspan></text>
  </g>
  <path
     style="fill:none;stroke:#000000;stroke-width:0.15643032px;stroke-linecap:butt;stroke-linejoin:miter;stroke-opacity:1"
     d="m 291.56003,132.91025 h -7.39041 l 3.91205,5.86109 6.15866,-10.39894 h 11.78946"
     id="path6592-5-2"
     inkscape:connector-curvature="0"
     sodipodi:nodetypes="ccccc" />
  <text
     style="font-size:2.72459078px;font-family:inherit;text-anchor:middle;fill:#0000ff;stroke-width:0.75683069"
     x="294.61093"
     y="129.34093"
     font-size="3.6"
     id="text5067-2-6-3"
     transform="scale(1.0203674,0.98003915)">
    <tspan
       style="font-size:3.73790288px;stroke-width:0.75683069"
       id="tspan6609-2-7">Ra3.2</tspan>
  </text>
  <path
     style="fill:none;stroke:#000000;stroke-width:0.15643032px;stroke-linecap:butt;stroke-linejoin:miter;stroke-opacity:1"
     d="m 118.55644,116.08433 v -7.39041 l -5.86109,3.91205 10.39894,6.15866 v 11.78946"
     id="path6592-5"
     inkscape:connector-curvature="0"
     sodipodi:nodetypes="ccccc" />
  <text
     style="font-size:2.72459078px;font-family:inherit;text-anchor:middle;fill:#0000ff;stroke-width:0.75683069"
     x="122.3119"
     y="-126.81988"
     font-size="3.6"
     id="text5067-2-6"
     transform="matrix(0,1.0203674,-0.98003915,0,0,0)">
    <tspan
       style="font-size:3.73790288px;stroke-width:0.75683069"
       id="tspan6609-2">Ra5</tspan>
  </text>
  <path
     style="fill:none;stroke:#000000;stroke-width:0.15643032px;stroke-linecap:butt;stroke-linejoin:miter;stroke-opacity:1"
     d="m 78.339949,212.78711 h -7.39041 l 3.91205,5.86109 6.15866,-10.39894 h 11.78946"
     id="path6592-5-5"
     inkscape:connector-curvature="0"
     sodipodi:nodetypes="ccccc" />
  <text
     style="font-size:2.72459078px;font-family:inherit;text-anchor:middle;fill:#0000ff;stroke-width:0.75683069"
     x="84.921623"
     y="210.84468"
     font-size="3.6"
     id="text5067-2-6-9"
     transform="scale(1.0203674,0.98003915)">
    <tspan
       style="font-size:3.73790288px;stroke-width:0.75683069"
       id="tspan6609-2-2">Ra3.2</tspan>
  </text>
</svg>
