<?xml version="1.0" encoding="UTF-8" standalone="no"?>

<svg
	xmlns="http://www.w3.org/2000/svg" version="1.1"
	xmlns:freecad="http://www.freecadweb.org/wiki/index.php?title=Svg_Namespace"
	width="420mm"
	height="297mm"
	viewBox="0 0 420 297">
	<!-- Working space 20 10 410 287 -->
	<!-- Title block 230 227 410 287 -->
	<g>
		<rect
			id="drawing-border"
			style="fill:none;stroke:#000000;stroke-width:0.35;stroke-linecap:miter;stroke-miterlimit:4"
			width="390"
			height="277"
			x="20"
			y="10" />
			<!-- width-30, height-20 -->
		<g
			transform="translate(210,0)">
			<!-- A4 Portrait based for other formats width-210, height-297 -->
			<!--        page       rect   translation
			               w    h    rw   rh   tx   ty
			        A4-P  210  297  180  277    0    0
			        A3-L  420  297  390  277  210    0
			        A2-L  594  420  564  400  384  123
			        A1-L  841  594  811  574  631  297
			        A0-L 1189  841 1159  821  979  544
			-->
			<g
				id="titleblock-structure"
				style="fill:none;stroke:#000000;stroke-width:0.35;stroke-linecap:miter;stroke-miterlimit:4">
				<rect width="180" height="60" x="20" y="227" />
				<path d="m 20,239 h 180" />
				<path d="m 80,227 v 12" />
				<path d="m 140,239 v 48" />
				<path d="m 160,239 v 12" />
				<path d="m 180,239 v 12" />
				<path d="m 140,251 h 60" />
				<path d="m 140,275 h 60" />
				<path d="m 180,275 v 12" />
			</g>
			<g
				id="titleblock-text-non-editable"
				style="font-size:3px;text-anchor:start;fill:#000000;font-family:osifont"
				xml:space="preserve">
				<text x="21" y="230">Created by:</text>
				<text x="81" y="230">Title:</text>
				<text x="21" y="242">Supplementary information:</text>
				<text x="141" y="242">Size:</text>
				<text x="161" y="242">Sheet:</text>
				<text x="181" y="242">Scale:</text>
				<text x="141" y="254">Part number:</text>
				<text x="141" y="266">Drawing number:</text>
				<text x="141" y="278">Date:</text>
				<text x="181" y="278">Revision:</text>
			</g>
			<g
				id="titleblock-text-editable"
				style="font-size:5px;text-anchor:middle;fill:#000000;font-family:osifont"
				xml:space="preserve">
				<text freecad:editable="AUTHOR NAME" x="50" y="236"><tspan>DAMIAN DURCZOK</tspan></text>
				<text freecad:editable="DRAWING TITLE" x="140" y="236"><tspan>EXTRUDER LEVER</tspan></text>
				<text freecad:editable="SI-1" x="80" y="248"><tspan></tspan></text>
				<text freecad:editable="SI-2" x="80" y="255"><tspan></tspan></text>
				<text freecad:editable="FreeCAD DRAWING" x="80" y="262"><tspan>Includes motor and hot-end mount. </tspan></text>
				<text freecad:editable="SI-4" x="80" y="269"><tspan>Essential for self-calibration as it is </tspan></text>
				<text freecad:editable="SI-5" x="80" y="276"><tspan>the lever for the endstop.</tspan></text>
				<text freecad:editable="SI-6" x="80" y="283"><tspan></tspan></text>
				<text freecad:editable="FC-SI" x="150" y="248"><tspan>A3</tspan></text>
				<text freecad:editable="FC-SH" x="170" y="248"><tspan>X / Y</tspan></text>
				<text freecad:editable="FC-SC" x="190" y="248"><tspan>SCALE</tspan></text>
				<text freecad:editable="PN" x="170" y="260"><tspan>PN</tspan></text>
				<text freecad:editable="DN" x="170" y="272"><tspan>DN</tspan></text>
				<text freecad:editable="FC-DATE" x="160" y="284"><tspan>8/05/2017</tspan></text>
				<text freecad:editable="FC-REV" x="190" y="284"><tspan>REV A</tspan></text>
			</g>
			<!-- Set display:none to hide FreeCAD Logo -->
			<g
				style="display:inline"
				id="freecad-logo"
				transform="translate(128.5,276)"
				fill-rule="evenodd"
				stroke="#000"
				stroke-width="0.35"
				fill="none">
					<path d="m0.1524 0.15254v8.8549h1.9744v-3.4652h1.396v-1.3661h-1.396v-1.4745h3.4391v-2.5441l-5.4135-0.005z"/>
					<path d="m7.7927 3.4504-0.50715-0.176-0.48387-1.2366-0.76115 0.04-0.34718 1.2787-0.4859 0.23269-1.2119-0.53015-0.51188 0.56882 0.65892 1.1485-0.18006 0.50567-1.2366 0.48387 0.044064 0.76263 1.2787 0.34718 0.23269 0.4859-0.53421 1.2104 0.56882 0.51188 1.1485-0.65891 0.50973 0.18155 0.4798 1.2351 0.7667-0.04258 0.34311-1.2802 0.4859-0.23269 1.2145 0.5357 0.51188-0.56882-0.65891-1.1485 0.17748-0.51122 1.2351-0.4798-0.03851-0.76521-1.2802-0.34311-0.23269-0.4859 0.53163-1.216-0.56881-0.51184zm-0.5715 1.2244 0.23576 0.13679 0.20426 0.18519 0.16353 0.22101 0.11763 0.24572 0.06916 0.26489 0.01146 0.27146-0.03921 0.27139-0.08948 0.25764-0.14234 0.23834-0.17964 0.20167-0.22101 0.16353-0.24572 0.11763-0.26489 0.06916-0.27295 0.01553-0.2719-0.04-0.2576-0.089-0.2383-0.143-0.2002-0.183-0.165-0.217-0.1177-0.246-0.0676-0.269-0.0156-0.273 0.039206-0.2714 0.089484-0.25764 0.14085-0.23427 0.18113-0.20574 0.22101-0.16352 0.24572-0.11763 0.26895-0.06768 0.27147-0.01146 0.27139 0.03921 0.25764 0.08948z"/>
			</g>
		</g>
	</g>
<g id="Ortho_0_0"
   transform="rotate(-90,88.6667,194) translate(88.6667,194) scale(2,2)"
  >
<g   stroke="rgb(0, 0, 0)"
   stroke-width="0.175"
   stroke-linecap="butt"
   stroke-linejoin="miter"
   fill="none"
   transform="scale(1,-1)"
  >
<path id= "1" d=" M 17 -15 L 17 -11 " />
<path id= "2" d=" M 8 -15 L 17 -15 " />
<path id= "3" d=" M 8 -15 L 8 -11 " />
<path id= "4" d=" M 8 -11 L 17 -11 " />
<path d="M13.5,-11 L13.6568,-11  L13.8115,-11  L13.9624,-11  L14.1074,-11  L14.2448,-11  L14.3729,-11  L14.4899,-11  L14.5946,-11  L14.6854,-11  L14.7614,-11  L14.8214,-11  L14.8649,-11  L14.8912,-11  L14.9,-11 " /><path d="M12.1,-11 L12.1088,-11  L12.1351,-11  L12.1786,-11  L12.2386,-11  L12.3146,-11  L12.4054,-11  L12.5101,-11  L12.6271,-11  L12.7552,-11  L12.8926,-11  L13.0376,-11  L13.1885,-11  L13.3432,-11  L13.5,-11 " /><path id= "7" d=" M 8 -50 L 8 -15 " />
<path id= "8" d=" M 0 -50 L 8 -50 " />
<path id= "9" d=" M 0 -50 L 0 0 " />
<path id= "10" d=" M 0 0 L 8 0 " />
<path id= "11" d=" M 8 -11 L 8 0 " />
<circle cx ="4" cy ="-26" r ="2" /><path id= "13" d=" M 0 0 L 2.3 0 " />
<path id= "14" d=" M 2.3 0 L 2.4 0 " />
<path id= "15" d=" M 5.6 0 L 8 0 " />
<path d="M4,-2.66454e-15 L4.17914,-2.78387e-15  L4.35603,-2.9017e-15  L4.52845,-3.01655e-15  L4.69421,-3.12697e-15  L4.85125,-3.23158e-15  L4.99758,-3.32906e-15  L5.13137,-3.41818e-15  L5.25093,-3.49782e-15  L5.35476,-3.56699e-15  L5.44155,-3.6248e-15  L5.51021,-3.67054e-15  L5.55988,-3.70363e-15  L5.58994,-3.72365e-15  L5.6,-3.73035e-15 " /><path d="M2.4,-1.59872e-15 L2.41006,-1.60542e-15  L2.44012,-1.62544e-15  L2.48979,-1.65853e-15  L2.55845,-1.70427e-15  L2.64524,-1.76208e-15  L2.74907,-1.83125e-15  L2.86863,-1.91089e-15  L3.00242,-2.00001e-15  L3.14875,-2.09749e-15  L3.30579,-2.2021e-15  L3.47155,-2.31252e-15  L3.64397,-2.42737e-15  L3.82086,-2.5452e-15  L4,-2.66454e-15 " /></g>
</g>



<g id="Ortho_0_1"
   transform="rotate(90,88.6667,43) translate(88.6667,43) scale(2,2)"
  >
<g   stroke="rgb(0, 0, 0)"
   stroke-width="0.175"
   stroke-linecap="butt"
   stroke-linejoin="miter"
   fill="none"
   transform="scale(1,-1)"
  >
<path id= "1" d=" M 0 15 L 42 15 " />
<path id= "2" d=" M 42 15 L 42 11 " />
<path id= "3" d=" M 42 11 L 0 11 " />
<path id= "4" d=" M 0 11 L 0 15 " />
<path d="M38.4,11 L38.3649,11  L38.2614,11  L38.0946,11  L37.8729,11  L37.6074,11  L37.3115,11  L37,11  L36.6885,11  L36.3926,11  L36.1271,11  L35.9054,11  L35.7386,11  L35.6351,11  L35.6,11 " /><path id= "6" d=" M 5 11 L 7 11 " />
<path d="M8.4,11 L8.3912,11  L8.3649,11  L8.32144,11  L8.26136,11  L8.18541,11  L8.09456,11  L7.98995,11  L7.87289,11  L7.74484,11  L7.60744,11  L7.46239,11  L7.31153,11  L7.15675,11  L7,11 " /><path d="M5,11 L4.84325,11  L4.68847,11  L4.53761,11  L4.39256,11  L4.25516,11  L4.12711,11  L4.01005,11  L3.90544,11  L3.81459,11  L3.73864,11  L3.67856,11  L3.6351,11  L3.6088,11  L3.6,11 " /><path id= "9" d=" M 42 50 L 42 15 " />
<path id= "10" d=" M 0 50 L 42 50 " />
<path id= "11" d=" M 0 15 L 0 50 " />
<path id= "12" d=" M 42 11 L 42 0 " />
<path id= "13" d=" M 20.35 0 L 42 0 " />
<path d="M20.35 0 A5.6 5.6 0 0 1 9.15 1.80941e-14" /><path id= "15" d=" M 9.15 0 L 0 0 " />
<path id= "16" d=" M 0 0 L 0 11 " />
<path id= "17" d=" M 2.5 7 L 8.56218 7 " />
<path id= "18" d=" M 8.56218 4 L 8.56218 7 " />
<path id= "19" d=" M 2.5 4 L 8.56218 4 " />
<path id= "20" d=" M 2.5 4 L 2.5 7 " />
<path id= "21" d=" M 33.5 4 L 39.5622 4 " />
<path id= "22" d=" M 33.5 4 L 33.5 7 " />
<path id= "23" d=" M 33.5 7 L 39.5622 7 " />
<path id= "24" d=" M 39.5622 4 L 39.5622 7 " />
<path d="M1.96045e-15,28 L1.88583e-15,27.9499  L1.80567e-15,27.8019  L1.724e-15,27.5637  L1.64491e-15,27.247  L1.57236e-15,26.8678  L1.51001e-15,26.445  L1.46096e-15,26  L1.42769e-15,25.555  L1.41186e-15,25.1322  L1.41426e-15,24.753  L1.43477e-15,24.4363  L1.47237e-15,24.1981  L1.52517e-15,24.0501  L1.59052e-15,24 " /><path id= "26" d=" M 2.5 4 L 3.9 4 " />
<path id= "27" d=" M 5.53109 4 L 7.8218 4 " />
<path d="M7.1,4 L7.05988,4  L6.94155,4  L6.75093,4  L6.49758,4  L6.19421,4  L5.85603,4  L5.5,4  L5.14397,4  L4.80579,4  L4.50242,4  L4.24907,4  L4.05845,4  L3.94012,4  L3.9,4 " /><path id= "29" d=" M 33.5 4 L 34.9 4 " />
<path id= "30" d=" M 36.5311 4 L 39.5622 4 " />
<path d="M38.1,4 L38.0599,4  L37.9416,4  L37.7509,4  L37.4976,4  L37.1942,4  L36.856,4  L36.5,4  L36.144,4  L35.8058,4  L35.5024,4  L35.2491,4  L35.0584,4  L34.9401,4  L34.9,4 " /><path d="M7.8218,4 L7.8688,4.08034  L7.91674,4.16012  L7.96561,4.23934  L8.01539,4.31799  L8.06608,4.39605  L8.11768,4.47352  L8.17018,4.55038  L8.22356,4.62662  L8.27783,4.70224  L8.33298,4.77722  L8.389,4.85156  L8.44587,4.92524  L8.5036,4.99825  L8.56218,5.07059 " /><path id= "33" d=" M 5.53109 4 L 5.53109 7 " />
<path id= "34" d=" M 36.5311 4 L 36.5311 7 " />
<path id= "35" d=" M 39.5622 4 L 39.5622 7 " />
</g>
</g>



<g id="Ortho_1_1"
   transform="rotate(120,293.676,61.3216) translate(293.676,61.3216) scale(2,2)"
  >
<g   stroke="rgb(0, 0, 0)"
   stroke-width="0.175"
   stroke-linecap="butt"
   stroke-linejoin="miter"
   fill="none"
   transform="scale(1,-1)"
  >
<path id= "1" d=" M -12.0208 5.30723 L 17.6777 -11.8392 " />
<path id= "2" d=" M 17.6777 -11.8392 L 17.6777 -15.1052 " />
<path id= "3" d=" M 17.6777 -15.1052 L -12.0208 2.04124 " />
<path id= "4" d=" M -12.0208 2.04124 L -12.0208 5.30723 " />
<path id= "5" d=" M -5.65685 8.98146 L -12.0208 5.30723 " />
<path id= "6" d=" M -5.65685 8.98146 L 24.0416 -8.16497 " />
<path id= "7" d=" M 24.0416 -8.16497 L 17.6777 -11.8392 " />
<path d="M17.607 -8.94064 A1.4 0.80829 -180 0 0 15.217 -8.36909" />
<path d="M15.217 -8.36909 A1.4 0.80829 -180 0 0 18.017 -8.36909" />
<path d="M18.017 -8.36909 A1.4 0.80829 -180 0 0 17.607 -8.94064" />
<path id= "11" d=" M -5.02046 5.2664 L -3.60624 4.44991 " />
<path d="M-7.00036 4.12331 A1.4 0.80829 -180 0 0 -7.41041 4.69486" />
<path d="M-7.41041 4.69486 A1.4 0.80829 -180 0 0 -5.02046 5.2664" />
<path id= "14" d=" M -7.00036 4.12331 L -5.58614 3.30681 " />
<path d="M-3.60624 4.44991 A1.4 0.80829 -180 0 0 -3.19619 3.87836" />
<path d="M-3.19619 3.87836 A1.4 0.80829 -180 0 0 -5.58614 3.30681" />
<path id= "17" d=" M 24.0416 -8.16497 L 24.0416 -11.431 " />
<path id= "18" d=" M 24.0416 -11.431 L 17.6777 -15.1052 " />
<path id= "19" d=" M 24.0416 20.4124 L 24.0416 -8.16497 " />
<path id= "20" d=" M -5.65685 37.5588 L 24.0416 20.4124 " />
<path id= "21" d=" M -5.65685 8.98146 L -5.65685 37.5588 " />
<path id= "22" d=" M 29.6985 23.6784 L 24.0416 20.4124 " />
<path id= "23" d=" M 29.6985 23.6784 L 29.6985 -17.1464 " />
<path id= "24" d=" M 29.6985 -17.1464 L 24.0416 -20.4124 " />
<path id= "25" d=" M 24.0416 -11.431 L 24.0416 -20.4124 " />
<path d="M26.8701 4.08248 A2 1.1547 -120 0 1 25.8701 0.717439" />
<path d="M25.8701 0.717439 A2 1.1547 -120 0 1 27.8701 4.18154" />
<path d="M27.8701 4.18154 A2 1.1547 -120 0 1 26.8701 4.08248" />
<path id= "29" d=" M 8.73277 -11.5738 L 24.0416 -20.4124 " />
<path d="M8.73277 -11.5738 A5.6 3.23316 120 0 1 8.47162 -9.79007" />
<path d="M1.07432 -5.51924 A5.6 3.23316 120 0 1 0.813173 -7.00146" />
<path id= "32" d=" M 0.813173 -7.00146 L -5.65685 -3.26599 " />
<path id= "33" d=" M -5.65685 -3.26599 L -5.65685 -1.63299 " />
<path id= "34" d=" M 19.0919 -14.2887 L 22.3178 -16.1512 " />
<path id= "35" d=" M 21.2132 -13.0639 L 22.3178 -13.7017 " />
<path id= "36" d=" M 22.3178 -16.1512 L 22.3178 -13.7017 " />
<path id= "37" d=" M 0 40.8248 L -5.65685 37.5588 " />
<path id= "38" d=" M 0 40.8248 L 29.6985 23.6784 " />
<path id= "39" d=" M 2.22739 -6.18496 L 0.813173 -7.00146 " />
<path d="M22.3178 -14.1088 A1.6 0.92376 180 0 0 21.381 -13.2681" />
<path d="M21.381 -13.2681 A1.6 0.92376 180 0 0 21.3907 -13.1664" />
</g>
</g>



</svg>

