<?xml version="1.0" encoding="UTF-8" standalone="no"?>

<svg
	xmlns="http://www.w3.org/2000/svg" version="1.1"
	xmlns:freecad="http://www.freecadweb.org/wiki/index.php?title=Svg_Namespace"
	width="420mm"
	height="297mm"
	viewBox="0 0 420 297">
	<!-- Working space 20 10 410 287 -->
	<!-- Title block 230 227 410 287 -->
	<g>
		<rect
			id="drawing-border"
			style="fill:none;stroke:#000000;stroke-width:0.35;stroke-linecap:miter;stroke-miterlimit:4"
			width="390"
			height="277"
			x="20"
			y="10" />
			<!-- width-30, height-20 -->
		<g
			transform="translate(210,0)">
			<!-- A4 Portrait based for other formats width-210, height-297 -->
			<!--        page       rect   translation
			               w    h    rw   rh   tx   ty
			        A4-P  210  297  180  277    0    0
			        A3-L  420  297  390  277  210    0
			        A2-L  594  420  564  400  384  123
			        A1-L  841  594  811  574  631  297
			        A0-L 1189  841 1159  821  979  544
			-->
			<g
				id="titleblock-structure"
				style="fill:none;stroke:#000000;stroke-width:0.35;stroke-linecap:miter;stroke-miterlimit:4">
				<rect width="180" height="60" x="20" y="227" />
				<path d="m 20,239 h 180" />
				<path d="m 80,227 v 12" />
				<path d="m 140,239 v 48" />
				<path d="m 160,239 v 12" />
				<path d="m 180,239 v 12" />
				<path d="m 140,251 h 60" />
				<path d="m 140,275 h 60" />
				<path d="m 180,275 v 12" />
			</g>
			<g
				id="titleblock-text-non-editable"
				style="font-size:3px;text-anchor:start;fill:#000000;font-family:osifont"
				xml:space="preserve">
				<text x="21" y="230">Created by:</text>
				<text x="81" y="230">Title:</text>
				<text x="21" y="242">Supplementary information:</text>
				<text x="141" y="242">Size:</text>
				<text x="161" y="242">Sheet:</text>
				<text x="181" y="242">Scale:</text>
				<text x="141" y="254">Part number:</text>
				<text x="141" y="266">Drawing number:</text>
				<text x="141" y="278">Date:</text>
				<text x="181" y="278">Revision:</text>
			</g>
			<g
				id="titleblock-text-editable"
				style="font-size:5px;text-anchor:middle;fill:#000000;font-family:osifont"
				xml:space="preserve">
				<text freecad:editable="AUTHOR NAME" x="50" y="236"><tspan>DAMIAN DURCZOK</tspan></text>
				<text freecad:editable="DRAWING TITLE" x="140" y="236"><tspan>HOT-END MOUNT</tspan></text>
				<text freecad:editable="SI-1" x="80" y="248"><tspan></tspan></text>
				<text freecad:editable="SI-2" x="80" y="255"><tspan></tspan></text>
				<text freecad:editable="FreeCAD DRAWING" x="80" y="262"><tspan>Clamps the hot-end into place.</tspan></text>
				<text freecad:editable="SI-4" x="80" y="269"><tspan></tspan></text>
				<text freecad:editable="SI-5" x="80" y="276"><tspan></tspan></text>
				<text freecad:editable="SI-6" x="80" y="283"><tspan></tspan></text>
				<text freecad:editable="FC-SI" x="150" y="248"><tspan>A3</tspan></text>
				<text freecad:editable="FC-SH" x="170" y="248"><tspan>X / Y</tspan></text>
				<text freecad:editable="FC-SC" x="190" y="248"><tspan>SCALE</tspan></text>
				<text freecad:editable="PN" x="170" y="260"><tspan>PN</tspan></text>
				<text freecad:editable="DN" x="170" y="272"><tspan>DN</tspan></text>
				<text freecad:editable="FC-DATE" x="160" y="284"><tspan>8/05/2017</tspan></text>
				<text freecad:editable="FC-REV" x="190" y="284"><tspan>REV A</tspan></text>
			</g>
			<!-- Set display:none to hide FreeCAD Logo -->
			<g
				style="display:inline"
				id="freecad-logo"
				transform="translate(128.5,276)"
				fill-rule="evenodd"
				stroke="#000"
				stroke-width="0.35"
				fill="none">
					<path d="m0.1524 0.15254v8.8549h1.9744v-3.4652h1.396v-1.3661h-1.396v-1.4745h3.4391v-2.5441l-5.4135-0.005z"/>
					<path d="m7.7927 3.4504-0.50715-0.176-0.48387-1.2366-0.76115 0.04-0.34718 1.2787-0.4859 0.23269-1.2119-0.53015-0.51188 0.56882 0.65892 1.1485-0.18006 0.50567-1.2366 0.48387 0.044064 0.76263 1.2787 0.34718 0.23269 0.4859-0.53421 1.2104 0.56882 0.51188 1.1485-0.65891 0.50973 0.18155 0.4798 1.2351 0.7667-0.04258 0.34311-1.2802 0.4859-0.23269 1.2145 0.5357 0.51188-0.56882-0.65891-1.1485 0.17748-0.51122 1.2351-0.4798-0.03851-0.76521-1.2802-0.34311-0.23269-0.4859 0.53163-1.216-0.56881-0.51184zm-0.5715 1.2244 0.23576 0.13679 0.20426 0.18519 0.16353 0.22101 0.11763 0.24572 0.06916 0.26489 0.01146 0.27146-0.03921 0.27139-0.08948 0.25764-0.14234 0.23834-0.17964 0.20167-0.22101 0.16353-0.24572 0.11763-0.26489 0.06916-0.27295 0.01553-0.2719-0.04-0.2576-0.089-0.2383-0.143-0.2002-0.183-0.165-0.217-0.1177-0.246-0.0676-0.269-0.0156-0.273 0.039206-0.2714 0.089484-0.25764 0.14085-0.23427 0.18113-0.20574 0.22101-0.16352 0.24572-0.11763 0.26895-0.06768 0.27147-0.01146 0.27139 0.03921 0.25764 0.08948z"/>
			</g>
		</g>
	</g>
<g id="Ortho_0_0"
   transform="rotate(-90,96,204.667) translate(96,204.667) scale(3,3)"
  >
<g   stroke="rgb(0, 0, 0)"
   stroke-width="0.116667"
   stroke-linecap="butt"
   stroke-linejoin="miter"
   fill="none"
   transform="scale(1,-1)"
  >
<path d="M8,-12 L8,-11.9874  L8,-11.9499  L8,-11.8878  L8,-11.8019  L8,-11.6934  L8,-11.5637  L8,-11.4142  L8,-11.247  L8,-11.0641  L8,-10.8678  L8,-10.6606  L8,-10.445  L8,-10.2239  L8,-10 " /><path id= "2" d=" M 8 -10 L 8 0 " />
<path id= "3" d=" M 0 -12 L 8 -12 " />
<path id= "4" d=" M 2.3 0 L 2.4 0 " />
<path id= "5" d=" M 5.6 0 L 8 0 " />
<path d="M0,-12 L0,-11.9874  L0,-11.9499  L0,-11.8878  L0,-11.8019  L0,-11.6934  L0,-11.5637  L0,-11.4142  L0,-11.247  L0,-11.0641  L0,-10.8678  L0,-10.6606  L0,-10.445  L0,-10.2239  L0,-10 " /><path id= "7" d=" M 0 0 L 2.3 0 " />
<path id= "8" d=" M 0 0 L 8 0 " />
<path id= "9" d=" M 0 -10 L 0 0 " />
</g>
</g>



<g id="Ortho_0_1"
   transform="rotate(90,96,32.3333) translate(96,32.3333) scale(3,3)"
  >
<g   stroke="rgb(0, 0, 0)"
   stroke-width="0.116667"
   stroke-linecap="butt"
   stroke-linejoin="miter"
   fill="none"
   transform="scale(1,-1)"
  >
<path id= "1" d=" M 0 0 L 0 10 " />
<path d="M-4.44089e-16 10 A2 2 0 0 0 2 12" /><path id= "3" d=" M 21.65 0 L 0 0 " />
<path id= "4" d=" M 2 12 L 40 12 " />
<path d="M32.85 0 A5.6 5.6 0 0 1 21.65 1.80941e-14" /><path d="M40 12 A2 2 0 0 0 42 10" /><path id= "7" d=" M 32.85 0 L 42 0 " />
<path id= "8" d=" M 42 10 L 42 0 " />
</g>
</g>



<g id="Ortho_1_1"
   transform="rotate(120,302.82,72.0632) translate(302.82,72.0632) scale(3,3)"
  >
<g   stroke="rgb(0, 0, 0)"
   stroke-width="0.116667"
   stroke-linecap="butt"
   stroke-linejoin="miter"
   fill="none"
   transform="scale(1,-1)"
  >
<path id= "1" d=" M 0.414214 9.08052 L -5.24264 5.81453 " />
</g>
<g   stroke="rgb(0, 0, 0)"
   stroke-width="0.116667"
   stroke-linecap="butt"
   stroke-linejoin="miter"
   fill="none"
   transform="scale(1,-1)"
  >
<path id= "1" d=" M -5.65685 -3.26599 L -5.65685 4.89898 " />
<path d="M-5.65685 4.89898 A2 1.1547 -60 0 0 -5.24264 5.81453" />
<path d="M-5.24264 5.81453 A2 1.1547 -60 0 0 -4.24264 5.71548" />
<path id= "4" d=" M 9.65201 -12.1046 L -5.65685 -3.26599 " />
<path id= "5" d=" M -4.24264 5.71548 L 22.6274 -9.79796 " />
<path d="M17.5716 -16.6769 A5.6 3.23316 120 0 1 10.8118 -9.54101" />
<path d="M10.8118 -9.54101 A5.6 3.23316 120 0 1 9.65201 -12.1046" />
<path d="M22.6274 -9.79796 A2 1.1547 -60 0 0 24.0416 -12.2474" />
<path id= "9" d=" M 17.5716 -16.6769 L 24.0416 -20.4124 " />
<path id= "10" d=" M 24.0416 -12.2474 L 24.0416 -20.4124 " />
<path d="M0.414214 9.08052 A2 1.1547 -60 0 0 1.41421 8.98146" />
<path id= "12" d=" M 13.6118 -9.81837 L 9.65201 -12.1046 " />
<path id= "13" d=" M 1.41421 8.98146 L 28.2843 -6.53197 " />
<path d="M25.1023 -7.96084 A3 1.73205 -180 0 0 19.981 -6.7361" />
<path d="M19.981 -6.7361 A3 1.73205 -180 0 0 25.981 -6.7361" />
<path d="M25.981 -6.7361 A3 1.73205 -180 0 0 25.1023 -7.96084" />
<path d="M3.18198 4.69486 A3 1.73205 -180 0 0 -1.93934 5.9196" />
<path d="M-1.93934 5.9196 A3 1.73205 -180 0 0 4.06066 5.9196" />
<path d="M4.06066 5.9196 A3 1.73205 -180 0 0 3.18198 4.69486" />
<path d="M28.2843 -6.53197 A2 1.1547 -60 0 0 29.6985 -8.98146" />
<path id= "21" d=" M 29.6985 -17.1464 L 24.0416 -20.4124 " />
<path id= "22" d=" M 29.6985 -8.98146 L 29.6985 -17.1464 " />
<path d="M0.221626 4.25667 A1.6 0.92376 180 0 0 1.89969 4.25667" />
<path d="M20.8597 -7.96084 A3 1.73205 -180 0 0 25.1023 -7.96084" />
<path d="M-1.06066 4.69486 A3 1.73205 -180 0 0 3.18198 4.69486" />
<path d="M22.1419 -8.39903 A1.6 0.92376 180 0 0 23.82 -8.39903" />
</g>
</g>



</svg>

