<?xml version="1.0" encoding="UTF-8" standalone="no"?>

<svg
	xmlns="http://www.w3.org/2000/svg" version="1.1"
	xmlns:freecad="http://www.freecadweb.org/wiki/index.php?title=Svg_Namespace"
	width="420mm"
	height="297mm"
	viewBox="0 0 420 297">
	<!-- Working space 20 10 410 287 -->
	<!-- Title block 230 227 410 287 -->
	<g>
		<rect
			id="drawing-border"
			style="fill:none;stroke:#000000;stroke-width:0.35;stroke-linecap:miter;stroke-miterlimit:4"
			width="390"
			height="277"
			x="20"
			y="10" />
			<!-- width-30, height-20 -->
		<g
			transform="translate(210,0)">
			<!-- A4 Portrait based for other formats width-210, height-297 -->
			<!--        page       rect   translation
			               w    h    rw   rh   tx   ty
			        A4-P  210  297  180  277    0    0
			        A3-L  420  297  390  277  210    0
			        A2-L  594  420  564  400  384  123
			        A1-L  841  594  811  574  631  297
			        A0-L 1189  841 1159  821  979  544
			-->
			<g
				id="titleblock-structure"
				style="fill:none;stroke:#000000;stroke-width:0.35;stroke-linecap:miter;stroke-miterlimit:4">
				<rect width="180" height="60" x="20" y="227" />
				<path d="m 20,239 h 180" />
				<path d="m 80,227 v 12" />
				<path d="m 140,239 v 48" />
				<path d="m 160,239 v 12" />
				<path d="m 180,239 v 12" />
				<path d="m 140,251 h 60" />
				<path d="m 140,275 h 60" />
				<path d="m 180,275 v 12" />
			</g>
			<g
				id="titleblock-text-non-editable"
				style="font-size:3px;text-anchor:start;fill:#000000;font-family:osifont"
				xml:space="preserve">
				<text x="21" y="230">Created by:</text>
				<text x="81" y="230">Title:</text>
				<text x="21" y="242">Supplementary information:</text>
				<text x="141" y="242">Size:</text>
				<text x="161" y="242">Sheet:</text>
				<text x="181" y="242">Scale:</text>
				<text x="141" y="254">Part number:</text>
				<text x="141" y="266">Drawing number:</text>
				<text x="141" y="278">Date:</text>
				<text x="181" y="278">Revision:</text>
			</g>
			<g
				id="titleblock-text-editable"
				style="font-size:5px;text-anchor:middle;fill:#000000;font-family:osifont"
				xml:space="preserve">
				<text freecad:editable="AUTHOR NAME" x="50" y="236"><tspan>DAMIAN DURCZOK</tspan></text>
				<text freecad:editable="DRAWING TITLE" x="140" y="236"><tspan>PERIPHERAL</tspan></text>
				<text freecad:editable="SI-1" x="80" y="248"><tspan></tspan></text>
				<text freecad:editable="SI-2" x="80" y="255"><tspan>This part attaches to the X-Carrage and </tspan></text>
				<text freecad:editable="FreeCAD DRAWING" x="80" y="262"><tspan>provides rigid support for the extruder </tspan></text>
				<text freecad:editable="SI-4" x="80" y="269"><tspan>lever with a spring and it includes an endstop</tspan></text>
				<text freecad:editable="SI-5" x="80" y="276"><tspan> and adjustable belt  mounts.</tspan></text>
				<text freecad:editable="SI-6" x="80" y="283"><tspan></tspan></text>
				<text freecad:editable="FC-SI" x="150" y="248"><tspan>A3</tspan></text>
				<text freecad:editable="FC-SH" x="170" y="248"><tspan>X / Y</tspan></text>
				<text freecad:editable="FC-SC" x="190" y="248"><tspan>SCALE</tspan></text>
				<text freecad:editable="PN" x="170" y="260"><tspan>PN</tspan></text>
				<text freecad:editable="DN" x="170" y="272"><tspan>DN</tspan></text>
				<text freecad:editable="FC-DATE" x="160" y="284"><tspan>8/05/2017</tspan></text>
				<text freecad:editable="FC-REV" x="190" y="284"><tspan>REV A</tspan></text>
			</g>
			<!-- Set display:none to hide FreeCAD Logo -->
			<g
				style="display:inline"
				id="freecad-logo"
				transform="translate(128.5,276)"
				fill-rule="evenodd"
				stroke="#000"
				stroke-width="0.35"
				fill="none">
					<path d="m0.1524 0.15254v8.8549h1.9744v-3.4652h1.396v-1.3661h-1.396v-1.4745h3.4391v-2.5441l-5.4135-0.005z"/>
					<path d="m7.7927 3.4504-0.50715-0.176-0.48387-1.2366-0.76115 0.04-0.34718 1.2787-0.4859 0.23269-1.2119-0.53015-0.51188 0.56882 0.65892 1.1485-0.18006 0.50567-1.2366 0.48387 0.044064 0.76263 1.2787 0.34718 0.23269 0.4859-0.53421 1.2104 0.56882 0.51188 1.1485-0.65891 0.50973 0.18155 0.4798 1.2351 0.7667-0.04258 0.34311-1.2802 0.4859-0.23269 1.2145 0.5357 0.51188-0.56882-0.65891-1.1485 0.17748-0.51122 1.2351-0.4798-0.03851-0.76521-1.2802-0.34311-0.23269-0.4859 0.53163-1.216-0.56881-0.51184zm-0.5715 1.2244 0.23576 0.13679 0.20426 0.18519 0.16353 0.22101 0.11763 0.24572 0.06916 0.26489 0.01146 0.27146-0.03921 0.27139-0.08948 0.25764-0.14234 0.23834-0.17964 0.20167-0.22101 0.16353-0.24572 0.11763-0.26489 0.06916-0.27295 0.01553-0.2719-0.04-0.2576-0.089-0.2383-0.143-0.2002-0.183-0.165-0.217-0.1177-0.246-0.0676-0.269-0.0156-0.273 0.039206-0.2714 0.089484-0.25764 0.14085-0.23427 0.18113-0.20574 0.22101-0.16352 0.24572-0.11763 0.26895-0.06768 0.27147-0.01146 0.27139 0.03921 0.25764 0.08948z"/>
			</g>
		</g>
	</g>
<g id="Ortho_0_0"
   transform="rotate(-90,66.3333,206) translate(66.3333,206) scale(2,2)"
  >
<g   stroke="rgb(0, 0, 0)"
   stroke-width="0.175"
   stroke-linecap="butt"
   stroke-linejoin="miter"
   fill="none"
   transform="scale(1,-1)"
  >
<path id= "1" d=" M 17 -31.5 L 17 -34.5 " />
<path id= "2" d=" M 17 -34.5 L 17 -60.5 " />
<path id= "3" d=" M 17 -60.5 L 17 -63.5 " />
<path id= "4" d=" M 5 -31.5 L 17 -31.5 " />
<path id= "5" d=" M 5 -34.5 L 17 -34.5 " />
<path id= "6" d=" M 5 -34.5 L 5 -60.5 " />
<path id= "7" d=" M 5 -60.5 L 17 -60.5 " />
<circle cx ="12" cy ="-40.5" r ="1.5" /><path d="M13.5 -53.5 A1.5 1.5 0 0 1 10.5 -53.5" /><path id= "10" d=" M 13.5 -53.5 L 13.5 -56.5 " />
<path d="M10.5 -56.5 A1.5 1.5 0 0 1 13.5 -56.5" /><path id= "12" d=" M 10.5 -53.5 L 10.5 -56.5 " />
<path id= "13" d=" M 5 -63.5 L 17 -63.5 " />
<path id= "14" d=" M 5 -31.5 L 5 -34.5 " />
<path id= "15" d=" M 5 1.92229e-15 L 5 -7 " />
<path id= "16" d=" M 5 1.92229e-15 L 5 -31.5 " />
<path id= "17" d=" M 0 -77.5 L 0 0 " />
<path id= "18" d=" M 0 -77.5 L 5 -77.5 " />
<path id= "19" d=" M 0 0 L 5 0 " />
<path id= "20" d=" M 5 -63.5 L 5 -77.5 " />
<path id= "21" d=" M 5 -60.5 L 5 -63.5 " />
<path id= "22" d=" M 5 -77.5 L 5 -80.5 " />
<path id= "23" d=" M 5 1.67347e-15 L 14 4.6857e-15 " />
<path id= "24" d=" M 14 5.38241e-15 L 14 -7 " />
<path id= "25" d=" M 14 -7 L 5 -7 " />
<path id= "26" d=" M 5 -3.55271e-15 L 5 7.5 " />
<path id= "27" d=" M 0 -77.5 L 0 -80.5 " />
<path id= "28" d=" M 0 7.5 L 0 -8.88178e-16 " />
<path id= "29" d=" M 0 -80.5 L 5 -80.5 " />
<path id= "30" d=" M 0 7.5 L 5 7.5 " />
<path id= "31" d=" M 5 -63.5 L 5 -71 " />
<path id= "32" d=" M 5 -31.5 L 17 -31.5 " />
<path id= "33" d=" M 17 -63.5 L 17 -60.5 " />
<path id= "34" d=" M 17 -31.5 L 17 -34.5 " />
<circle cx ="12" cy ="-40.5" r ="1.5" /><path d="M10.5 -53.5 A1.5 1.5 0 0 0 13.5 -53.5" /><path d="M13.5 -56.5 A1.5 1.5 0 0 0 10.5 -56.5" /></g>
</g>



<g id="Ortho_0_1"
   transform="rotate(90,66.3333,31) translate(66.3333,31) scale(2,2)"
  >
<g   stroke="rgb(0, 0, 0)"
   stroke-width="0.175"
   stroke-linecap="butt"
   stroke-linejoin="miter"
   fill="none"
   transform="scale(1,-1)"
  >
<path id= "1" d=" M 57 31.5 L 52 31.5 " />
<path id= "2" d=" M 57 31.5 L 60 34.5 " />
<path id= "3" d=" M 52 31.5 L 52 34.5 " />
<path id= "4" d=" M 60 34.5 L 60 60.5 " />
<path id= "5" d=" M 52 34.5 L 55.5 34.5 " />
<path id= "6" d=" M 60 60.5 L 57 63.5 " />
<path id= "7" d=" M 55.5 60.5 L 55.5 34.5 " />
<path id= "8" d=" M 52 63.5 L 57 63.5 " />
<path id= "9" d=" M 55.5 60.5 L 52 60.5 " />
<path id= "10" d=" M 52 60.5 L 52 63.5 " />
<path d="M60,42 L60,41.9624  L60,41.8515  L60,41.6727  L60,41.4352  L60,41.1508  L60,40.8338  L60,40.5  L60,40.1662  L60,39.8492  L60,39.5648  L60,39.3273  L60,39.1485  L60,39.0376  L60,39 " /><path d="M60,53.5 L60,53.3321  L60,53.1662  L60,53.0046  L60,52.8492  L60,52.702  L60,52.5648  L60,52.4393  L60,52.3273  L60,52.2299  L60,52.1485  L60,52.0842  L60,52.0376  L60,52.0094  L60,52 " /><path d="M60,58 L60,57.9906  L60,57.9624  L60,57.9158  L60,57.8515  L60,57.7701  L60,57.6727  L60,57.5607  L60,57.4352  L60,57.298  L60,57.1508  L60,56.9954  L60,56.8338  L60,56.6679  L60,56.5 " /><path id= "14" d=" M 60 53.5 L 60 56.5 " />
<path id= "15" d=" M 52 63.5 L 57 63.5 " />
<path id= "16" d=" M 52 7 L 52 31.5 " />
<path id= "17" d=" M 60 31.5 L 60 34.5 " />
<path id= "18" d=" M 52 -1.92229e-15 L 52 7 " />
<path id= "19" d=" M 60 -1.92229e-15 L 60 31.5 " />
<path id= "20" d=" M 52 5.55112e-16 L 60 5.55112e-16 " />
<path id= "21" d=" M 57.55 5.31532 L 59.1 8 " />
<path id= "22" d=" M 59.1 8 L 57.55 10.6847 " />
<path id= "23" d=" M 57.55 10.6847 L 54.45 10.6847 " />
<path id= "24" d=" M 54.45 10.6847 L 52.9 8 " />
<path id= "25" d=" M 52.9 8 L 54.45 5.31532 " />
<path id= "26" d=" M 54.45 5.31532 L 57.55 5.31532 " />
<path id= "27" d=" M 52 63.5 L 52 71 " />
<path id= "28" d=" M 52 34.5 L 52 60.5 " />
<path id= "29" d=" M 60 63.5 L 60 77.5 " />
<path id= "30" d=" M 60 60.5 L 60 63.5 " />
<path id= "31" d=" M 52 80.5 L 52 71 " />
<path id= "32" d=" M 57 80.5 L 52 80.5 " />
<path id= "33" d=" M 60 77.5 L 57 80.5 " />
<path id= "34" d=" M 59.1 74.5 L 57.55 77.1847 " />
<path id= "35" d=" M 57.55 77.1847 L 54.45 77.1847 " />
<path id= "36" d=" M 54.45 77.1847 L 52.9 74.5 " />
<path id= "37" d=" M 52.9 74.5 L 54.45 71.8153 " />
<path id= "38" d=" M 54.45 71.8153 L 57.55 71.8153 " />
<path id= "39" d=" M 57.55 71.8153 L 59.1 74.5 " />
<path id= "40" d=" M 52 -1.67347e-15 L 45 -4.6857e-15 " />
<path id= "41" d=" M 45 -5.38241e-15 L 45 7 " />
<path id= "42" d=" M 45 7 L 52 7 " />
<path id= "43" d=" M 7.5 -7.5 L 3.41795e-16 -3.41795e-16 " />
<path id= "44" d=" M 52.5 -7.5 L 7.5 -7.5 " />
<path id= "45" d=" M 60 3.55271e-15 L 52.5 -7.5 " />
<path id= "46" d=" M 21.0199 5.55112e-16 L 30 5.55112e-16 " />
<path d="M21.1 -0.5 A1.6 1.6 0 0 1 21.0199 -2.98095e-14" /><path d="M17.9801 1.35447e-14 A1.6 1.6 0 1 1 21.1 -0.5" /><path id= "49" d=" M 11.5199 5.55112e-16 L 17.9801 5.55112e-16 " />
<path d="M11.6 -0.5 A1.6 1.6 0 0 1 11.5199 -2.98095e-14" /><path d="M8.48013 1.40998e-14 A1.6 1.6 0 1 1 11.6 -0.5" /><path id= "52" d=" M 0 5.55112e-16 L 8.48013 5.55112e-16 " />
<path id= "53" d=" M 57.55 5.31532 L 59.1 8 " />
<path id= "54" d=" M 54.45 10.6847 L 52.9 8 " />
<path id= "55" d=" M 30 7 L 45 7 " />
<path id= "56" d=" M 30 7 L 8 7 " />
<path id= "57" d=" M 52 71 L 30 71 " />
<path id= "58" d=" M 30 71 L 8 71 " />
<path id= "59" d=" M 52 80.5 L 30 80.5 " />
<path id= "60" d=" M 30 80.5 L 30 71 " />
<path id= "61" d=" M 3 80.5 L 30 80.5 " />
<path id= "62" d=" M 54.45 77.1847 L 52.9 74.5 " />
<path id= "63" d=" M 57.55 71.8153 L 59.1 74.5 " />
<path id= "64" d=" M 45 1.55431e-15 L 30 1.55431e-15 " />
<path id= "65" d=" M 30 -5.38241e-15 L 30 7 " />
<path id= "66" d=" M 3 31.5 L 8 31.5 " />
<path id= "67" d=" M -5.32907e-15 34.5 L 3 31.5 " />
<path id= "68" d=" M 8 7 L 8 31.5 " />
<path id= "69" d=" M 0 31.5 L 0 34.5 " />
<path id= "70" d=" M 0 -1.92229e-15 L 0 31.5 " />
<path d="M11.5199 -2.98095e-14 A1.6 1.6 0 0 1 8.48013 1.40998e-14" /><path d="M21.0199 -2.98095e-14 A1.6 1.6 0 0 1 17.9801 1.35447e-14" /><path id= "73" d=" M 5.55 5.31532 L 7.1 8 " />
<path id= "74" d=" M 2.45 5.31532 L 5.55 5.31532 " />
<path id= "75" d=" M 0.9 8 L 2.45 5.31532 " />
<path id= "76" d=" M 2.45 10.6847 L 0.9 8 " />
<path id= "77" d=" M 5.55 10.6847 L 2.45 10.6847 " />
<path id= "78" d=" M 7.1 8 L 5.55 10.6847 " />
<circle cx ="56" cy ="8" r ="1.4" /><path id= "80" d=" M 0 63.5 L 0 77.5 " />
<path id= "81" d=" M 0 60.5 L 0 63.5 " />
<path id= "82" d=" M 3 80.5 L 3.55271e-15 77.5 " />
<path id= "83" d=" M 8 63.5 L 8 71 " />
<path id= "84" d=" M 8 60.5 L 8 34.5 " />
<circle cx ="4" cy ="74.5" r ="1.4" /><circle cx ="4" cy ="8" r ="1.4" /><circle cx ="56" cy ="74.5" r ="1.4" /><path id= "88" d=" M 0.9 74.5 L 2.45 71.8153 " />
<path id= "89" d=" M 2.45 77.1847 L 0.9 74.5 " />
<path id= "90" d=" M 5.55 77.1847 L 2.45 77.1847 " />
<path id= "91" d=" M 7.1 74.5 L 5.55 77.1847 " />
<path id= "92" d=" M 5.55 71.8153 L 7.1 74.5 " />
<path id= "93" d=" M 2.45 71.8153 L 5.55 71.8153 " />
<path id= "94" d=" M 3 31.5 L 8 31.5 " />
<path id= "95" d=" M -1.11022e-15 34.5 L 3 31.5 " />
<path id= "96" d=" M 2.45 10.6847 L 0.9 8 " />
<path id= "97" d=" M 0 34.5 L 0 60.5 " />
<path id= "98" d=" M 8 63.5 L 8 60.5 " />
<path id= "99" d=" M 8 31.5 L 8 34.5 " />
<path id= "100" d=" M 4.5 34.5 L 4.5 42.05 " />
<path id= "101" d=" M 4.5 43.6 L 4.5 60.5 " />
<path id= "102" d=" M 2.45 77.1847 L 0.9 74.5 " />
<path id= "103" d=" M 5.55 71.8153 L 7.1 74.5 " />
<path id= "104" d=" M 3 63.5 L 8 63.5 " />
<path id= "105" d=" M 8.88178e-16 60.5 L 3 63.5 " />
<path id= "106" d=" M 8 34.5 L 4.5 34.5 " />
<path id= "107" d=" M 8 60.5 L 4.5 60.5 " />
<path id= "108" d=" M 4.5 60.5 L 4.5 34.5 " />
<path id= "109" d=" M 4.5 49.05 L 4.5 60.05 " />
<path id= "110" d=" M 4.5 42.05 L 4.5 38.95 " />
<path id= "111" d=" M 4.5 43.6 L 4.5 42.05 " />
<path id= "112" d=" M 4.5 38.95 L 4.5 37.4 " />
</g>
</g>



<g id="Ortho_1_1"
   transform="rotate(-98.8,357.719,55.1871) translate(357.719,55.1871) scale(2,2)"
  >
<g   stroke="rgb(0, 0, 0)"
   stroke-width="0.175"
   stroke-linecap="butt"
   stroke-linejoin="miter"
   fill="none"
   transform="scale(1,-1)"
  >
<path id= "1" d=" M -4.89653 48.2167 L -4.89653 43.3297 " />
<path id= "2" d=" M -4.89653 48.2167 L -6.66908 50.6373 " />
<path id= "3" d=" M -4.89653 43.3297 L -6.66908 42.8181 " />
<path id= "4" d=" M -6.66908 50.6373 L -22.0312 46.2033 " />
<path id= "5" d=" M -6.66908 42.8181 L -6.66908 46.239 " />
<path id= "6" d=" M -22.0312 46.2033 L -23.8038 42.7594 " />
<path id= "7" d=" M -22.0312 41.8049 L -6.66908 46.239 " />
<path id= "8" d=" M -23.8038 37.8724 L -23.8038 42.7594 " />
<path id= "9" d=" M -22.0312 41.8049 L -22.0312 38.384 " />
<path id= "10" d=" M -22.0312 38.384 L -23.8038 37.8724 " />
<path id= "11" d=" M -16.3505 52.1361 L -6.66908 50.6373 " />
<path id= "12" d=" M -14.3835 44.0123 L -6.66908 42.8181 " />
<path id= "13" d=" M -16.3505 52.1361 L -31.7126 47.702 " />
<path id= "14" d=" M -31.7126 47.702 L -22.0312 46.2033 " />
<path d="M-15.1344 49.9827 A1.5 0.317076 -1.05758e-14 0 1 -12.7481 50.2385" />
<path d="M-12.7481 50.2385 A1.5 0.317076 -1.05758e-14 0 1 -15.7481 50.2385" />
<path d="M-15.7481 50.2385 A1.5 0.317076 -1.05758e-14 0 1 -15.1344 49.9827" />
<path d="M-20.719 47.8342 A1.5 0.317076 -1.05758e-14 0 1 -20.4292 48.0215" />
<path d="M-20.4292 48.0215 A1.5 0.317076 -1.05758e-14 0 1 -23.1393 48.2089" />
<path id= "20" d=" M -20.719 47.8342 L -22.4915 47.3226 " />
<path d="M-24.9119 47.6972 A1.5 0.317076 -1.05758e-14 0 1 -25.2017 47.5099" />
<path d="M-25.2017 47.5099 A1.5 0.317076 -1.05758e-14 0 1 -22.4915 47.3226" />
<path id= "23" d=" M -23.1393 48.2089 L -24.9119 47.6972 " />
<path id= "24" d=" M -31.7126 47.702 L -33.4851 44.2582 " />
<path id= "25" d=" M -33.4851 44.2582 L -23.8038 42.7594 " />
<path id= "26" d=" M -33.4851 39.3712 L -33.4851 44.2582 " />
<path id= "27" d=" M -33.4851 39.3712 L -23.8038 37.8724 " />
<path id= "28" d=" M -0.102052 49.0067 L -4.89653 47.6228 " />
<path id= "29" d=" M -14.5779 52.6477 L -16.3505 52.1361 " />
<path id= "30" d=" M 4.0339 50.2005 L -0.102052 49.0067 " />
<path id= "31" d=" M 4.0339 58.0197 L -14.5779 52.6477 " />
<path id= "32" d=" M 4.0339 50.2005 L 4.0339 58.0197 " />
<path id= "33" d=" M 0.893342 54.7186 L -0.692903 55.7757 " />
<path id= "34" d=" M -0.692903 55.7757 L -2.27915 53.8029 " />
<path id= "35" d=" M -2.27915 53.8029 L -2.27915 50.773 " />
<path id= "36" d=" M -2.27915 50.773 L -0.692903 49.7158 " />
<path id= "37" d=" M -0.692903 49.7158 L 0.893342 51.6886 " />
<path id= "38" d=" M 0.893342 51.6886 L 0.893342 54.7186 " />
<path id= "39" d=" M -33.4851 39.3712 L -37.9165 38.0921 " />
<path id= "40" d=" M -45.7909 45.4273 L -7.10543e-15 58.6442 " />
<path id= "41" d=" M -45.7909 45.4273 L -41.757 44.8028 " />
<path id= "42" d=" M 0 58.6442 L 4.0339 58.0197 " />
<path id= "43" d=" M -33.4851 47.1904 L -41.757 44.8028 " />
<path id= "44" d=" M -31.7126 47.702 L -33.4851 47.1904 " />
<path id= "45" d=" M -43.5296 36.472 L -37.9165 38.0921 " />
<path id= "46" d=" M -43.5296 41.359 L -43.5296 36.472 " />
<path id= "47" d=" M -41.757 44.8028 L -43.5296 41.359 " />
<path id= "48" d=" M -39.9845 44.4348 L -41.5707 42.462 " />
<path id= "49" d=" M -41.5707 42.462 L -41.5707 39.432 " />
<path id= "50" d=" M -41.5707 39.432 L -39.9845 38.3749 " />
<path id= "51" d=" M -39.9845 38.3749 L -38.3982 40.3477 " />
<path id= "52" d=" M -38.3982 40.3477 L -38.3982 43.3777 " />
<path id= "53" d=" M -38.3982 43.3777 L -39.9845 44.4348 " />
<path id= "54" d=" M 4.0339 50.2005 L 11.2949 42.2346 " />
<path id= "55" d=" M 11.2949 42.2346 L 7.15898 41.0408 " />
<path id= "56" d=" M 7.15898 41.0408 L -0.102052 49.0067 " />
<path id= "57" d=" M 8.46529 7.98509 L 4.0339 -0.624481 " />
<path id= "58" d=" M 8.46529 51.9682 L 8.46529 45.3389 " />
<path id= "59" d=" M 8.46529 26.7568 L 8.46529 7.98509 " />
<path id= "60" d=" M 4.0339 58.0197 L 8.46529 51.9682 " />
<path id= "61" d=" M 4.0339 19.9204 L 4.0339 26.8636 " />
<path d="M4.32933 20.084 A1.6 0.923999 -98.8 0 1 4.0339 19.9204" />
<path d="M4.0339 16.9494 A1.6 0.923999 -98.8 0 1 4.08455 16.939" />
<path d="M4.08455 16.939 A1.6 0.923999 -98.8 0 1 4.57411 20.1013" />
<path d="M4.57411 20.1013 A1.6 0.923999 -98.8 0 1 4.32933 20.084" />
<path id= "66" d=" M 4.0339 10.6351 L 4.0339 16.9494 " />
<path d="M4.32933 10.7987 A1.6 0.923999 -98.8 0 1 4.0339 10.6351" />
<path d="M4.0339 7.66403 A1.6 0.923999 -98.8 0 1 4.08455 7.65365" />
<path d="M4.08455 7.65365 A1.6 0.923999 -98.8 0 1 4.57411 10.816" />
<path d="M4.57411 10.816 A1.6 0.923999 -98.8 0 1 4.32933 10.7987" />
<path id= "71" d=" M 4.0339 -0.624481 L 4.0339 7.66403 " />
<path id= "72" d=" M -0.72022 54.9684 L 0.893342 54.7186 " />
<path id= "73" d=" M -0.72022 54.9684 L -1.12509 55.2382 " />
<path id= "74" d=" M -1.87428 50.5031 L -0.72022 51.9384 " />
<path id= "75" d=" M -0.72022 51.9384 L 0.893342 51.6886 " />
<path id= "76" d=" M -0.72022 51.9384 L -0.72022 54.9684 " />
<path id= "77" d=" M -47.5635 -10.7963 L -45.7909 -13.2169 " />
<path id= "78" d=" M -47.5635 -10.7963 L -47.5635 41.9835 " />
<path id= "79" d=" M -45.7909 45.4273 L -47.5635 41.9835 " />
<path id= "80" d=" M -37.9165 -3.12481 L -4.13596 6.62544 " />
<path id= "81" d=" M -4.13596 6.62544 L -4.13596 47.8424 " />
<path id= "82" d=" M 7.15898 26.3798 L 7.15898 41.0408 " />
<path id= "83" d=" M 7.15898 26.3798 L -0.102052 27.5038 " />
<path id= "84" d=" M -0.102052 27.5038 L -0.102052 6.00096 " />
<path id= "85" d=" M -4.13596 6.62544 L -0.102052 6.00096 " />
<path d="M1.51151 43.3812 A6 4.7313 -73.9 0 0 3.1754 31.7521" />
<path d="M3.1754 31.7521 A6 4.7313 -73.9 1 0 -0.152378 43.2814" />
<path d="M-0.152378 43.2814 A6 4.7313 -73.9 0 0 1.51151 43.3812" />
<path id= "89" d=" M -37.9165 38.0921 L -37.9165 16.5892 " />
<path id= "90" d=" M -37.9165 16.5892 L -37.9165 -4.91362 " />
<path id= "91" d=" M -47.5635 41.9835 L -43.5296 41.359 " />
<path id= "92" d=" M -43.5296 36.472 L -43.5296 14.9691 " />
<path id= "93" d=" M -43.5296 14.9691 L -37.9165 16.5892 " />
<path id= "94" d=" M -47.5635 -10.7963 L -43.5296 -11.4208 " />
<path id= "95" d=" M -43.5296 -11.4208 L -43.5296 14.9691 " />
<path id= "96" d=" M -41.1659 39.1622 L -40.0118 40.5975 " />
<path id= "97" d=" M -40.0118 40.5975 L -38.3982 40.3477 " />
<path id= "98" d=" M -40.0118 40.5975 L -40.0118 43.6275 " />
<path id= "99" d=" M -40.0118 43.6275 L -38.3982 43.3777 " />
<path id= "100" d=" M -40.0118 43.6275 L -40.4167 43.8973 " />
<path id= "101" d=" M 11.2949 42.2346 L 11.2949 27.5735 " />
<path id= "102" d=" M 11.2949 27.5735 L 7.15898 26.3798 " />
<path id= "103" d=" M -0.102052 6.00096 L -14.5779 1.82272 " />
<path id= "104" d=" M 4.0339 -0.624481 L -4.89653 -3.20212 " />
<path d="M4.0339 10.6351 A1.6 0.923999 -98.8 0 1 4.0339 7.66403" />
<path d="M4.0339 19.9204 A1.6 0.923999 -98.8 0 1 4.0339 16.9494" />
<path id= "107" d=" M 0.893342 3.89363 L -0.692903 4.95076 " />
<path id= "108" d=" M 0.893342 0.86368 L 0.893342 3.89363 " />
<path id= "109" d=" M -0.692903 -1.10914 L 0.893342 0.86368 " />
<path id= "110" d=" M -2.27915 -0.0520124 L -0.692903 -1.10914 " />
<path id= "111" d=" M -2.27915 2.97794 L -2.27915 -0.0520124 " />
<path id= "112" d=" M -0.692903 4.95076 L -2.27915 2.97794 " />
<path d="M-1.88421 54.2941 A1.4 0.808499 81.2 0 0 -2.27915 51.6358" />
<path id= "114" d=" M -45.7909 -13.2169 L -41.757 -13.8414 " />
<path id= "115" d=" M -33.4851 -11.4538 L -41.757 -13.8414 " />
<path id= "116" d=" M -31.7126 -10.9422 L -33.4851 -11.4538 " />
<path id= "117" d=" M -43.5296 -11.4208 L -41.757 -13.8414 " />
<path id= "118" d=" M -33.4851 -3.63457 L -37.9165 -4.91362 " />
<path id= "119" d=" M -31.7126 -3.12295 L -33.4851 -3.63457 " />
<path id= "120" d=" M -14.5779 1.82272 L -16.3505 1.3111 " />
<path id= "121" d=" M -31.7126 -3.12295 L -34.1329 -2.74826 " />
<path id= "122" d=" M -16.3505 1.3111 L -18.7708 1.68579 " />
<path id= "123" d=" M -34.1329 -2.74826 L -18.7708 1.68579 " />
<path d="M-41.1758 -7.8718 A1.4 0.808499 81.2 0 0 -41.5707 -10.5301" />
<path d="M-1.88421 3.46913 A1.4 0.808499 81.2 0 0 -2.27915 0.810868" />
<path d="M-41.1758 42.9532 A1.4 0.808499 81.2 0 0 -41.5707 40.2949" />
<path d="M4.02974 32.1185 A6 4.7313 -73.9 0 0 0.765829 43.4266" />
<path id= "128" d=" M -33.4851 -8.52158 L -33.4851 -3.63457 " />
<path id= "129" d=" M -31.7126 -10.9422 L -33.4851 -8.52158 " />
<path id= "130" d=" M -39.9845 -12.4501 L -38.3982 -10.4773 " />
<path id= "131" d=" M -41.5707 -11.3929 L -39.9845 -12.4501 " />
<path id= "132" d=" M -41.5707 -8.363 L -41.5707 -11.3929 " />
<path id= "133" d=" M -39.9845 -6.39017 L -41.5707 -8.363 " />
<path id= "134" d=" M -38.3982 -7.4473 L -39.9845 -6.39017 " />
<path id= "135" d=" M -38.3982 -10.4773 L -38.3982 -7.4473 " />
<path id= "136" d=" M -14.5779 1.82272 L -4.89653 0.323968 " />
<path id= "137" d=" M -4.89653 -4.56305 L -4.89653 0.323968 " />
<path id= "138" d=" M -6.66908 -8.00688 L -4.89653 -4.56305 " />
<path id= "139" d=" M -0.72022 4.14342 L 0.893342 3.89363 " />
<path id= "140" d=" M -0.72022 4.14342 L -1.12509 4.41324 " />
<path id= "141" d=" M -0.72022 1.11347 L 0.893342 0.86368 " />
<path id= "142" d=" M -0.72022 1.11347 L -0.72022 4.14342 " />
<path id= "143" d=" M -1.87428 -0.321833 L -0.72022 1.11347 " />
<path id= "144" d=" M -31.7126 -10.9422 L -22.0312 -12.4409 " />
<path id= "145" d=" M -6.66908 -8.00688 L -22.0312 -12.4409 " />
<path id= "146" d=" M -33.4851 -3.63457 L -23.8038 -5.13332 " />
<path id= "147" d=" M -23.8038 -5.13332 L -22.0312 -4.6217 " />
<path id= "148" d=" M -31.7126 -3.12295 L -22.0312 -4.6217 " />
<path id= "149" d=" M -4.89653 0.323968 L -6.66908 -0.187653 " />
<path id= "150" d=" M -16.3505 1.3111 L -6.66908 -0.187653 " />
<path id= "151" d=" M -16.3505 1.3111 L -16.3505 -2.10981 " />
<path id= "152" d=" M -18.7708 1.68579 L -18.7708 -1.73512 " />
<path id= "153" d=" M -16.3505 -2.10981 L -18.7708 -1.73512 " />
<path id= "154" d=" M -18.7708 -1.73512 L -26.4185 -3.94251 " />
<path id= "155" d=" M -40.0118 -7.19751 L -40.4167 -6.92769 " />
<path id= "156" d=" M -41.1659 -11.6628 L -40.0118 -10.2275 " />
<path id= "157" d=" M -40.0118 -10.2275 L -40.0118 -7.19751 " />
<path id= "158" d=" M -33.4851 -8.52158 L -23.8038 -10.0203 " />
<path id= "159" d=" M -23.8038 -10.0203 L -23.8038 -5.13332 " />
<path id= "160" d=" M -22.0312 -12.4409 L -23.8038 -10.0203 " />
<path id= "161" d=" M -40.0118 -10.2275 L -38.3982 -10.4773 " />
<path id= "162" d=" M -40.0118 -7.19751 L -38.3982 -7.4473 " />
<path id= "163" d=" M -6.66908 -0.187653 L -6.66908 -3.60856 " />
<path id= "164" d=" M -22.0312 -4.6217 L -22.0312 -8.04261 " />
<path id= "165" d=" M -22.0312 -8.04261 L -6.66908 -3.60856 " />
<path d="M-22.0312 -6.88541 A1.5 0.317076 180 0 0 -21.0815 -6.94016" />
<path id= "167" d=" M -16.3505 -2.10981 L -6.66908 -3.60856 " />
<path id= "168" d=" M -16.3505 -2.10981 L -23.9981 -4.3172 " />
<path id= "169" d=" M -17.1339 -5.80075 L -21.4658 -5.13014 " />
<path id= "170" d=" M -21.4658 -5.13014 L -22.0312 -5.29333 " />
<path id= "171" d=" M -22.0312 -7.21428 L -17.1339 -5.80075 " />
<path id= "172" d=" M -17.3299 -3.93636 L -15.4982 -3.40768 " />
<path id= "173" d=" M -16.0797 -4.536 L -17.3299 -3.93636 " />
<path id= "174" d=" M -12.998 -4.60697 L -16.0797 -4.536 " />
<path id= "175" d=" M -11.1663 -4.07829 L -12.998 -4.60697 " />
<path id= "176" d=" M -12.4165 -3.47865 L -11.1663 -4.07829 " />
<path id= "177" d=" M -15.4982 -3.40768 L -12.4165 -3.47865 " />
<path id= "178" d=" M -15.4982 -4.38508 L -16.0254 -4.53725 " />
<path id= "179" d=" M -12.4708 -4.4548 L -15.4982 -4.38508 " />
<path id= "180" d=" M -21.4658 -6.10754 L -19.338 -6.43694 " />
<path id= "181" d=" M -22.0312 -6.27073 L -21.4658 -6.10754 " />
<path id= "182" d=" M -21.4658 -6.10754 L -21.4658 -5.13014 " />
<path id= "183" d=" M -15.4982 -4.38508 L -15.4982 -3.40768 " />
<path id= "184" d=" M -12.4165 -4.43912 L -12.4165 -3.47865 " />
</g>
</g>



</svg>

