<?xml version="1.0" encoding="UTF-8" standalone="no"?>

<svg
	xmlns="http://www.w3.org/2000/svg" version="1.1"
	xmlns:freecad="http://www.freecadweb.org/wiki/index.php?title=Svg_Namespace"
	width="420mm"
	height="297mm"
	viewBox="0 0 420 297">
	<!-- Working space 20 10 410 287 -->
	<!-- Title block 230 227 410 287 -->
	<g>
		<rect
			id="drawing-border"
			style="fill:none;stroke:#000000;stroke-width:0.35;stroke-linecap:miter;stroke-miterlimit:4"
			width="390"
			height="277"
			x="20"
			y="10" />
			<!-- width-30, height-20 -->
		<g
			transform="translate(210,0)">
			<!-- A4 Portrait based for other formats width-210, height-297 -->
			<!--        page       rect   translation
			               w    h    rw   rh   tx   ty
			        A4-P  210  297  180  277    0    0
			        A3-L  420  297  390  277  210    0
			        A2-L  594  420  564  400  384  123
			        A1-L  841  594  811  574  631  297
			        A0-L 1189  841 1159  821  979  544
			-->
			<g
				id="titleblock-structure"
				style="fill:none;stroke:#000000;stroke-width:0.35;stroke-linecap:miter;stroke-miterlimit:4">
				<rect width="180" height="60" x="20" y="227" />
				<path d="m 20,239 h 180" />
				<path d="m 80,227 v 12" />
				<path d="m 140,239 v 48" />
				<path d="m 160,239 v 12" />
				<path d="m 180,239 v 12" />
				<path d="m 140,251 h 60" />
				<path d="m 140,275 h 60" />
				<path d="m 180,275 v 12" />
			</g>
			<g
				id="titleblock-text-non-editable"
				style="font-size:3px;text-anchor:start;fill:#000000;font-family:osifont"
				xml:space="preserve">
				<text x="21" y="230">Created by:</text>
				<text x="81" y="230">Title:</text>
				<text x="21" y="242">Supplementary information:</text>
				<text x="141" y="242">Size:</text>
				<text x="161" y="242">Sheet:</text>
				<text x="181" y="242">Scale:</text>
				<text x="141" y="254">Part number:</text>
				<text x="141" y="266">Drawing number:</text>
				<text x="141" y="278">Date:</text>
				<text x="181" y="278">Revision:</text>
			</g>
			<g
				id="titleblock-text-editable"
				style="font-size:5px;text-anchor:middle;fill:#000000;font-family:osifont"
				xml:space="preserve">
				<text freecad:editable="AUTHOR NAME" x="50" y="236"><tspan>DAMIAN DURCZOK</tspan></text>
				<text freecad:editable="DRAWING TITLE" x="140" y="236"><tspan>X-AXIS</tspan></text>
				<text freecad:editable="SI-1" x="80" y="248"><tspan></tspan></text>
				<text freecad:editable="SI-2" x="80" y="255"><tspan></tspan></text>
				<text freecad:editable="FreeCAD DRAWING" x="80" y="262"><tspan>FreeCAD DRAWING</tspan></text>
				<text freecad:editable="SI-4" x="80" y="269"><tspan></tspan></text>
				<text freecad:editable="SI-5" x="80" y="276"><tspan></tspan></text>
				<text freecad:editable="SI-6" x="80" y="283"><tspan></tspan></text>
				<text freecad:editable="FC-SI" x="150" y="248"><tspan>A3</tspan></text>
				<text freecad:editable="FC-SH" x="170" y="248"><tspan>X / Y</tspan></text>
				<text freecad:editable="FC-SC" x="190" y="248"><tspan>SCALE</tspan></text>
				<text freecad:editable="PN" x="170" y="260"><tspan>PN</tspan></text>
				<text freecad:editable="DN" x="170" y="272"><tspan>DN</tspan></text>
				<text freecad:editable="FC-DATE" x="160" y="284"><tspan>1/05/2017</tspan></text>
				<text freecad:editable="FC-REV" x="190" y="284"><tspan>REV A</tspan></text>
			</g>
			<!-- Set display:none to hide FreeCAD Logo -->
			<g
				style="display:inline"
				id="freecad-logo"
				transform="translate(128.5,276)"
				fill-rule="evenodd"
				stroke="#000"
				stroke-width="0.35"
				fill="none">
					<path d="m0.1524 0.15254v8.8549h1.9744v-3.4652h1.396v-1.3661h-1.396v-1.4745h3.4391v-2.5441l-5.4135-0.005z"/>
					<path d="m7.7927 3.4504-0.50715-0.176-0.48387-1.2366-0.76115 0.04-0.34718 1.2787-0.4859 0.23269-1.2119-0.53015-0.51188 0.56882 0.65892 1.1485-0.18006 0.50567-1.2366 0.48387 0.044064 0.76263 1.2787 0.34718 0.23269 0.4859-0.53421 1.2104 0.56882 0.51188 1.1485-0.65891 0.50973 0.18155 0.4798 1.2351 0.7667-0.04258 0.34311-1.2802 0.4859-0.23269 1.2145 0.5357 0.51188-0.56882-0.65891-1.1485 0.17748-0.51122 1.2351-0.4798-0.03851-0.76521-1.2802-0.34311-0.23269-0.4859 0.53163-1.216-0.56881-0.51184zm-0.5715 1.2244 0.23576 0.13679 0.20426 0.18519 0.16353 0.22101 0.11763 0.24572 0.06916 0.26489 0.01146 0.27146-0.03921 0.27139-0.08948 0.25764-0.14234 0.23834-0.17964 0.20167-0.22101 0.16353-0.24572 0.11763-0.26489 0.06916-0.27295 0.01553-0.2719-0.04-0.2576-0.089-0.2383-0.143-0.2002-0.183-0.165-0.217-0.1177-0.246-0.0676-0.269-0.0156-0.273 0.039206-0.2714 0.089484-0.25764 0.14085-0.23427 0.18113-0.20574 0.22101-0.16352 0.24572-0.11763 0.26895-0.06768 0.27147-0.01146 0.27139 0.03921 0.25764 0.08948z"/>
			</g>
		</g>
	</g>
<g id="Ortho_0_0"
   transform="rotate(90,163.64,188) translate(163.64,188) scale(0.5,0.5)"
  >
<g   stroke="rgb(0, 0, 0)"
   stroke-width="0.7"
   stroke-linecap="butt"
   stroke-linejoin="miter"
   fill="none"
   transform="scale(1,-1)"
  >
<path id= "1" d=" M -34.5 -8 L -31 -8 " />
<path id= "2" d=" M -23 -5.9 L -20.7 -5.9 " />
<path id= "3" d=" M -20.7 -8 L -19.7 -8 " />
<path id= "4" d=" M -19.7 -5.9 L -16.05 -5.9 " />
<path id= "5" d=" M -16.05 -12 L -15.05 -12 " />
<path id= "6" d=" M -15.05 -8 L -12.6 -8 " />
<path id= "7" d=" M -12.6 -12 L -11.6 -12 " />
<path id= "8" d=" M -11.6 -8 L -9.15 -8 " />
<path id= "9" d=" M -9.15 -12 L -8.15 -12 " />
<path id= "10" d=" M -8.15 -8 L -5.7 -8 " />
<path id= "11" d=" M -5.7 -12 L -4.7 -12 " />
<path id= "12" d=" M -4.7 -8 L -2.25 -8 " />
<path id= "13" d=" M -2.25 -12 L -1.25 -12 " />
<path id= "14" d=" M -1.25 -8 L 1.2 -8 " />
<path id= "15" d=" M 1.2 -12 L 2.2 -12 " />
<path id= "16" d=" M 2.2 -8 L 4.65 -8 " />
<path id= "17" d=" M 4.65 -12 L 5.65 -12 " />
<path id= "18" d=" M 5.65 -8 L 8.1 -8 " />
<path id= "19" d=" M 8.1 -12 L 9.1 -12 " />
<path id= "20" d=" M 9.1 -8 L 11.55 -8 " />
<path id= "21" d=" M 11.55 -12 L 12.55 -12 " />
<path id= "22" d=" M 12.55 -8 L 15 -8 " />
<path id= "23" d=" M 15 -12 L 16 -12 " />
<path id= "24" d=" M 16 -1.5 L 19 -1.5 " />
<path id= "25" d=" M 36 -0.2 L 34 -2.5 " />
<path id= "26" d=" M -99 146.5 L -99 21 " />
<path id= "27" d=" M -99 -21 L -99 -140 " />
<path id= "28" d=" M -91 146.5 L -91 29 " />
<path id= "29" d=" M -91 -29 L -91 -140 " />
<path id= "30" d=" M -14 146.5 L -14 29 " />
<path id= "31" d=" M -14 -29 L -14 -140 " />
<path id= "32" d=" M -6 146.5 L -6 21 " />
<path id= "33" d=" M -6 -21 L -6 -140 " />
</g>
<g   stroke="rgb(0, 0, 0)"
   stroke-width="0.7"
   stroke-linecap="butt"
   stroke-linejoin="miter"
   fill="none"
   transform="scale(1,-1)"
  >
<path id= "1" d=" M -63.6716 20.5 L -68 20.5 " />
<path id= "2" d=" M -72 16.5 L -72 12.1716 " />
<path d="M-68 20.5 A4 4 0 0 1 -72 16.5" /><path id= "4" d=" M -68 -20.5 L -63.6716 -20.5 " />
<path d="M-72 -16.5 A4 4 0 0 1 -68 -20.5" /><path id= "6" d=" M -72 -12.1716 L -72 -16.5 " />
<path id= "7" d=" M -40 -20.5 L -68 -20.5 " />
<path id= "8" d=" M -72 -16.5 L -72 16.5 " />
<path id= "9" d=" M -23 -21 L -31 -21 " />
<path id= "10" d=" M -31 -21 L -40 -21 " />
<path id= "11" d=" M -40 -20.5 L -68 -20.5 " />
<path id= "12" d=" M -40 21 L -40 -21 " />
<path id= "13" d=" M -68 20.5 L -40 20.5 " />
<path d="M-72 16.5 A4 4 0 0 0 -68 20.5" /><path d="M-68 -20.5 A4 4 0 0 0 -72 -16.5" /><path id= "16" d=" M -72 -16.5 L -72 16.5 " />
<circle cx ="-67.5" cy ="-15" r ="1.3" /><circle cx ="-67.5" cy ="16" r ="1.3" /><circle cx ="-36.5" cy ="16" r ="1.3" /><circle cx ="-36.5" cy ="-15" r ="1.3" /><path id= "21" d=" M -31 21 L -40 21 " />
<path id= "22" d=" M -23 21 L -31 21 " />
<path d="M-23,-19 L-23,-19.2239  L-23,-19.445  L-23,-19.6606  L-23,-19.8678  L-23,-20.0641  L-23,-20.247  L-23,-20.4142  L-23,-20.5637  L-23,-20.6934  L-23,-20.8019  L-23,-20.8878  L-23,-20.9499  L-23,-20.9874  L-23,-21 " /><path id= "24" d=" M -23 19 L -23 -19 " />
<path d="M-23,21 L-23,20.9874  L-23,20.9499  L-23,20.8878  L-23,20.8019  L-23,20.6934  L-23,20.5637  L-23,20.4142  L-23,20.247  L-23,20.0641  L-23,19.8678  L-23,19.6606  L-23,19.445  L-23,19.2239  L-23,19 " /><path d="M-31,-19 L-31,-19.2239  L-31,-19.445  L-31,-19.6606  L-31,-19.8678  L-31,-20.0641  L-31,-20.247  L-31,-20.4142  L-31,-20.5637  L-31,-20.6934  L-31,-20.8019  L-31,-20.8878  L-31,-20.9499  L-31,-20.9874  L-31,-21 " /><path id= "27" d=" M -31 19 L -31 -19 " />
<path d="M-31,21 L-31,20.9874  L-31,20.9499  L-31,20.8878  L-31,20.8019  L-31,20.6934  L-31,20.5637  L-31,20.4142  L-31,20.247  L-31,20.0641  L-31,19.8678  L-31,19.6606  L-31,19.445  L-31,19.2239  L-31,19 " /><circle cx ="-36.5" cy ="16" r ="1.4" /><path id= "30" d=" M -35.1 -16 L -35.1 -14 " />
<path d="M-37.9 -16 A1.4 1.4 0 0 1 -35.1 -16" /><path id= "32" d=" M -37.9 -16 L -37.9 -14 " />
<path d="M-35.1 -14 A1.4 1.4 0 0 1 -37.9 -14" /><path id= "34" d=" M -31 8 L -34.5 8 " />
<path d="M-34.5,-8 L-34.5,-7.79942  L-34.5,-7.20775  L-34.5,-6.25465  L-34.5,-4.98792  L-34.5,-3.47107  L-34.5,-1.78017  L-34.5,1.27413e-14  L-34.5,1.78017  L-34.5,3.47107  L-34.5,4.98792  L-34.5,6.25465  L-34.5,7.20775  L-34.5,7.79942  L-34.5,8 " /><circle cx ="-27" cy ="-15.5" r ="1.6" /><circle cx ="-51.5" cy ="3.55271e-15" r ="11" /><circle cx ="-27" cy ="-15.5" r ="3" /><circle cx ="-27" cy ="15.5" r ="3" /><path id= "40" d=" M -20.7 5.9 L -23 5.9 " />
<circle cx ="-51.5" cy ="3.55271e-15" r ="11" /><path d="M-20.7,-8 L-20.7,-7.79942  L-20.7,-7.20775  L-20.7,-6.25465  L-20.7,-4.98792  L-20.7,-3.47107  L-20.7,-1.78017  L-20.7,1.27413e-14  L-20.7,1.78017  L-20.7,3.47107  L-20.7,4.98792  L-20.7,6.25465  L-20.7,7.20775  L-20.7,7.79942  L-20.7,8 " /><circle cx ="-27" cy ="-15.5" r ="1.6" /><circle cx ="-27" cy ="15.5" r ="1.6" /><circle cx ="-51.5" cy ="3.55271e-15" r ="6" /><path d="M-19.7,-8 L-19.7,-7.79942  L-19.7,-7.20775  L-19.7,-6.25465  L-19.7,-4.98792  L-19.7,-3.47107  L-19.7,-1.78017  L-19.7,1.27413e-14  L-19.7,1.78017  L-19.7,3.47107  L-19.7,4.98792  L-19.7,6.25465  L-19.7,7.20775  L-19.7,7.79942  L-19.7,8 " /><path id= "47" d=" M -19.7 8 L -20.7 8 " />
<circle cx ="-51.5" cy ="3.55271e-15" r ="6" /><path id= "49" d=" M -16.05 5.9 L -19.7 5.9 " />
<path d="M-16.05,-12 L-16.05,-11.6991  L-16.05,-10.8116  L-16.05,-9.38198  L-16.05,-7.48188  L-16.05,-5.2066  L-16.05,-2.67025  L-16.05,1.91119e-14  L-16.05,2.67025  L-16.05,5.2066  L-16.05,7.48188  L-16.05,9.38198  L-16.05,10.8116  L-16.05,11.6991  L-16.05,12 " /><circle cx ="-51.5" cy ="3.55271e-15" r ="2.5" /><path d="M-15.05,-12 L-15.05,-11.6991  L-15.05,-10.8116  L-15.05,-9.38198  L-15.05,-7.48188  L-15.05,-5.2066  L-15.05,-2.67025  L-15.05,1.91119e-14  L-15.05,2.67025  L-15.05,5.2066  L-15.05,7.48188  L-15.05,9.38198  L-15.05,10.8116  L-15.05,11.6991  L-15.05,12 " /><path id= "53" d=" M -15.05 12 L -16.05 12 " />
<path id= "54" d=" M -12.6 8 L -15.05 8 " />
<path d="M-12.6,-12 L-12.6,-11.6991  L-12.6,-10.8116  L-12.6,-9.38198  L-12.6,-7.48188  L-12.6,-5.2066  L-12.6,-2.67025  L-12.6,1.91119e-14  L-12.6,2.67025  L-12.6,5.2066  L-12.6,7.48188  L-12.6,9.38198  L-12.6,10.8116  L-12.6,11.6991  L-12.6,12 " /><path d="M-11.6,-12 L-11.6,-11.6991  L-11.6,-10.8116  L-11.6,-9.38198  L-11.6,-7.48188  L-11.6,-5.2066  L-11.6,-2.67025  L-11.6,1.91119e-14  L-11.6,2.67025  L-11.6,5.2066  L-11.6,7.48188  L-11.6,9.38198  L-11.6,10.8116  L-11.6,11.6991  L-11.6,12 " /><path id= "57" d=" M -11.6 12 L -12.6 12 " />
<path id= "58" d=" M -9.15 8 L -11.6 8 " />
<path d="M-9.15,-12 L-9.15,-11.6991  L-9.15,-10.8116  L-9.15,-9.38198  L-9.15,-7.48188  L-9.15,-5.2066  L-9.15,-2.67025  L-9.15,1.91119e-14  L-9.15,2.67025  L-9.15,5.2066  L-9.15,7.48188  L-9.15,9.38198  L-9.15,10.8116  L-9.15,11.6991  L-9.15,12 " /><path d="M-8.15,-12 L-8.15,-11.6991  L-8.15,-10.8116  L-8.15,-9.38198  L-8.15,-7.48188  L-8.15,-5.2066  L-8.15,-2.67025  L-8.15,1.91119e-14  L-8.15,2.67025  L-8.15,5.2066  L-8.15,7.48188  L-8.15,9.38198  L-8.15,10.8116  L-8.15,11.6991  L-8.15,12 " /><path id= "61" d=" M -8.15 12 L -9.15 12 " />
<path id= "62" d=" M -5.7 8 L -8.15 8 " />
<path d="M-5.7,-12 L-5.7,-11.6991  L-5.7,-10.8116  L-5.7,-9.38198  L-5.7,-7.48188  L-5.7,-5.2066  L-5.7,-2.67025  L-5.7,1.91119e-14  L-5.7,2.67025  L-5.7,5.2066  L-5.7,7.48188  L-5.7,9.38198  L-5.7,10.8116  L-5.7,11.6991  L-5.7,12 " /><path d="M-4.7,-12 L-4.7,-11.6991  L-4.7,-10.8116  L-4.7,-9.38198  L-4.7,-7.48188  L-4.7,-5.2066  L-4.7,-2.67025  L-4.7,1.91119e-14  L-4.7,2.67025  L-4.7,5.2066  L-4.7,7.48188  L-4.7,9.38198  L-4.7,10.8116  L-4.7,11.6991  L-4.7,12 " /><path id= "65" d=" M -4.7 12 L -5.7 12 " />
<path id= "66" d=" M -2.25 8 L -4.7 8 " />
<path d="M-2.25,-12 L-2.25,-11.6991  L-2.25,-10.8116  L-2.25,-9.38198  L-2.25,-7.48188  L-2.25,-5.2066  L-2.25,-2.67025  L-2.25,1.91119e-14  L-2.25,2.67025  L-2.25,5.2066  L-2.25,7.48188  L-2.25,9.38198  L-2.25,10.8116  L-2.25,11.6991  L-2.25,12 " /><path d="M-1.25,-12 L-1.25,-11.6991  L-1.25,-10.8116  L-1.25,-9.38198  L-1.25,-7.48188  L-1.25,-5.2066  L-1.25,-2.67025  L-1.25,1.91119e-14  L-1.25,2.67025  L-1.25,5.2066  L-1.25,7.48188  L-1.25,9.38198  L-1.25,10.8116  L-1.25,11.6991  L-1.25,12 " /><path id= "69" d=" M -1.25 12 L -2.25 12 " />
<path id= "70" d=" M 1.2 8 L -1.25 8 " />
<path d="M1.2,-12 L1.2,-11.6991  L1.2,-10.8116  L1.2,-9.38198  L1.2,-7.48188  L1.2,-5.2066  L1.2,-2.67025  L1.2,1.91119e-14  L1.2,2.67025  L1.2,5.2066  L1.2,7.48188  L1.2,9.38198  L1.2,10.8116  L1.2,11.6991  L1.2,12 " /><path d="M2.2,-12 L2.2,-11.6991  L2.2,-10.8116  L2.2,-9.38198  L2.2,-7.48188  L2.2,-5.2066  L2.2,-2.67025  L2.2,1.91119e-14  L2.2,2.67025  L2.2,5.2066  L2.2,7.48188  L2.2,9.38198  L2.2,10.8116  L2.2,11.6991  L2.2,12 " /><path id= "73" d=" M 2.2 12 L 1.2 12 " />
<path id= "74" d=" M 4.65 8 L 2.2 8 " />
<path d="M4.65,-12 L4.65,-11.6991  L4.65,-10.8116  L4.65,-9.38198  L4.65,-7.48188  L4.65,-5.2066  L4.65,-2.67025  L4.65,1.91119e-14  L4.65,2.67025  L4.65,5.2066  L4.65,7.48188  L4.65,9.38198  L4.65,10.8116  L4.65,11.6991  L4.65,12 " /><path d="M5.65,-12 L5.65,-11.6991  L5.65,-10.8116  L5.65,-9.38198  L5.65,-7.48188  L5.65,-5.2066  L5.65,-2.67025  L5.65,1.91119e-14  L5.65,2.67025  L5.65,5.2066  L5.65,7.48188  L5.65,9.38198  L5.65,10.8116  L5.65,11.6991  L5.65,12 " /><path id= "77" d=" M 5.65 12 L 4.65 12 " />
<path id= "78" d=" M 8.1 8 L 5.65 8 " />
<path d="M8.1,-12 L8.1,-11.6991  L8.1,-10.8116  L8.1,-9.38198  L8.1,-7.48188  L8.1,-5.2066  L8.1,-2.67025  L8.1,1.91119e-14  L8.1,2.67025  L8.1,5.2066  L8.1,7.48188  L8.1,9.38198  L8.1,10.8116  L8.1,11.6991  L8.1,12 " /><path d="M9.1,-12 L9.1,-11.6991  L9.1,-10.8116  L9.1,-9.38198  L9.1,-7.48188  L9.1,-5.2066  L9.1,-2.67025  L9.1,1.91119e-14  L9.1,2.67025  L9.1,5.2066  L9.1,7.48188  L9.1,9.38198  L9.1,10.8116  L9.1,11.6991  L9.1,12 " /><path id= "81" d=" M 9.1 12 L 8.1 12 " />
<path id= "82" d=" M 11.55 8 L 9.1 8 " />
<path d="M11.55,-12 L11.55,-11.6991  L11.55,-10.8116  L11.55,-9.38198  L11.55,-7.48188  L11.55,-5.2066  L11.55,-2.67025  L11.55,1.91119e-14  L11.55,2.67025  L11.55,5.2066  L11.55,7.48188  L11.55,9.38198  L11.55,10.8116  L11.55,11.6991  L11.55,12 " /><path d="M12.55,-12 L12.55,-11.6991  L12.55,-10.8116  L12.55,-9.38198  L12.55,-7.48188  L12.55,-5.2066  L12.55,-2.67025  L12.55,1.91119e-14  L12.55,2.67025  L12.55,5.2066  L12.55,7.48188  L12.55,9.38198  L12.55,10.8116  L12.55,11.6991  L12.55,12 " /><path id= "85" d=" M 12.55 12 L 11.55 12 " />
<path id= "86" d=" M 15 8 L 12.55 8 " />
<path d="M15,-12 L15,-11.6991  L15,-10.8116  L15,-9.38198  L15,-7.48188  L15,-5.2066  L15,-2.67025  L15,1.91119e-14  L15,2.67025  L15,5.2066  L15,7.48188  L15,9.38198  L15,10.8116  L15,11.6991  L15,12 " /><path d="M16,-12 L16,-11.6991  L16,-10.8116  L16,-9.38198  L16,-7.48188  L16,-5.2066  L16,-2.67025  L16,1.91119e-14  L16,2.67025  L16,5.2066  L16,7.48188  L16,9.38198  L16,10.8116  L16,11.6991  L16,12 " /><path id= "89" d=" M 16 12 L 15 12 " />
<path id= "90" d=" M 19 1.5 L 16 1.5 " />
<path id= "91" d=" M 19 8 L 19 -8 " />
<path id= "92" d=" M 31 -8 L 19 -8 " />
<path id= "93" d=" M 31 8 L 19 8 " />
<path id= "94" d=" M 31 8 L 31 -8 " />
<path id= "95" d=" M 34 1.9 L 31 1.9 " />
<path id= "96" d=" M 34 3.8 L 31 3.8 " />
<path id= "97" d=" M 34 1.9 L 34 3.8 " />
<path id= "98" d=" M 34 -1.9 L 31 -1.9 " />
<path id= "99" d=" M 34 -1.9 L 34 1.9 " />
<path id= "100" d=" M 34 -3.8 L 31 -3.8 " />
<path id= "101" d=" M 34 -3.8 L 34 -1.9 " />
<path id= "102" d=" M 36 0.2 L 34 2.5 " />
<path d="M36,0.2 L36,0.194986  L36,0.180194  L36,0.156366  L36,0.124698  L36,0.0867767  L36,0.0445042  L36,1.22465e-17  L36,-0.0445042  L36,-0.0867767  L36,-0.124698  L36,-0.156366  L36,-0.180194  L36,-0.194986  L36,-0.2 " /><path d="M36,-0.2 L36,-0.194986  L36,-0.180194  L36,-0.156366  L36,-0.124698  L36,-0.0867767  L36,-0.0445042  L36,3.18532e-16  L36,0.0445042  L36,0.0867767  L36,0.124698  L36,0.156366  L36,0.180194  L36,0.194986  L36,0.2 " /><path d="M-47.7071 152.793 A1 1 0 0 0 -48.4142 152.5" /><path id= "106" d=" M -48.4142 152.5 L -48.5 152.5 " />
<path id= "107" d=" M -48.5 152.5 L -48.5 150.5 " />
<path d="M-52.5 146.5 A4 4 0 0 1 -48.5 150.5" /><path id= "109" d=" M -52.5 146.5 L -85.5 146.5 " />
<path id= "110" d=" M -85.5 187.5 L -52.5 187.5 " />
<path d="M-52.5 187.5 A4 4 0 0 0 -48.5 183.5" /><path id= "112" d=" M -48.5 183.5 L -48.5 181.5 " />
<path id= "113" d=" M -48.5 181.5 L -48.4142 181.5 " />
<path d="M-47.7071 181.207 A1 1 0 0 1 -48.4142 181.5" /><path id= "115" d=" M -46.7929 180.293 L -47.7071 181.207 " />
<path d="M-46.5 179.586 A1 1 0 0 1 -46.7929 180.293" /><path id= "117" d=" M -46.5 179.586 L -46.5 154.414 " />
<path d="M-46.7929 153.707 A1 1 0 0 1 -46.5 154.414" /><path id= "119" d=" M -47.7071 152.793 L -46.7929 153.707 " />
<path d="M-89.5 183.5 A4 4 0 0 0 -85.5 187.5" /><path id= "121" d=" M -89.5 150.5 L -89.5 183.5 " />
<path d="M-85.5 146.5 A4 4 0 0 0 -89.5 150.5" /><path id= "123" d=" M -48.5 150.5 L -48.5 152.5 " />
<path id= "124" d=" M -56.8284 146.5 L -52.5 146.5 " />
<path id= "125" d=" M -48.5 181.5 L -48.5 183.5 " />
<path id= "126" d=" M -52.5 187.5 L -56.8284 187.5 " />
<path id= "127" d=" M -85.5 146.5 L -81.1716 146.5 " />
<path id= "128" d=" M -81.1716 187.5 L -85.5 187.5 " />
<path id= "129" d=" M -89.5 154.828 L -89.5 150.5 " />
<path d="M-85.5 187.5 A4 4 0 0 1 -89.5 183.5" /><path id= "131" d=" M -89.5 183.5 L -89.5 179.172 " />
<path id= "132" d=" M -48.5 150.5 L -48.5 152.5 " />
<path id= "133" d=" M -48.5 181.5 L -48.5 183.5 " />
<path id= "134" d=" M -85.5 146.5 L -52.5 146.5 " />
<path id= "135" d=" M -89.5 183.5 L -89.5 150.5 " />
<path id= "136" d=" M -52.5 187.5 L -85.5 187.5 " />
<path id= "137" d=" M -25.5 -191.843 L -25.5 -201.843 " />
<path id= "138" d=" M -25.5 -201.843 L -79.5 -201.843 " />
<path id= "139" d=" M -79.5 -201.843 L -79.5 -191.843 " />
<path id= "140" d=" M -25.5 -191.843 L -79.5 -191.843 " />
<circle cx ="-66" cy ="-195" r ="2.5" /><circle cx ="-39" cy ="-195" r ="2.5" /><path id= "143" d=" M -25.5 -172.54 L -25.5 -176.5 " />
<path d="M-25.5,-176.5 L-25.5,-177.829  L-25.5,-179.183  L-25.5,-180.548  L-25.5,-181.905  L-25.5,-183.24  L-25.5,-184.537  L-25.5,-185.779  L-25.5,-186.953  L-25.5,-188.044  L-25.5,-189.038  L-25.5,-189.926  L-25.5,-190.695  L-25.5,-191.336  L-25.5,-191.843 " /><path d="M-79.5,-176.5 L-79.5,-177.829  L-79.5,-179.183  L-79.5,-180.548  L-79.5,-181.905  L-79.5,-183.24  L-79.5,-184.537  L-79.5,-185.779  L-79.5,-186.953  L-79.5,-188.044  L-79.5,-189.038  L-79.5,-189.926  L-79.5,-190.695  L-79.5,-191.336  L-79.5,-191.843 " /><path id= "146" d=" M -79.5 -176.5 L -79.5 -172.54 " />
<path id= "147" d=" M -25.5 -176.5 L -79.5 -176.5 " />
<path id= "148" d=" M -4 -172.54 L -25.5 -172.54 " />
<path id= "149" d=" M -79.5 -172.54 L -101 -172.54 " />
<path id= "150" d=" M -101 -172.54 L -101 -140 " />
<path id= "151" d=" M -4 -140 L -101 -140 " />
<path id= "152" d=" M -4 -172.54 L -4 -140 " />
<circle cx ="-39" cy ="-165" r ="2.5" /><circle cx ="-66" cy ="-165" r ="2.5" /><circle cx ="-69" cy ="-150" r ="4" /><circle cx ="-66" cy ="-195" r ="1.4" /><circle cx ="-39" cy ="-195" r ="1.4" /><path d="M-91,-140 L-91.1003,-140  L-91.3961,-140  L-91.8727,-140  L-92.506,-140  L-93.2645,-140  L-94.1099,-140  L-95,-140  L-95.8901,-140  L-96.7355,-140  L-97.494,-140  L-98.1273,-140  L-98.6039,-140  L-98.8997,-140  L-99,-140 " /><path d="M-6,-140 L-6.10029,-140  L-6.39612,-140  L-6.87267,-140  L-7.50604,-140  L-8.26447,-140  L-9.10992,-140  L-10,-140  L-10.8901,-140  L-11.7355,-140  L-12.494,-140  L-13.1273,-140  L-13.6039,-140  L-13.8997,-140  L-14,-140 " /><circle cx ="-39" cy ="-165" r ="1.4" /><circle cx ="-66" cy ="-165" r ="1.4" /><path id= "162" d=" M -4 146.5 L -48 146.5 " />
<path id= "163" d=" M -90 146.5 L -48 146.5 " />
<path id= "164" d=" M -90 146.5 L -101 146.5 " />
<path id= "165" d=" M -4 146.5 L -4 215.54 " />
<path id= "166" d=" M -48 188 L -48 181.41 " />
<path id= "167" d=" M -48 152.59 L -48 146.5 " />
<path id= "168" d=" M -90 188 L -48 188 " />
<path id= "169" d=" M -90 146.5 L -90 188 " />
<path id= "170" d=" M -101 146.5 L -101 185 " />
<path id= "171" d=" M -101 185 L -97 185 " />
<path id= "172" d=" M -97 185 L -97 201 " />
<path id= "173" d=" M -101 201 L -97 201 " />
<path id= "174" d=" M -101 201 L -101 215.54 " />
<path id= "175" d=" M -101 215.54 L -79.5 215.54 " />
<path id= "176" d=" M -79.5 215.54 L -79.5 226.5 " />
<path id= "177" d=" M -25.5 226.5 L -79.5 226.5 " />
<path id= "178" d=" M -25.5 226.5 L -25.5 215.54 " />
<path id= "179" d=" M -25.5 215.54 L -4 215.54 " />
<circle cx ="-95" cy ="208" r ="3" /><circle cx ="-66" cy ="208" r ="3" /><circle cx ="-39" cy ="208" r ="3" /><circle cx ="-95" cy ="178" r ="3" /><path id= "184" d=" M -95.3464 181 L -94.6536 181 " />
<path id= "185" d=" M -101 185 L -97 185 " />
<path d="M-79.5,234.843 L-79.5,234.54  L-79.5,234.184  L-79.5,233.774  L-79.5,233.314  L-79.5,232.805  L-79.5,232.25  L-79.5,231.652  L-79.5,231.012  L-79.5,230.335  L-79.5,229.623  L-79.5,228.88  L-79.5,228.11  L-79.5,227.315  L-79.5,226.5 " /><path id= "187" d=" M -79.5 234.843 L -79.5 244.843 " />
<path id= "188" d=" M -25.5 234.843 L -79.5 234.843 " />
<path d="M-25.5,234.843 L-25.5,234.54  L-25.5,234.184  L-25.5,233.774  L-25.5,233.314  L-25.5,232.805  L-25.5,232.25  L-25.5,231.652  L-25.5,231.012  L-25.5,230.335  L-25.5,229.623  L-25.5,228.88  L-25.5,228.11  L-25.5,227.315  L-25.5,226.5 " /><path id= "190" d=" M -25.5 244.843 L -25.5 234.843 " />
<path d="M-101,201 L-101,200.026  L-101,198.975  L-101,197.86  L-101,196.692  L-101,195.484  L-101,194.249  L-101,193  L-101,191.751  L-101,190.516  L-101,189.308  L-101,188.14  L-101,187.025  L-101,185.974  L-101,185 " /><path d="M-97,201 L-97,200.819  L-97,200.634  L-97,200.446  L-97,200.255  L-97,200.062  L-97,199.865  L-97,199.666  L-97,199.464  L-97,199.259  L-97,199.052  L-97,198.843  L-97,198.631  L-97,198.416  L-97,198.2 " /><path d="M-97,187.8 L-97,187.584  L-97,187.369  L-97,187.157  L-97,186.948  L-97,186.741  L-97,186.536  L-97,186.334  L-97,186.135  L-97,185.938  L-97,185.745  L-97,185.554  L-97,185.366  L-97,185.181  L-97,185 " /><path id= "194" d=" M -25.5 244.843 L -79.5 244.843 " />
<circle cx ="-39" cy ="238" r ="3" /><circle cx ="-66" cy ="238" r ="3" /><circle cx ="-95" cy ="208" r ="1.5" /><circle cx ="-66" cy ="208" r ="1.4" /><circle cx ="-39" cy ="208" r ="1.4" /><circle cx ="-95" cy ="178" r ="1.5" /><circle cx ="-39" cy ="238" r ="1.4" /><circle cx ="-66" cy ="238" r ="1.4" /><path id= "203" d=" M -46 -35 L -54 -35 " />
<path id= "204" d=" M -46 -45 L -54 -45 " />
<path d="M-46,-45 L-46,-44.8746  L-46,-44.5048  L-46,-43.9092  L-46,-43.1174  L-46,-42.1694  L-46,-41.1126  L-46,-40  L-46,-38.8874  L-46,-37.8306  L-46,-36.8826  L-46,-36.0908  L-46,-35.4952  L-46,-35.1254  L-46,-35 " /><path d="M-54,-45 L-54,-44.8746  L-54,-44.5048  L-54,-43.9092  L-54,-43.1174  L-54,-42.1694  L-54,-41.1126  L-54,-40  L-54,-38.8874  L-54,-37.8306  L-54,-36.8826  L-54,-36.0908  L-54,-35.4952  L-54,-35.1254  L-54,-35 " /><path id= "207" d=" M -62 146.5 L -62 45 " />
<path id= "208" d=" M -76 -140 L -76 -30 " />
<path id= "209" d=" M -76 -21.5 L -76 21.5 " />
<path id= "210" d=" M -76 30 L -76 146.5 " />
<path id= "211" d=" M -62 35 L -62 33.8479 " />
<path id= "212" d=" M -62 33.8479 L -56 33.8479 " />
<path id= "213" d=" M -56 33.8479 L -56 35 " />
<path id= "214" d=" M -56 45 L -56 45.4113 " />
<path id= "215" d=" M -56 45.4113 L -57 45.4113 " />
<path id= "216" d=" M -57 45.4113 L -57 45 " />
<path id= "217" d=" M -57 35 L -57 34.8479 " />
<path id= "218" d=" M -57 34.8479 L -61 34.8479 " />
<path id= "219" d=" M -61 34.8479 L -61 35 " />
<path id= "220" d=" M -61 45 L -61 146.5 " />
<path id= "221" d=" M -77 -140 L -77 -30 " />
<path id= "222" d=" M -77 -21.5 L -77 21.5 " />
<path id= "223" d=" M -77 30 L -77 146.5 " />
<path id= "224" d=" M -61 -45 L -61 -140 " />
<path id= "225" d=" M -62 -140 L -62 -45 " />
<path id= "226" d=" M -70 45 L -62 45 " />
<path id= "227" d=" M -68 -45 L -60 -45 " />
<path d="M-62,45 L-62,44.8746  L-62,44.5048  L-62,43.9092  L-62,43.1174  L-62,42.1694  L-62,41.1126  L-62,40  L-62,38.8874  L-62,37.8306  L-62,36.8826  L-62,36.0908  L-62,35.4952  L-62,35.1254  L-62,35 " /><path d="M-56,35 L-56,35.1254  L-56,35.4952  L-56,36.0908  L-56,36.8826  L-56,37.8306  L-56,38.8874  L-56,40  L-56,41.1126  L-56,42.1694  L-56,43.1174  L-56,43.9092  L-56,44.5048  L-56,44.8746  L-56,45 " /><path d="M-57,35 L-57,35.1254  L-57,35.4952  L-57,36.0908  L-57,36.8826  L-57,37.8306  L-57,38.8874  L-57,40  L-57,41.1126  L-57,42.1694  L-57,43.1174  L-57,43.9092  L-57,44.5048  L-57,44.8746  L-57,45 " /><path d="M-61,35 L-61,35.1254  L-61,35.4952  L-61,36.0908  L-61,36.8826  L-61,37.8306  L-61,38.8874  L-61,40  L-61,41.1126  L-61,42.1694  L-61,43.1174  L-61,43.9092  L-61,44.5048  L-61,44.8746  L-61,45 " /><path d="M-70,45 L-70,44.8746  L-70,44.5048  L-70,43.9092  L-70,43.1174  L-70,42.1694  L-70,41.1126  L-70,40  L-70,38.8874  L-70,37.8306  L-70,36.8826  L-70,36.0908  L-70,35.4952  L-70,35.1254  L-70,35 " /><path id= "233" d=" M -70 35 L -62 35 " />
<path id= "234" d=" M -48 35 L -56 35 " />
<path id= "235" d=" M -48 45 L -56 45 " />
<path id= "236" d=" M -57 45 L -61 45 " />
<path id= "237" d=" M -57 35 L -61 35 " />
<path d="M-68,-35 L-68,-35.1254  L-68,-35.4952  L-68,-36.0908  L-68,-36.8826  L-68,-37.8306  L-68,-38.8874  L-68,-40  L-68,-41.1126  L-68,-42.1694  L-68,-43.1174  L-68,-43.9092  L-68,-44.5048  L-68,-44.8746  L-68,-45 " /><path d="M-60,-35 L-60,-35.1254  L-60,-35.4952  L-60,-36.0908  L-60,-36.8826  L-60,-37.8306  L-60,-38.8874  L-60,-40  L-60,-41.1126  L-60,-42.1694  L-60,-43.1174  L-60,-43.9092  L-60,-44.5048  L-60,-44.8746  L-60,-45 " /><path id= "240" d=" M -68 -35 L -60 -35 " />
<path d="M-48,35 L-48,35.1254  L-48,35.4952  L-48,36.0908  L-48,36.8826  L-48,37.8306  L-48,38.8874  L-48,40  L-48,41.1126  L-48,42.1694  L-48,43.1174  L-48,43.9092  L-48,44.5048  L-48,44.8746  L-48,45 " /><path id= "242" d=" M -62 -35 L -62 -33.8479 " />
<path id= "243" d=" M -61 -34.8479 L -61 -35 " />
<path id= "244" d=" M -57 -34.8479 L -61 -34.8479 " />
<path id= "245" d=" M -57 -35 L -57 -34.8479 " />
<path id= "246" d=" M -56 -33.8479 L -56 -35 " />
<path id= "247" d=" M -62 -33.8479 L -56 -33.8479 " />
<path id= "248" d=" M -55 -35 L -59 -35 " />
<path d="M-55,-45 L-55,-44.8746  L-55,-44.5048  L-55,-43.9092  L-55,-43.1174  L-55,-42.1694  L-55,-41.1126  L-55,-40  L-55,-38.8874  L-55,-37.8306  L-55,-36.8826  L-55,-36.0908  L-55,-35.4952  L-55,-35.1254  L-55,-35 " /><path d="M-59,-45 L-59,-44.8746  L-59,-44.5048  L-59,-43.9092  L-59,-43.1174  L-59,-42.1694  L-59,-41.1126  L-59,-40  L-59,-38.8874  L-59,-37.8306  L-59,-36.8826  L-59,-36.0908  L-59,-35.4952  L-59,-35.1254  L-59,-35 " /><path id= "251" d=" M -55 -45 L -59 -45 " />
<path id= "252" d=" M -57 -45.4113 L -57 -45 " />
<path id= "253" d=" M -56 -45.4113 L -57 -45.4113 " />
<path id= "254" d=" M -56 -45 L -56 -45.4113 " />
<path id= "255" d=" M -15 -30 L -14 -30 " />
<path id= "256" d=" M -30.5 -30 L -82.5 -30 " />
<path id= "257" d=" M -3.75 -22.5 L -6 -24.75 " />
<path id= "258" d=" M -3.75 -18.75 L -3.75 -22.5 " />
<path id= "259" d=" M -82.25 21.5 L -82.25 -21.5 " />
<path id= "260" d=" M -6 24.75 L -3.75 22.5 " />
<path id= "261" d=" M -3.75 22.5 L -3.75 18.75 " />
<path id= "262" d=" M -105 -15 L -99 -21 " />
<path d="M-15,-30 L-15.1343,-30  L-15.2597,-30  L-15.3758,-30  L-15.4826,-30  L-15.5797,-30  L-15.6671,-30  L-15.7446,-30  L-15.812,-30  L-15.8692,-30  L-15.9162,-30  L-15.9528,-30  L-15.979,-30  L-15.9948,-30  L-16,-30 " /><path id= "264" d=" M -30.5 -21.5 L -82.5 -21.5 " />
<path id= "265" d=" M -82.25 -21.5 L -82.5 -21.5 " />
<path id= "266" d=" M -82.5 21.5 L -30.5 21.5 " />
<path id= "267" d=" M -82.5 -21.5 L -82.5 21.5 " />
<path id= "268" d=" M -14 30 L -15 30 " />
<circle cx ="-19.25" cy ="-26" r ="1.4" /><path id= "270" d=" M -105 15 L -99 21 " />
<path id= "271" d=" M -82.5 30 L -30.5 30 " />
<path d="M-16,-30 L-15.9948,-30  L-15.979,-30  L-15.9528,-30  L-15.9162,-30  L-15.8692,-30  L-15.812,-30  L-15.7446,-30  L-15.6671,-30  L-15.5797,-30  L-15.4826,-30  L-15.3758,-30  L-15.2597,-30  L-15.1343,-30  L-15,-30 " /><path d="M-90,-30 L-89.8657,-30  L-89.7403,-30  L-89.6242,-30  L-89.5174,-30  L-89.4203,-30  L-89.3329,-30  L-89.2554,-30  L-89.188,-30  L-89.1308,-30  L-89.0838,-30  L-89.0472,-30  L-89.021,-30  L-89.0052,-30  L-89,-30 " /><path id= "274" d=" M -90 -30 L -15 -30 " />
<path d="M-28.5,-21.5 L-28.4499,-21.5  L-28.3019,-21.5  L-28.0637,-21.5  L-27.747,-21.5  L-27.3678,-21.5  L-26.945,-21.5  L-26.5,-21.5  L-26.055,-21.5  L-25.6322,-21.5  L-25.253,-21.5  L-24.9363,-21.5  L-24.6981,-21.5  L-24.5501,-21.5  L-24.5,-21.5 " /><circle cx ="-85.75" cy ="-26" r ="1.4" /><path d="M-50.25,30 L-50.2876,30  L-50.3985,30  L-50.5773,30  L-50.8148,30  L-51.0992,30  L-51.4162,30  L-51.75,30  L-52.0838,30  L-52.4008,30  L-52.6852,30  L-52.9227,30  L-53.1015,30  L-53.2124,30  L-53.25,30 " /><path d="M-89,30 L-89.0052,30  L-89.021,30  L-89.0472,30  L-89.0838,30  L-89.1308,30  L-89.188,30  L-89.2554,30  L-89.3329,30  L-89.4203,30  L-89.5174,30  L-89.6242,30  L-89.7403,30  L-89.8657,30  L-90,30 " /><path d="M-15,30 L-15.1343,30  L-15.2597,30  L-15.3758,30  L-15.4826,30  L-15.5797,30  L-15.6671,30  L-15.7446,30  L-15.812,30  L-15.8692,30  L-15.9162,30  L-15.9528,30  L-15.979,30  L-15.9948,30  L-16,30 " /><path d="M-28.5,30 L-28.4499,30  L-28.3019,30  L-28.0637,30  L-27.747,30  L-27.3678,30  L-26.945,30  L-26.5,30  L-26.055,30  L-25.6322,30  L-25.253,30  L-24.9363,30  L-24.6981,30  L-24.5501,30  L-24.5,30 " /><path id= "281" d=" M -15 -30 L -7.99361e-15 -15 " />
<path id= "282" d=" M -90 -30 L -105 -15 " />
<path id= "283" d=" M 0 -15 L 0 -8 " />
<path id= "284" d=" M -105 15 L -105 -15 " />
<path id= "285" d=" M -105 15 L -90 30 " />
<path id= "286" d=" M -15 30 L -90 30 " />
<path id= "287" d=" M 7.99361e-15 15 L -15 30 " />
<circle cx ="-19.25" cy ="26" r ="3" /><circle cx ="-19.25" cy ="-26" r ="3" /><path id= "290" d=" M -22.5 -21.5 L -22.5 21.5 " />
<path id= "291" d=" M -22.5 21.5 L -82.5 21.5 " />
<path id= "292" d=" M -82.5 21.5 L -82.5 -21.5 " />
<path id= "293" d=" M -82.5 -21.5 L -22.5 -21.5 " />
<circle cx ="-85.75" cy ="-26" r ="3" /><circle cx ="-85.75" cy ="26" r ="3" /><circle cx ="-85.75" cy ="-26" r ="1.5" /><circle cx ="-19.25" cy ="26" r ="1.4" /><path d="M-90,30 L-89.8657,30  L-89.7403,30  L-89.6242,30  L-89.5174,30  L-89.4203,30  L-89.3329,30  L-89.2554,30  L-89.188,30  L-89.1308,30  L-89.0838,30  L-89.0472,30  L-89.021,30  L-89.0052,30  L-89,30 " /><path d="M-16,30 L-15.9948,30  L-15.979,30  L-15.9528,30  L-15.9162,30  L-15.8692,30  L-15.812,30  L-15.7446,30  L-15.6671,30  L-15.5797,30  L-15.4826,30  L-15.3758,30  L-15.2597,30  L-15.1343,30  L-15,30 " /><circle cx ="-19.25" cy ="26" r ="3" /><circle cx ="-19.25" cy ="-26" r ="3" /><circle cx ="-85.75" cy ="-26" r ="3" /><circle cx ="-85.75" cy ="26" r ="3" /><circle cx ="-85.75" cy ="26" r ="1.4" /><circle cx ="-19.25" cy ="-26" r ="1.5" /><circle cx ="-19.25" cy ="26" r ="1.5" /><circle cx ="-85.75" cy ="-26" r ="1.5" /><circle cx ="-85.75" cy ="26" r ="1.5" /><circle cx ="-85.75" cy ="26" r ="1.5" /></g>
</g>



<g id="Ortho_1_1"
   transform="rotate(180,265.838,95.2587) translate(265.838,95.2587) scale(0.5,0.5)"
  >
<g   stroke="rgb(0, 0, 0)"
   stroke-width="0.7"
   stroke-linecap="butt"
   stroke-linejoin="miter"
   fill="none"
   transform="scale(1,-1)"
  >
<path id= "1" d=" M -42.7546 -34.7826 L -38.8909 -33.7474 " />
<path id= "2" d=" M -39.2104 -33.6049 L -38.8909 -33.5193 " />
<path id= "3" d=" M -25.8094 -32.0261 L -24.7487 -31.7419 " />
<path id= "4" d=" M -10.0021 -76.8032 L -0.671218 -74.303 " />
<path id= "5" d=" M 3.1566 -75.0612 L 8.81345 -73.5455 " />
<path id= "6" d=" M 11.6419 -72.7876 L 12.7025 -72.5034 " />
<path id= "7" d=" M 33.1127 -21.0221 L 33.1127 -28.7296 " />
<path id= "8" d=" M 18.6066 -30.3964 L 18.6066 -27.0244 " />
<path id= "9" d=" M 2.6066 -30.3964 L 2.6066 -27.0244 " />
<path id= "10" d=" M -2.1399 -38.8021 L -2.84701 -38.9916 " />
<path id= "11" d=" M 3.55412 -60.0525 L 2.84701 -60.242 " />
<path id= "12" d=" M 18.6066 -16.9133 L 18.6066 -16.1376 " />
<path id= "13" d=" M 16.5066 -14.6899 L 16.5066 -12.6211 " />
<path id= "14" d=" M 4.7066 -13.3011 L 4.7066 -12.6211 " />
<path id= "15" d=" M 8.54534 -44.7389 L -1.70771 -47.4862 " />
<path id= "16" d=" M 9.83944 -49.5685 L -0.413613 -52.3158 " />
<path id= "17" d=" M 22.6066 -12.6211 L 22.6066 -11.6576 " />
<path id= "18" d=" M -1.3934 -12.6211 L -1.3934 -11.6576 " />
<path id= "19" d=" M 22.6066 -9.29723 L 22.6066 -8.33379 " />
<path id= "20" d=" M -1.3934 -9.29723 L -1.3934 -8.33379 " />
<path id= "21" d=" M 22.6066 -5.97338 L 22.6066 -5.00995 " />
<path id= "22" d=" M -1.3934 -5.97338 L -1.3934 -5.00995 " />
<path id= "23" d=" M 22.6066 -2.64954 L 22.6066 -1.6861 " />
<path id= "24" d=" M -1.3934 -2.64954 L -1.3934 -1.6861 " />
<path id= "25" d=" M 22.6066 0.674306 L 22.6066 1.63774 " />
<path id= "26" d=" M -1.3934 0.674306 L -1.3934 1.63774 " />
<path id= "27" d=" M 22.6066 3.99815 L 22.6066 4.96158 " />
<path id= "28" d=" M -1.3934 3.99815 L -1.3934 4.96158 " />
<path id= "29" d=" M 22.6066 7.32199 L 22.6066 8.28543 " />
<path id= "30" d=" M -1.3934 7.32199 L -1.3934 8.28543 " />
<path id= "31" d=" M 22.6066 10.6458 L 22.6066 11.6093 " />
<path id= "32" d=" M -1.3934 10.6458 L -1.3934 11.6093 " />
<path id= "33" d=" M 22.6066 13.9697 L 22.6066 14.9331 " />
<path id= "34" d=" M -1.3934 13.9697 L -1.3934 14.9331 " />
<path id= "35" d=" M 22.6066 17.2935 L 22.6066 18.257 " />
<path id= "36" d=" M -1.3934 17.2935 L -1.3934 18.257 " />
<path id= "37" d=" M 10.4171 37.5428 L 8.97007 36.3942 " />
<path id= "38" d=" M 10.7961 37.5428 L 12.2182 36.414 " />
<path id= "39" d=" M -116.244 -9.83551 L -123.676 -11.8268 " />
<path id= "40" d=" M -106.748 -5.50709 L -114.526 -7.59125 " />
<path id= "41" d=" M -103.204 -4.32932 L -110.982 -6.41348 " />
<path id= "42" d=" M -81.3427 -51.2803 L -89.1208 -53.3644 " />
<path id= "43" d=" M -92.9487 -52.6062 L -105.427 -55.9498 " />
<path id= "44" d=" M -127.254 -11.0017 L -132.911 -12.5174 " />
<path id= "45" d=" M -101.849 -56.7748 L -107.506 -58.2906 " />
<path id= "46" d=" M 129.173 -113.539 L 129.173 -61.5139 " />
<path id= "47" d=" M -107.603 -70.6245 L -16.7833 -94.9596 " />
<path id= "48" d=" M 11.8571 -102.634 L 90.8886 -123.81 " />
<path id= "49" d=" M -105.712 -62.8488 L -22.2453 -85.2138 " />
<path id= "50" d=" M 17.9358 -95.9803 L 92.9592 -116.083 " />
<path id= "51" d=" M -105.712 10.7608 L -26.3767 -10.4972 " />
<path id= "52" d=" M 33.1127 -26.4373 L 90.8886 -41.9183 " />
<path id= "53" d=" M -105.712 19.043 L -19.296 -4.11226 " />
<path id= "54" d=" M 19.9675 -14.6329 L 92.9592 -34.1909 " />
<path id= "55" d=" M -167.078 -63.5813 L -167.078 -60.4707 " />
<path id= "56" d=" M -167.078 -55.1308 L -167.078 -50.0932 " />
<path id= "57" d=" M -185.322 18.2226 L -185.322 -33.8028 " />
<path id= "58" d=" M -180.791 -37.1834 L -180.791 -35.3498 " />
<path id= "59" d=" M 88.3883 -109.811 L 86.9234 -110.203 " />
<path id= "60" d=" M -41.669 -57.0803 L -41.669 -64.7878 " />
<path id= "61" d=" M -60.1543 -59.3539 L -60.1543 -67.0614 " />
<path id= "62" d=" M -60.1543 -53.5733 L -60.1543 -45.8658 " />
<path id= "63" d=" M -60.1543 -58.3905 L -60.1543 -56.8774 " />
<path id= "64" d=" M -41.669 -51.2997 L -41.669 -43.5922 " />
<path id= "65" d=" M -41.669 -56.1169 L -41.669 -52.2631 " />
</g>
<g   stroke="rgb(0, 0, 0)"
   stroke-width="0.7"
   stroke-linecap="butt"
   stroke-linejoin="miter"
   fill="none"
   transform="scale(1,-1)"
  >
<path id= "1" d=" M -44.5477 -37.8885 L -44.5477 -42.379 " />
<path id= "2" d=" M -39.6233 -33.9436 L -39.4515 -33.7556 " />
<path d="M-39.4515 -33.7556 A1 0.68125 105 0 0 -39.2104 -33.6049" />
<path d="M-44.5477 -37.8885 A4 2.725 105 0 0 -42.7546 -34.7826" />
<path id= "5" d=" M -7.77817 -47.5326 L -7.77817 -47.5326 " />
<path d="M-8.20388 -77.285 A4 2.725 -75 0 1 -7.85319 -76.2274" />
<path id= "7" d=" M -38.8909 -32.7085 L -39.598 -32.519 " />
<path id= "8" d=" M -15.2028 -27.877 L -14.9764 -27.9377 " />
<path id= "9" d=" M -39.598 -32.519 L -38.8909 -32.3295 " />
<path id= "10" d=" M -25.8094 -28.8243 L -24.7487 -28.5401 " />
<path id= "11" d=" M -15.2028 -25.9823 L -14.8492 -25.8876 " />
<path id= "12" d=" M -39.598 -24.8115 L -39.598 -32.519 " />
<path d="M10.0266 -72.6222 A4 2.725 105 0 0 8.81345 -73.5455" />
<path d="M8.81345 -73.5455 A4 2.725 105 0 0 7.77817 -73.5355" />
<path id= "15" d=" M 7.77817 -73.5355 L -15.2028 -67.3778 " />
<path id= "16" d=" M 25.4558 -31.0032 L 17.6777 -33.0874 " />
<path id= "17" d=" M 14.8492 -42.5162 L 14.4957 -42.4214 " />
<path d="M-14.8492 -27.7607 A4 2.725 -75 0 1 -15.2028 -28.3493" />
<path d="M-12.7279 -66.5251 A4 2.725 105 0 0 -15.2028 -63.874" />
<path d="M11.6419 -72.7876 A4 2.725 105 0 0 10.6066 -72.7776" />
<path id= "21" d=" M 10.6066 -72.7776 L -12.7279 -66.5251 " />
<path d="M10.4652 -68.4043 A1.3 0.885625 -75 0 1 9.81227 -67.0306" />
<path d="M10.3403 -69.0011 A1.3 0.885625 -75 0 1 10.4652 -68.4043" />
<path d="M-11.4551 -62.5307 A1.3 0.885625 -75 0 1 -12.108 -61.1571" />
<path d="M-11.58 -63.1276 A1.3 0.885625 -75 0 1 -11.4551 -62.5307" />
<path id= "26" d=" M -14.8492 -25.8876 L -14.8492 -34.5585 " />
<path id= "27" d=" M -14.4957 -34.6532 L -14.8492 -34.5585 " />
<path id= "28" d=" M -39.598 -24.8115 L -38.8909 -24.6221 " />
<path id= "29" d=" M -15.2028 -18.2749 L -4.24264 -15.3381 " />
<path id= "30" d=" M -4.24264 -15.3381 L -4.24264 -23.0456 " />
<path id= "31" d=" M -12.0208 -25.1297 L -4.24264 -23.0456 " />
<path id= "32" d=" M 2.12132 -75.0512 L -0.93934 -74.2311 " />
<path d="M3.1566 -75.0612 A4 2.725 105 0 0 2.12132 -75.0512" />
<path id= "34" d=" M 32.5269 -29.1085 L 25.4558 -31.0032 " />
<path id= "35" d=" M 4.94975 -25.5086 L -4.24264 -23.0456 " />
<path id= "36" d=" M -12.0208 -25.1297 L 2.6066 -29.0491 " />
<path id= "37" d=" M 14.5789 -32.2571 L 17.6777 -33.0874 " />
<path id= "38" d=" M 18.9858 -29.2696 L 25.4558 -31.0032 " />
<path d="M18.6066 -29.3623 A5.6 1.50052 180 0 1 18.9858 -29.2696" />
<path d="M4.94975 -25.5086 A8 2.14359 180 0 1 2.6066 -27.0244" />
<path id= "41" d=" M 18.7383 -31.8558 L 17.4444 -31.5091 " />
<path id= "42" d=" M 20.8597 -31.2874 L 18.7383 -31.8558 " />
<path id= "43" d=" M 20.8597 -31.2874 L 18.5428 -30.6666 " />
<path id= "44" d=" M -1.06066 -25.4139 L -5.34727 -24.2653 " />
<path id= "45" d=" M -1.06066 -25.4139 L -3.18198 -25.9823 " />
<path id= "46" d=" M -5.34727 -24.2653 L -7.46859 -24.8337 " />
<path id= "47" d=" M -3.18198 -25.9823 L -7.46859 -24.8337 " />
<path id= "48" d=" M 17.6777 -33.0874 L 17.6777 -41.7583 " />
<path id= "49" d=" M 17.6777 -41.7583 L 14.8492 -42.5162 " />
<path id= "50" d=" M 14.4957 -42.4214 L 14.4957 -69.3976 " />
<path id= "51" d=" M 14.4957 -42.4214 L -14.4957 -34.6532 " />
<path id= "52" d=" M -12.0208 -33.8006 L 17.6777 -41.7583 " />
<path id= "53" d=" M -14.8492 -34.5585 L -12.0208 -33.8006 " />
<path id= "54" d=" M -14.4957 -61.6293 L -14.4957 -34.6532 " />
<path d="M-11.6673 -66.2409 A4 2.725 105 0 0 -14.4957 -61.6293" />
<path d="M14.4957 -69.3976 A4 2.725 105 0 0 12.7025 -72.5034" />
<path d="M12.7025 -72.5034 A4 2.725 105 0 0 11.6673 -72.4934" />
<path id= "58" d=" M 11.6673 -72.4934 L -11.6673 -66.2409 " />
<path d="M11.5258 -68.1201 A1.3 0.885625 -75 0 1 10.2701 -66.6181" />
<path d="M10.2701 -66.6181 A1.3 0.885625 -75 0 1 10.9431 -69.1295" />
<path d="M10.9431 -69.1295 A1.3 0.885625 -75 0 1 11.5258 -68.1201" />
<path d="M-10.3945 -62.2465 A1.3 0.885625 -75 0 1 -11.6502 -60.7445" />
<path d="M-11.6502 -60.7445 A1.3 0.885625 -75 0 1 -10.9772 -63.2559" />
<path d="M-10.9772 -63.2559 A1.3 0.885625 -75 0 1 -10.3945 -62.2465" />
<path id= "65" d=" M -12.0208 -25.1297 L -12.0208 -33.8006 " />
<path id= "66" d=" M -4.24264 -15.3381 L 2.82843 -13.4434 " />
<path id= "67" d=" M -4.24264 -23.0456 L 2.82843 -21.1509 " />
<path d="M32.5269 -20.6432 A2 0.535898 1.65064e-15 0 0 33.1127 -21.0221" />
<path id= "69" d=" M 5.65685 -13.4434 L 32.5269 -20.6432 " />
<path d="M2.82843 -13.4434 A2 0.535898 1.65064e-15 0 0 5.65685 -13.4434" />
<path d="M32.5269 -28.3507 A2 0.535898 1.65064e-15 0 0 33.1127 -28.7296" />
<path d="M33.1127 -28.7296 A2 0.535898 1.65064e-15 0 0 32.5269 -29.1085" />
<path d="M18.6058 -27.0547 A8 2.14359 180 0 1 18.6066 -27.0244" />
<path d="M18.6066 -27.0244 A8 2.14359 180 0 1 4.94975 -25.5086" />
<path d="M18.9858 -29.2696 A5.6 1.50052 -180 0 1 20.626 -28.2086" />
<path d="M20.626 -28.2086 A5.6 1.50052 -180 0 1 18.6066 -27.0549" />
<path id= "77" d=" M 5.65685 -21.1509 L 32.5269 -28.3507 " />
<path d="M2.82843 -21.1509 A2 0.535898 1.65064e-15 0 0 5.65685 -21.1509" />
<path d="M-9.47523 -31.1107 A1.4 0.95375 -75 0 1 -8.12293 -32.7282" />
<path d="M-8.12293 -32.7282 A1.4 0.95375 -75 1 1 -8.84763 -30.0236" />
<path d="M-8.84763 -30.0236 A1.4 0.95375 -75 0 1 -9.47523 -31.1107" />
<path id= "82" d=" M 14.1421 -36.0901 L 12.7279 -35.7112 " />
<path d="M14.1421 -38.7877 A1.4 0.95375 -75 0 1 14.5045 -38.7912" />
<path d="M14.5045 -38.7912 A1.4 0.95375 -75 0 1 14.1421 -36.0901" />
<path id= "85" d=" M 14.1421 -38.7877 L 12.7279 -38.4088 " />
<path d="M12.7279 -35.7112 A1.4 0.95375 -75 0 1 12.3656 -35.7077" />
<path d="M12.3656 -35.7077 A1.4 0.95375 -75 0 1 12.7279 -38.4088" />
<path id= "88" d=" M 18.9858 -27.1475 L 18.9858 -29.2696 " />
<path d="M4.94975 -28.8807 A8 2.14359 180 0 1 2.6066 -30.3964" />
<path d="M2.6066 -30.3964 A8 2.14359 180 0 1 18.6066 -30.3964" />
<path d="M18.6066 -30.3964 A8 2.14359 180 0 1 4.94975 -28.8807" />
<path id= "92" d=" M 18.7383 -30.719 L 18.7383 -31.8558 " />
<path id= "93" d=" M -3.18198 -24.8455 L -3.18198 -25.9823 " />
<path d="M-2.84701 -38.9916 A11 7.49375 -75 0 1 2.84701 -60.242" />
<path d="M12.2762 -38.1391 A1.4 0.95375 -75 0 1 11.7654 -37.1177" />
<path d="M32.1734 -24.4022 A3 2.04375 105 0 0 30.8285 -26.7316" />
<path d="M30.8285 -26.7316 A3 2.04375 105 0 0 29.2756 -20.936" />
<path d="M29.2756 -20.936 A3 2.04375 105 0 0 32.1734 -24.4022" />
<path d="M10.253 -18.5287 A3 2.04375 105 0 0 8.90819 -20.8581" />
<path d="M8.90819 -20.8581 A3 2.04375 105 0 0 7.35527 -15.0625" />
<path d="M7.35527 -15.0625 A3 2.04375 105 0 0 10.253 -18.5287" />
<path d="M10.0232 -30.2401 A0.825 0.221058 180 0 1 9.7816 -30.3964" />
<path d="M9.7816 -30.3964 A0.825 0.221058 180 1 1 11.4316 -30.3964" />
<path d="M11.4316 -30.3964 A0.825 0.221058 180 0 1 10.0232 -30.2401" />
<path d="M8.48528 -51.5115 A11 7.49375 -75 0 1 8.40314 -49.9534" />
<path d="M7.10905 -45.1237 A11 7.49375 -75 0 1 -2.1399 -38.8021" />
<path d="M-2.1399 -38.8021 A11 7.49375 -75 0 1 3.55412 -60.0525" />
<path d="M3.55412 -60.0525 A11 7.49375 -75 0 1 8.48528 -51.5115" />
<path d="M30.052 -24.9706 A3 2.04375 105 0 0 29.6462 -26.562" />
<path d="M28.3365 -21.674 A3 2.04375 105 0 0 30.052 -24.9706" />
<path d="M8.13173 -19.0971 A3 2.04375 105 0 0 7.72593 -20.6885" />
<path d="M6.4162 -15.8005 A3 2.04375 105 0 0 8.13173 -19.0971" />
<path d="M18.5728 -16.9042 A8 2.14359 180 0 1 11.3411 -14.9665" />
<path d="M29.0621 -24.7054 A1.6 1.09 105 0 0 28.7166 -25.7217" />
<path d="M27.9516 -22.8666 A1.6 1.09 105 0 0 29.0621 -24.7054" />
<path d="M7.14178 -18.8318 A1.6 1.09 105 0 0 6.7963 -19.8481" />
<path d="M6.03128 -16.993 A1.6 1.09 105 0 0 7.14178 -18.8318" />
<path d="M3.64923 -46.0508 A6 4.0875 -75 0 1 -0.845807 -43.6318" />
<path d="M-0.845807 -43.6318 A6 4.0875 -75 0 1 2.26002 -55.2229" />
<path d="M2.26002 -55.2229 A6 4.0875 -75 0 1 4.94332 -50.8804" />
<path d="M18.6066 -16.1376 A8 2.14359 180 0 1 8.11097 -14.101" />
<path d="M1.88146 -46.5245 A6 4.0875 -75 0 1 -1.69028 -44.0157" />
<path d="M1.33672 -55.3126 A6 4.0875 -75 0 1 3.17556 -51.3541" />
<path d="M6.43467 -11.5032 A5.9 1.5809 0 0 0 16.5066 -12.6211" />
<path d="M4.7066 -12.6211 A5.9 1.5809 0 0 0 6.43467 -11.5032" />
<path d="M-1.70771 -47.4862 A2.5 1.70313 -75 0 1 -0.413613 -52.3158" />
<path d="M2.12132 -10.3474 A12 3.21539 180 0 1 -1.3934 -12.6211" />
<path d="M-1.3934 -12.6211 A12 3.21539 180 0 1 0.0999567 -14.1745" />
<path d="M17.7935 -15.196 A12 3.21539 180 0 1 22.6066 -12.6211" />
<path d="M22.6066 -12.6211 A12 3.21539 180 0 1 2.12132 -10.3474" />
<path d="M10.9602 -47.6274 A2.5 1.70313 -75 0 1 8.54534 -44.7389" />
<path d="M8.54534 -44.7389 A2.5 1.70313 -75 0 1 9.83944 -49.5685" />
<path d="M9.83944 -49.5685 A2.5 1.70313 -75 0 1 10.9602 -47.6274" />
<path d="M2.12132 -9.38401 A12 3.21539 180 0 1 -1.3934 -11.6576" />
<path d="M22.6066 -11.6576 A12 3.21539 180 0 1 2.12132 -9.38401" />
<path d="M4.94975 -7.78148 A8 2.14359 0 0 0 18.6054 -9.26075" />
<path d="M2.60776 -9.26075 A8 2.14359 0 0 0 4.94975 -7.78148" />
<path d="M2.12132 -7.0236 A12 3.21539 180 0 1 -1.3934 -9.29723" />
<path d="M-1.3934 -9.29723 A12 3.21539 180 0 1 -0.555818 -10.4774" />
<path d="M21.769 -10.4774 A12 3.21539 180 0 1 22.6066 -9.29723" />
<path d="M22.6066 -9.29723 A12 3.21539 180 0 1 2.12132 -7.0236" />
<path d="M2.12132 -6.06017 A12 3.21539 180 0 1 -1.3934 -8.33379" />
<path d="M22.6066 -8.33379 A12 3.21539 180 0 1 2.12132 -6.06017" />
<path d="M4.94975 -4.45763 A8 2.14359 0 0 0 18.6054 -5.9369" />
<path d="M2.60776 -5.9369 A8 2.14359 0 0 0 4.94975 -4.45763" />
<path d="M2.12132 -3.69976 A12 3.21539 180 0 1 -1.3934 -5.97338" />
<path d="M-1.3934 -5.97338 A12 3.21539 180 0 1 -0.555818 -7.15359" />
<path d="M21.769 -7.15359 A12 3.21539 180 0 1 22.6066 -5.97338" />
<path d="M22.6066 -5.97338 A12 3.21539 180 0 1 2.12132 -3.69976" />
<path d="M2.12132 -2.73632 A12 3.21539 180 0 1 -1.3934 -5.00995" />
<path d="M22.6066 -5.00995 A12 3.21539 180 0 1 2.12132 -2.73632" />
<path d="M4.94975 -1.13379 A8 2.14359 0 0 0 18.6054 -2.61306" />
<path d="M2.60776 -2.61306 A8 2.14359 0 0 0 4.94975 -1.13379" />
<path d="M2.12132 -0.375914 A12 3.21539 180 0 1 -1.3934 -2.64954" />
<path d="M-1.3934 -2.64954 A12 3.21539 180 0 1 -0.555818 -3.82974" />
<path d="M21.769 -3.82974 A12 3.21539 180 0 1 22.6066 -2.64954" />
<path d="M22.6066 -2.64954 A12 3.21539 180 0 1 2.12132 -0.375914" />
<path d="M2.12132 0.587519 A12 3.21539 180 0 1 -1.3934 -1.6861" />
<path d="M22.6066 -1.6861 A12 3.21539 180 0 1 2.12132 0.587519" />
<path d="M4.94975 2.19006 A8 2.14359 0 0 0 18.6054 0.710783" />
<path d="M2.60776 0.710783 A8 2.14359 0 0 0 4.94975 2.19006" />
<path d="M2.12132 2.94793 A12 3.21539 180 0 1 -1.3934 0.674306" />
<path d="M-1.3934 0.674306 A12 3.21539 180 0 1 -0.555818 -0.505899" />
<path d="M21.769 -0.505899 A12 3.21539 180 0 1 22.6066 0.674306" />
<path d="M22.6066 0.674306 A12 3.21539 180 0 1 2.12132 2.94793" />
<path d="M2.12132 3.91136 A12 3.21539 180 0 1 -1.3934 1.63774" />
<path d="M22.6066 1.63774 A12 3.21539 180 0 1 2.12132 3.91136" />
<path d="M4.94975 5.5139 A8 2.14359 0 0 0 18.6054 4.03463" />
<path d="M2.60776 4.03463 A8 2.14359 0 0 0 4.94975 5.5139" />
<path d="M2.12132 6.27177 A12 3.21539 180 0 1 -1.3934 3.99815" />
<path d="M-1.3934 3.99815 A12 3.21539 180 0 1 -0.555818 2.81794" />
<path d="M21.769 2.81794 A12 3.21539 180 0 1 22.6066 3.99815" />
<path d="M22.6066 3.99815 A12 3.21539 180 0 1 2.12132 6.27177" />
<path d="M2.12132 7.23521 A12 3.21539 180 0 1 -1.3934 4.96158" />
<path d="M22.6066 4.96158 A12 3.21539 180 0 1 2.12132 7.23521" />
<path d="M4.94975 8.83774 A8 2.14359 0 0 0 18.6054 7.35847" />
<path d="M2.60776 7.35847 A8 2.14359 0 0 0 4.94975 8.83774" />
<path d="M2.12132 9.59562 A12 3.21539 180 0 1 -1.3934 7.32199" />
<path d="M-1.3934 7.32199 A12 3.21539 180 0 1 -0.555818 6.14179" />
<path d="M21.769 6.14179 A12 3.21539 180 0 1 22.6066 7.32199" />
<path d="M22.6066 7.32199 A12 3.21539 180 0 1 2.12132 9.59562" />
<path d="M2.12132 10.5591 A12 3.21539 180 0 1 -1.3934 8.28543" />
<path d="M22.6066 8.28543 A12 3.21539 180 0 1 2.12132 10.5591" />
<path d="M4.94975 12.1616 A8 2.14359 0 0 0 18.6054 10.6823" />
<path d="M2.60776 10.6823 A8 2.14359 0 0 0 4.94975 12.1616" />
<path d="M2.12132 12.9195 A12 3.21539 180 0 1 -1.3934 10.6458" />
<path d="M-1.3934 10.6458 A12 3.21539 180 0 1 -0.555818 9.46563" />
<path d="M21.769 9.46563 A12 3.21539 180 0 1 22.6066 10.6458" />
<path d="M22.6066 10.6458 A12 3.21539 180 0 1 2.12132 12.9195" />
<path d="M2.12132 13.8829 A12 3.21539 180 0 1 -1.3934 11.6093" />
<path d="M22.6066 11.6093 A12 3.21539 180 0 1 2.12132 13.8829" />
<path d="M4.94975 15.4854 A8 2.14359 0 0 0 18.6054 14.0062" />
<path d="M2.60776 14.0062 A8 2.14359 0 0 0 4.94975 15.4854" />
<path d="M2.12132 16.2433 A12 3.21539 180 0 1 -1.3934 13.9697" />
<path d="M-1.3934 13.9697 A12 3.21539 180 0 1 -0.555818 12.7895" />
<path d="M21.769 12.7895 A12 3.21539 180 0 1 22.6066 13.9697" />
<path d="M22.6066 13.9697 A12 3.21539 180 0 1 2.12132 16.2433" />
<path d="M2.12132 17.2067 A12 3.21539 180 0 1 -1.3934 14.9331" />
<path d="M22.6066 14.9331 A12 3.21539 180 0 1 2.12132 17.2067" />
<path d="M4.94975 18.8093 A8 2.14359 0 0 0 18.6054 17.33" />
<path d="M2.60776 17.33 A8 2.14359 0 0 0 4.94975 18.8093" />
<path d="M2.12132 19.5672 A12 3.21539 180 0 1 -1.3934 17.2935" />
<path d="M-1.3934 17.2935 A12 3.21539 180 0 1 -0.555818 16.1133" />
<path d="M21.769 16.1133 A12 3.21539 180 0 1 22.6066 17.2935" />
<path d="M22.6066 17.2935 A12 3.21539 180 0 1 2.12132 19.5672" />
<path d="M2.12132 20.5306 A12 3.21539 180 0 1 -1.3934 18.257" />
<path d="M22.6066 18.257 A12 3.21539 180 0 1 2.12132 20.5306" />
<path d="M11.5362 21.4627 A1.5 0.401924 180 0 1 9.67697 21.4627" />
<path id= "209" d=" M 0.0785368 19.7999 L -2.82843 20.5789 " />
<path id= "210" d=" M 19.799 20.5789 L 19.3513 20.4589 " />
<path id= "211" d=" M 8.48528 23.6104 L 19.799 20.5789 " />
<path id= "212" d=" M -2.82843 20.5789 L 8.48528 23.6104 " />
<path id= "213" d=" M -2.82843 32.14 L -2.82843 20.5789 " />
<path id= "214" d=" M 19.799 32.14 L 19.799 20.5789 " />
<path id= "215" d=" M 8.48528 35.1715 L 8.48528 23.6104 " />
<path id= "216" d=" M 8.48528 35.1715 L 19.799 32.14 " />
<path id= "217" d=" M -2.82843 32.14 L 8.48528 35.1715 " />
<path id= "218" d=" M 11.5901 36.5823 L 11.5901 34.3396 " />
<path id= "219" d=" M 7.9196 36.3187 L 7.9196 35.02 " />
<path id= "220" d=" M 11.5901 36.5823 L 7.9196 36.3187 " />
<path id= "221" d=" M 14.2771 35.8623 L 14.2771 33.6196 " />
<path id= "222" d=" M 14.2771 35.8623 L 11.5901 36.5823 " />
<path id= "223" d=" M 6.93608 35.3352 L 6.93608 34.7564 " />
<path id= "224" d=" M 7.9196 36.3187 L 6.93608 35.3352 " />
<path d="M10.4652 37.5635 A0.2 0.0535898 180 0 1 10.4171 37.5428" />
<path d="M10.7961 37.5428 A0.2 0.0535898 180 0 1 10.4652 37.5635" />
<path d="M-110.982 -6.41348 A1 0.68125 -75 0 1 -111.223 -6.56418" />
<path id= "228" d=" M -111.223 -6.56418 L -111.395 -6.75224 " />
<path d="M-116.319 -10.6971 A4 2.725 105 0 0 -114.526 -7.59125" />
<path id= "230" d=" M -116.319 -14.8672 L -116.319 -10.6971 " />
<path d="M-83.9993 -10.5712 A1 0.68125 105 0 0 -83.7922 -11.3079" />
<path id= "232" d=" M -83.7922 -11.3079 L -83.7922 -11.3906 " />
<path id= "233" d=" M -83.7922 -11.3906 L -82.3779 -11.7695 " />
<path d="M-79.5495 -16.3811 A4 2.725 -75 0 1 -82.3779 -11.7695" />
<path id= "235" d=" M -79.5495 -16.3811 L -79.5495 -48.1744 " />
<path d="M-123.676 -11.8268 A2 1.3625 -75 0 1 -124.158 -12.1282" />
<path id= "237" d=" M -124.158 -12.1282 L -128.633 -17.0261 " />
<path d="M-128.633 -17.0261 A2 1.3625 -75 0 1 -129.047 -18.2777" />
<path id= "239" d=" M -108.541 -40.4062 L -108.541 -8.61292 " />
<path id= "240" d=" M -116.319 -42.4904 L -116.319 -38.3202 " />
<path d="M-108.541 -8.61292 A4 2.725 105 0 0 -106.748 -5.50709" />
<path d="M-106.748 -5.50709 A4 2.725 105 0 0 -105.712 -5.51706" />
<path id= "243" d=" M -105.712 -5.51706 L -104.298 -5.896 " />
<path id= "244" d=" M -104.298 -5.896 L -104.298 -5.81335 " />
<path d="M-104.091 -5.18759 A1 0.68125 -75 0 1 -104.298 -5.81335" />
<path id= "246" d=" M -103.445 -4.48003 L -104.091 -5.18759 " />
<path d="M-102.945 -4.33182 A1 0.68125 -75 0 1 -103.204 -4.32932" />
<path d="M-103.204 -4.32932 A1 0.68125 -75 0 1 -103.445 -4.48003" />
<path id= "249" d=" M -102.945 -4.33182 L -85.1457 -9.10104 " />
<path d="M-84.6457 -9.5172 A1 0.68125 -75 0 1 -85.1457 -9.10104" />
<path id= "251" d=" M -83.9993 -10.5712 L -84.6457 -9.5172 " />
<path d="M-105.712 -45.0178 A4 2.725 105 0 0 -108.541 -40.4062" />
<path id= "253" d=" M -82.3779 -51.2703 L -105.712 -45.0178 " />
<path d="M-79.5495 -48.1744 A4 2.725 105 0 0 -81.3427 -51.2803" />
<path d="M-81.3427 -51.2803 A4 2.725 105 0 0 -82.3779 -51.2703" />
<path d="M-89.1208 -53.3644 A4 2.725 105 0 0 -90.1561 -53.3544" />
<path id= "257" d=" M -90.1561 -53.3544 L -93.2168 -52.5343 " />
<path id= "258" d=" M -123.426 -11.7599 L -126.219 -11.0117 " />
<path id= "259" d=" M -129.047 -14.1075 L -129.047 -18.2777 " />
<path d="M-126.219 -11.0117 A4 2.725 -75 0 1 -127.254 -11.0017" />
<path d="M-127.254 -11.0017 A4 2.725 -75 0 1 -129.047 -14.1075" />
<path d="M-113.491 -47.102 A4 2.725 105 0 0 -116.319 -42.4904" />
<path id= "263" d=" M -110.43 -47.9221 L -113.491 -47.102 " />
<path d="M-105.427 -55.9498 A2 1.3625 105 0 0 -105.945 -55.9448" />
<path d="M-108.541 -58.2806 A4 2.725 -75 0 1 -107.506 -58.2906" />
<path id= "266" d=" M -131.875 -52.0282 L -108.541 -58.2806 " />
<path d="M-134.704 -47.4166 A4 2.725 -75 0 1 -131.875 -52.0282" />
<path id= "268" d=" M -134.704 -15.6233 L -134.704 -47.4166 " />
<path d="M-132.911 -12.5174 A4 2.725 -75 0 1 -134.704 -15.6233" />
<path id= "270" d=" M -129.047 -41.7307 L -129.047 -45.9008 " />
<path d="M-129.047 -41.7307 A2 1.3625 -75 0 1 -128.633 -43.2041" />
<path id= "272" d=" M -128.633 -43.2041 L -124.158 -50.5002 " />
<path d="M-124.158 -50.5002 A2 1.3625 -75 0 1 -123.158 -51.3325" />
<path d="M-102.884 -56.7649 A4 2.725 -75 0 1 -101.849 -56.7748" />
<path d="M-101.849 -56.7748 A4 2.725 -75 0 1 -100.131 -54.5306" />
<path id= "276" d=" M -105.945 -55.9448 L -102.884 -56.7649 " />
<path d="M-129.047 -45.9008 A4 2.725 -75 0 1 -126.219 -50.5124" />
<path id= "278" d=" M -126.219 -50.5124 L -123.158 -51.3325 " />
<path id= "279" d=" M -134.124 -13.4407 L -134.704 -13.2853 " />
<path d="M-109.441 -58.5211 A4 2.725 -75 0 1 -109.121 -58.1252" />
<path d="M-134.704 -13.2853 A4 2.725 -75 0 1 -135.057 -13.2208" />
<path d="M-134.39 -49.2648 A1.3 0.885625 105 0 0 -134.546 -48.7278" />
<path id= "283" d=" M 129.173 -63.3476 L 134.946 -64.8946 " />
<path id= "284" d=" M 134.946 -64.8946 L 134.946 -116.92 " />
<path id= "285" d=" M 134.946 -116.92 L 127.875 -115.025 " />
<path d="M129.173 -104.411 A2.5 1.70313 -75 0 1 130.755 -105.032" />
<path d="M130.755 -105.032 A2.5 1.70313 -75 0 1 129.461 -100.202" />
<path d="M129.461 -100.202 A2.5 1.70313 -75 0 1 129.173 -100.323" />
<path d="M129.173 -78.398 A2.5 1.70313 -75 0 1 130.755 -79.0193" />
<path d="M130.755 -79.0193 A2.5 1.70313 -75 0 1 129.461 -74.1896" />
<path d="M129.461 -74.1896 A2.5 1.70313 -75 0 1 129.173 -74.3098" />
<path id= "292" d=" M 119.883 -57.8269 L 122.683 -58.5772 " />
<path d="M122.683 -58.5772 A12.5 3.34936 0 0 0 129.173 -61.5139" />
<path id= "294" d=" M 132.118 -117.678 L 134.946 -116.92 " />
<path id= "295" d=" M 132.118 -117.678 L 121.948 -114.953 " />
<path d="M122.683 -110.603 A12.5 3.34936 0 0 0 129.173 -113.539" />
<path d="M129.173 -113.539 A12.5 3.34936 0 0 0 127.875 -115.025" />
<path id= "298" d=" M 122.683 -110.603 L 119.883 -109.852 " />
<path id= "299" d=" M 122.683 -58.5772 L 122.683 -110.603 " />
<path d="M130.386 -105.07 A2.5 1.70313 -75 0 1 129.173 -100.357" />
<path d="M130.386 -79.0576 A2.5 1.70313 -75 0 1 129.173 -74.3444" />
<path id= "302" d=" M 119.883 -37.1131 L 119.883 -57.8269 " />
<path id= "303" d=" M 119.883 -109.852 L 119.883 -130.566 " />
<path id= "304" d=" M 119.883 -130.566 L 96.8736 -124.401 " />
<path id= "305" d=" M 96.8736 -30.9478 L 96.8736 -124.401 " />
<path id= "306" d=" M 119.883 -37.1131 L 96.8736 -30.9478 " />
<path d="M112.784 -68.931 A2.5 1.70313 -75 0 1 115.198 -71.8194" />
<path d="M115.198 -71.8194 A2.5 1.70313 -75 0 1 113.904 -66.9898" />
<path d="M113.904 -66.9898 A2.5 1.70313 -75 0 1 112.784 -68.931" />
<path d="M112.784 -94.9436 A2.5 1.70313 -75 0 1 115.198 -97.8321" />
<path d="M115.198 -97.8321 A2.5 1.70313 -75 0 1 113.904 -93.0025" />
<path d="M113.904 -93.0025 A2.5 1.70313 -75 0 1 112.784 -94.9436" />
<path d="M101.116 -94.7077 A4 2.725 -75 0 1 104.98 -99.3293" />
<path d="M104.98 -99.3293 A4 2.725 -75 1 1 102.909 -91.6019" />
<path d="M102.909 -91.6019 A4 2.725 -75 0 1 101.116 -94.7077" />
<path id= "316" d=" M 132.118 -117.678 L 131.411 -117.867 " />
<path d="M119.883 -116.776 A12.5 3.34936 180 0 1 122.218 -116.541" />
<path id= "318" d=" M 127.168 -117.867 L 122.218 -116.541 " />
<path d="M131.411 -117.867 A3 0.803848 0 0 0 127.168 -117.867" />
<path id= "320" d=" M 121.948 -114.953 L 121.941 -114.951 " />
<path id= "321" d=" M 121.941 -114.951 L 120.915 -114.676 " />
<path d="M120.915 -114.676 A6 1.6077 -180 0 1 122.673 -113.539" />
<path d="M122.673 -113.539 A6 1.6077 -180 0 1 119.883 -112.181" />
<path id= "324" d=" M 111.398 -132.84 L 119.883 -130.566 " />
<path d="M130.39 -103.072 A1.4 0.95375 105 0 0 129.763 -104.159" />
<path d="M129.763 -104.159 A1.4 0.95375 105 0 0 129.173 -104.058" />
<path d="M129.173 -101.433 A1.4 0.95375 105 0 0 130.39 -103.072" />
<path d="M130.39 -77.0592 A1.4 0.95375 105 0 0 129.763 -78.1462" />
<path d="M129.763 -78.1462 A1.4 0.95375 105 0 0 129.173 -78.0454" />
<path d="M129.173 -75.4203 A1.4 0.95375 105 0 0 130.39 -77.0592" />
<path id= "331" d=" M 88.3883 -41.2484 L 88.3883 -114.858 " />
<path id= "332" d=" M 88.3883 -123.14 L 88.3883 -126.674 " />
<path id= "333" d=" M 111.398 -132.84 L 88.3883 -126.674 " />
<path id= "334" d=" M 96.8736 -30.9478 L 88.8645 -33.0938 " />
<path id= "335" d=" M 96.8736 -124.401 L 88.3883 -126.674 " />
<path d="M92.9592 -116.083 A4 2.725 -105 0 0 90.8886 -123.81" />
<path d="M92.9592 -34.1909 A4 2.725 -105 0 0 90.8886 -41.9183" />
<path d="M113.468 -71.0172 A2.5 1.70313 -75 0 1 112.807 -68.5499" />
<path d="M113.468 -97.0299 A2.5 1.70313 -75 0 1 112.807 -94.5626" />
<path d="M119.883 -114.898 A6 1.6077 180 0 1 120.915 -114.676" />
<path d="M120.915 -113.713 A6 1.6077 -180 0 1 122.397 -113.058" />
<path id= "342" d=" M 120.915 -113.713 L 120.915 -114.676 " />
<path d="M119.883 -113.934 A6 1.6077 180 0 1 120.915 -113.713" />
<path id= "344" d=" M -105.712 23.335 L -105.712 -5.00159 " />
<path id= "345" d=" M -105.712 -59.5202 L -105.712 -70.118 " />
<path id= "346" d=" M -114.198 -72.3916 L -105.712 -70.118 " />
<path id= "347" d=" M 121.948 -112.773 L 121.948 -113.342 " />
<path id= "348" d=" M 121.941 -112.77 L 121.941 -113.345 " />
<path id= "349" d=" M -114.198 -72.3916 L -132.936 -67.3707 " />
<path id= "350" d=" M -163.016 34.1423 L -154.531 36.4159 " />
<path id= "351" d=" M -105.712 23.335 L -154.531 36.4159 " />
<path id= "352" d=" M -135.057 -11.1931 L -131.513 -12.1429 " />
<path id= "353" d=" M -135.057 -51.6573 L -135.057 -11.1931 " />
<path id= "354" d=" M -105.712 -59.5202 L -135.057 -51.6573 " />
<path id= "355" d=" M -105.712 -70.118 L -132.936 -62.8234 " />
<path id= "356" d=" M -132.936 -62.8234 L -132.936 -58.9697 " />
<path id= "357" d=" M -132.936 -58.9697 L -144.25 -55.9382 " />
<path id= "358" d=" M -144.25 -59.7919 L -144.25 -55.9382 " />
<path id= "359" d=" M -144.25 -59.7919 L -154.531 -57.0371 " />
<path id= "360" d=" M -154.531 -57.0371 L -154.531 -36.3233 " />
<path id= "361" d=" M -154.531 -36.3233 L -162.281 -34.2467 " />
<path id= "362" d=" M -162.281 17.7787 L -162.281 -34.2467 " />
<path id= "363" d=" M -162.281 17.7787 L -154.531 15.7021 " />
<path id= "364" d=" M -154.531 15.7021 L -154.531 36.4159 " />
<path d="M-151.321 -52.1167 A3 2.04375 -75 0 1 -148.423 -55.5828" />
<path d="M-148.423 -55.5828 A3 2.04375 -75 0 1 -149.976 -49.7873" />
<path d="M-149.976 -49.7873 A3 2.04375 -75 0 1 -151.321 -52.1167" />
<path d="M-151.321 -24.1771 A3 2.04375 -75 0 1 -148.423 -27.6433" />
<path d="M-148.423 -27.6433 A3 2.04375 -75 0 1 -149.976 -21.8477" />
<path d="M-149.976 -21.8477 A3 2.04375 -75 0 1 -151.321 -24.1771" />
<path d="M-151.321 1.8356 A3 2.04375 -75 0 1 -148.423 -1.63058" />
<path d="M-148.423 -1.63058 A3 2.04375 -75 0 1 -149.976 4.16497" />
<path d="M-149.976 4.16497 A3 2.04375 -75 0 1 -151.321 1.8356" />
<path d="M-130.108 -57.8007 A3 2.04375 -75 0 1 -127.21 -61.2669" />
<path d="M-127.21 -61.2669 A3 2.04375 -75 0 1 -128.763 -55.4713" />
<path d="M-128.763 -55.4713 A3 2.04375 -75 0 1 -130.108 -57.8007" />
<path id= "377" d=" M -132.936 -67.3707 L -138.593 -65.8549 " />
<path id= "378" d=" M -135.097 -63.4024 L -132.936 -62.8234 " />
<path d="M-138.593 -65.8549 A12 3.21539 180 0 1 -135.078 -63.5813" />
<path d="M-135.078 -63.5813 A12 3.21539 180 0 1 -135.097 -63.4024" />
<path id= "381" d=" M -151.321 31.0085 L -151.321 3.80462 " />
<path id= "382" d=" M -151.321 -28.2042 L -151.321 -46.0661 " />
<path id= "383" d=" M -143.401 -58.7423 L -143.401 -60.7128 " />
<path d="M-144.25 -58.5584 A5.2 1.39334 0 0 0 -141.878 -59.7276" />
<path d="M-141.878 -59.7276 A5.2 1.39334 0 0 0 -143.401 -60.7128" />
<path d="M-163.016 -46.8559 A20 5.35898 180 0 1 -167.078 -50.0932" />
<path d="M-161.22 -59.7919 A20 5.35898 180 0 1 -167.078 -63.5813" />
<path d="M-167.078 -63.5813 A20 5.35898 180 0 1 -132.936 -67.3707" />
<path d="M-166.072,-55.5555 L-166.127,-55.4658  L-166.18,-55.3738  L-166.232,-55.2797  L-166.283,-55.1833  L-166.332,-55.0847  L-166.38,-54.9839  L-166.426,-54.8809  L-166.47,-54.7757  L-166.513,-54.6683  L-166.554,-54.5588  L-166.594,-54.4471  L-166.632,-54.3333  L-166.669,-54.2173  L-166.704,-54.0992 " /><path id= "390" d=" M -166.072 -56.6883 L -166.072 -55.5555 " />
<path d="M-167.052 -55.405 A20 5.35898 0 0 0 -167.078 -55.1308" />
<path d="M-167.078 -55.1308 A20 5.35898 0 0 0 -166.704 -54.0992" />
<path d="M-166.704,-59.439 L-166.669,-59.2272  L-166.632,-59.0176  L-166.594,-58.8103  L-166.554,-58.6054  L-166.513,-58.4029  L-166.47,-58.2027  L-166.426,-58.0049  L-166.38,-57.8095  L-166.332,-57.6165  L-166.283,-57.4259  L-166.232,-57.2378  L-166.18,-57.0522  L-166.127,-56.869  L-166.072,-56.6883 " /><path d="M-167.052,-55.405 L-167.045,-55.6006  L-167.037,-55.7972  L-167.028,-55.9947  L-167.019,-56.1931  L-167.008,-56.3924  L-166.997,-56.5926  L-166.985,-56.7936  L-166.972,-56.9955  L-166.958,-57.1983  L-166.944,-57.402  L-166.928,-57.6064  L-166.912,-57.8118  L-166.895,-58.0179  L-166.877,-58.2248 " /><path d="M-167.078 -60.4707 A20 5.35898 0 0 0 -166.704 -59.439" />
<path id= "396" d=" M -166.877 -58.8923 L -166.877 -58.2248 " />
<path d="M-166.877,-58.8923 L-166.888,-58.973  L-166.898,-59.0534  L-166.908,-59.1335  L-166.918,-59.2132  L-166.927,-59.2927  L-166.936,-59.3719  L-166.945,-59.4508  L-166.954,-59.5293  L-166.962,-59.6076  L-166.97,-59.6856  L-166.978,-59.7632  L-166.985,-59.8406  L-166.992,-59.9176  L-166.999,-59.9943 " /><path id= "398" d=" M -163.016 34.1423 L -163.016 17.8785 " />
<path id= "399" d=" M -163.016 -38.5969 L -163.016 -59.3107 " />
<path id= "400" d=" M -161.22 -59.7919 L -163.016 -59.3107 " />
<path id= "401" d=" M -135.097 -63.4024 L -135.097 -59.5487 " />
<path id= "402" d=" M -135.097 -59.5487 L -132.936 -58.9697 " />
<path d="M-138.593 -62.0012 A12 3.21539 180 0 1 -135.097 -59.9065" />
<path id= "404" d=" M -138.593 -62.0012 L -143.401 -60.7128 " />
<path d="M-139.889 -59.4543 A1.5 0.401924 180 0 1 -140.328 -59.7385" />
<path d="M-140.328 -59.7385 A1.5 0.401924 180 0 1 -137.328 -59.7385" />
<path d="M-137.328 -59.7385 A1.5 0.401924 180 0 1 -139.889 -59.4543" />
<path id= "408" d=" M -144.25 -59.7919 L -146.411 -60.3709 " />
<path id= "409" d=" M -163.016 -59.3107 L -154.531 -57.0371 " />
<path d="M-146.411 -60.3709 A12 3.21539 180 0 1 -155.563 -61.3077" />
<path id= "411" d=" M -155.563 -61.3077 L -161.22 -59.7919 " />
<path id= "412" d=" M -163.016 -38.5969 L -154.531 -36.3233 " />
<path id= "413" d=" M -173.566 -35.77 L -183.737 -33.0449 " />
<path id= "414" d=" M -180.908 -32.2871 L -183.737 -33.0449 " />
<path d="M-173.837 -34.1817 A12.5 3.34936 0 0 0 -162.281 -34.2467" />
<path id= "416" d=" M -173.837 -34.1817 L -180.908 -32.2871 " />
<path id= "417" d=" M -173.837 17.8436 L -173.837 -34.1817 " />
<path d="M-173.837 17.8436 A12.5 3.34936 0 0 0 -162.281 17.7787" />
<path id= "419" d=" M -183.737 18.9805 L -180.908 19.7383 " />
<path id= "420" d=" M -180.908 19.7383 L -173.837 17.8436 " />
<path d="M-149.605 -55.4132 A3 2.04375 -75 0 1 -150.915 -50.5253" />
<path d="M-149.605 -27.4737 A3 2.04375 -75 0 1 -150.915 -22.5857" />
<path d="M-149.605 -1.461 A3 2.04375 -75 0 1 -150.915 3.42698" />
<path d="M-128.392 -61.0973 A3 2.04375 -75 0 1 -129.702 -56.2093" />
<path d="M-155.563 -61.3077 A12 3.21539 180 0 1 -159.078 -63.5813" />
<path d="M-159.078 -63.5813 A12 3.21539 180 0 1 -138.593 -65.8549" />
<path id= "427" d=" M -138.593 -65.8549 L -138.593 -62.0012 " />
<path d="M-143.401 -60.7128 A5.2 1.39334 0 0 0 -151.234 -60.5649" />
<path d="M-147.937 -61.6533 A1.5 0.401924 0 0 0 -145.377 -61.9375" />
<path d="M-145.377 -61.9375 A1.5 0.401924 0 0 0 -148.377 -61.9375" />
<path d="M-148.377 -61.9375 A1.5 0.401924 0 0 0 -147.937 -61.6533" />
<path id= "432" d=" M -167.052 -55.405 L -166.276 -55.197 " />
<path id= "433" d=" M -166.736 -58.5965 L -166.877 -58.2248 " />
<path id= "434" d=" M -166.736 -58.5965 L -166.542 -58.5446 " />
<path id= "435" d=" M -166.877 -58.8923 L -166.736 -58.5965 " />
<path id= "436" d=" M -183.737 18.9805 L -184.444 18.791 " />
<path d="M-184.444 18.791 A3 0.803848 180 0 1 -185.322 18.2226" />
<path id= "438" d=" M -183.737 -33.0449 L -184.444 -33.2344 " />
<path d="M-184.444 -33.2344 A3 0.803848 180 0 1 -185.322 -33.8028" />
<path d="M-185.322 -33.8028 A3 0.803848 180 0 1 -184.444 -34.3712" />
<path id= "441" d=" M -184.444 -34.3712 L -179.494 -35.6975 " />
<path d="M-179.494 -35.6975 A12.5 3.34936 180 0 1 -180.791 -37.1834" />
<path d="M-180.791 -37.1834 A12.5 3.34936 180 0 1 -163.016 -40.22" />
<path d="M-156.685 -61.6544 A12 3.21539 180 0 1 -138.593 -62.0012" />
<path id= "445" d=" M -163.016 -38.5969 L -163.023 -38.595 " />
<path id= "446" d=" M -173.559 -35.7719 L -173.566 -35.77 " />
<path id= "447" d=" M -163.023 -38.595 L -164.049 -38.3203 " />
<path id= "448" d=" M -172.534 -36.0466 L -173.559 -35.7719 " />
<path d="M-164.049 -38.3203 A6 1.6077 -180 0 1 -162.291 -37.1834" />
<path d="M-162.291 -37.1834 A6 1.6077 -180 0 1 -172.534 -36.0466" />
<path id= "451" d=" M -183.737 18.9805 L -183.737 -33.0449 " />
<path id= "452" d=" M -180.908 19.7383 L -180.908 -32.2871 " />
<path d="M-178.191 6.00391 A3 2.04375 -75 0 1 -175.293 2.53773" />
<path d="M-175.293 2.53773 A3 2.04375 -75 0 1 -176.846 8.33328" />
<path d="M-176.846 8.33328 A3 2.04375 -75 0 1 -178.191 6.00391" />
<path d="M-178.191 -20.0088 A3 2.04375 -75 0 1 -175.293 -23.475" />
<path d="M-175.293 -23.475 A3 2.04375 -75 0 1 -176.846 -17.6794" />
<path d="M-176.846 -17.6794 A3 2.04375 -75 0 1 -178.191 -20.0088" />
<path d="M-151.309 -51.8116 A1.5 1.02188 105 0 0 -150.589 -54.4961" />
<path d="M-150.331 -25.5792 A1.4 0.95375 105 0 0 -150.642 -26.4778" />
<path d="M-151.315 -23.9667 A1.4 0.95375 105 0 0 -150.331 -25.5792" />
<path d="M-150.331 0.433531 A1.4 0.95375 105 0 0 -150.642 -0.465112" />
<path d="M-151.315 2.04604 A1.4 0.95375 105 0 0 -150.331 0.433531" />
<path d="M-130.096 -57.4957 A1.5 1.02188 105 0 0 -129.376 -60.1801" />
<path d="M-172.534 -36.0466 A6 1.6077 180 0 1 -174.291 -37.1834" />
<path d="M-174.291 -37.1834 A6 1.6077 180 0 1 -164.049 -38.3203" />
<path d="M-164.049 -37.3568 A6 1.6077 -180 0 1 -162.567 -36.7017" />
<path id= "468" d=" M -164.049 -37.3568 L -164.049 -38.3203 " />
<path d="M-175.659 2.48984 A3 2.04375 -75 0 1 -177.187 8.1917" />
<path d="M-175.659 -23.5228 A3 2.04375 -75 0 1 -177.187 -17.821" />
<path d="M-174.016 -36.7017 A6 1.6077 180 0 1 -164.049 -37.3568" />
<path d="M-175.787 4.98078 A1.4 0.95375 105 0 0 -176.414 3.89374" />
<path d="M-176.414 3.89374 A1.4 0.95375 105 0 0 -177.139 6.59833" />
<path d="M-177.139 6.59833 A1.4 0.95375 105 0 0 -175.787 4.98078" />
<path d="M-175.787 -21.0319 A1.4 0.95375 105 0 0 -176.414 -22.119" />
<path d="M-176.414 -22.119 A1.4 0.95375 105 0 0 -177.139 -19.4144" />
<path d="M-177.139 -19.4144 A1.4 0.95375 105 0 0 -175.787 -21.0319" />
<path id= "478" d=" M -163.016 -36.4174 L -163.016 -36.9861 " />
<path id= "479" d=" M -163.023 -36.4139 L -163.023 -36.9896 " />
<path id= "480" d=" M -81.2038 -51.2372 L -56.5685 -57.8382 " />
<path id= "481" d=" M -52.3259 -56.7013 L -56.5685 -57.8382 " />
<path id= "482" d=" M -79.698 -49.367 L -52.3259 -56.7013 " />
<path id= "483" d=" M 88.3883 -107.894 L 21.2132 -89.8942 " />
<path id= "484" d=" M -38.8909 -73.7893 L -102.119 -56.8473 " />
<path id= "485" d=" M -56.8594 -51.9796 L -56.8594 -52.9431 " />
<path id= "486" d=" M -56.8594 -52.9431 L -56.5685 -53.021 " />
<path id= "487" d=" M 84.8528 -110.183 L 20.6714 -92.986 " />
<path id= "488" d=" M -38.8909 -77.0264 L -109.169 -58.1955 " />
<path d="M84.8528 -110.183 A8 5.45 -75 0 1 86.9234 -110.203" />
<path id= "490" d=" M 84.8528 -95.7319 L 21.2132 -78.6797 " />
<path d="M88.3883 -98.7034 A7 4.76875 -75 0 1 84.8528 -95.7319" />
<path id= "492" d=" M -50.5281 -51.4025 L -51.4963 -51.143 " />
<path id= "493" d=" M -51.4963 -51.143 L -52.3259 -50.9208 " />
<path id= "494" d=" M -52.3259 -50.9208 L -52.6167 -50.8428 " />
<path id= "495" d=" M -52.6167 -50.8428 L -52.6167 -51.8063 " />
<path id= "496" d=" M -52.6167 -51.8063 L -52.3259 -51.8842 " />
<path id= "497" d=" M -50.5281 -56.2196 L -52.3259 -55.7379 " />
<path id= "498" d=" M -52.3259 -55.7379 L -79.5564 -48.4415 " />
<path id= "499" d=" M 88.3883 -108.857 L 21.2132 -90.8576 " />
<path id= "500" d=" M -38.8909 -74.7528 L -103.917 -57.329 " />
<path id= "501" d=" M 21.2132 -75.4427 L 88.3883 -93.4422 " />
<path id= "502" d=" M 88.3883 -94.4056 L 21.2132 -76.4061 " />
<path id= "503" d=" M -50.2046 -63.8404 L -58.6899 -66.114 " />
<path id= "504" d=" M -50.2046 -56.1329 L -52.3259 -56.7013 " />
<path id= "505" d=" M -56.5685 -57.8382 L -58.6899 -58.4066 " />
<path d="M-53.4573 -60.8582 A1.4 0.95375 75 0 1 -54.0849 -59.7712" />
<path d="M-54.0849 -59.7712 A1.4 0.95375 75 0 1 -54.8096 -62.4758" />
<path d="M-54.8096 -62.4758 A1.4 0.95375 75 0 1 -53.4573 -60.8582" />
<path d="M-60.1543 -59.3539 A5 1.33975 -4.95191e-15 0 0 -58.6899 -58.4066" />
<path d="M-58.6899 -52.626 A5 1.33975 180 0 1 -60.1543 -53.5733" />
<path d="M-60.1543 -53.5733 A5 1.33975 180 0 1 -60.1477 -53.6421" />
<path id= "512" d=" M -58.6899 -52.626 L -56.8594 -52.1355 " />
<path id= "513" d=" M -56.8594 -51.9796 L -52.6167 -50.8428 " />
<path id= "514" d=" M -56.8594 -52.9431 L -52.6167 -51.8063 " />
<path id= "515" d=" M -56.5685 -53.021 L -52.3259 -51.8842 " />
<path d="M-58.6899 -53.5894 A5 1.33975 180 0 1 -59.4189 -53.8373" />
<path id= "517" d=" M -58.6899 -53.5894 L -56.5685 -53.021 " />
<path d="M-58.6899 -57.4431 A5 1.33975 180 0 1 -60.1543 -58.3905" />
<path d="M-60.1543 -58.3905 A5 1.33975 180 0 1 -59.8199 -58.8722" />
<path id= "520" d=" M -58.6899 -57.4431 L -58.3663 -57.3564 " />
<path id= "521" d=" M 11.6673 -79.4394 L 10.6066 -79.7236 " />
<path d="M-50.2046 -56.1329 A5 1.33975 -4.95191e-15 0 0 -41.669 -57.0803" />
<path id= "523" d=" M -50.7892 -50.9536 L -51.4963 -51.143 " />
<path id= "524" d=" M -49.8001 -51.2186 L -50.7892 -50.9536 " />
<path d="M-42.0034 -51.7814 A5 1.33975 180 0 1 -41.669 -51.2997" />
<path d="M-41.669 -51.2997 A5 1.33975 180 0 1 -50.2046 -50.3523" />
<path id= "527" d=" M -52.3259 -50.9208 L -50.2046 -50.3523 " />
<path d="M-46.0489 -50.9337 A1.5 0.401924 180 0 1 -47.2892 -50.9337" />
<path d="M-41.669 -52.2631 A5 1.33975 180 0 1 -50.2046 -51.3158" />
<path id= "530" d=" M -52.3259 -51.8842 L -50.2046 -51.3158 " />
<path d="M-42.0034 -56.5986 A5 1.33975 180 0 1 -41.669 -56.1169" />
<path d="M-41.669 -56.1169 A5 1.33975 180 0 1 -50.2046 -55.1695" />
<path id= "533" d=" M -52.3259 -55.7379 L -50.2046 -55.1695 " />
<path d="M-46.0489 -55.7509 A1.5 0.401924 180 0 1 -47.2892 -55.7509" />
<path d="M-50.2046 -63.8404 A5 1.33975 -4.95191e-15 0 0 -41.669 -64.7878" />
<path d="M-41.669 -64.7878 A5 1.33975 -4.95191e-15 0 0 -43.1335 -65.7351" />
<path id= "537" d=" M -43.1335 -65.7351 L -51.6188 -68.0087 " />
<path d="M-51.6188 -68.0087 A5 1.33975 -4.95191e-15 0 0 -60.1543 -67.0614" />
<path d="M-60.1543 -67.0614 A5 1.33975 -4.95191e-15 0 0 -58.6899 -66.114" />
<path d="M-47.7297 -64.5035 A1.5 0.401924 -4.95191e-15 0 0 -45.169 -64.7878" />
<path d="M-45.169 -64.7878 A1.5 0.401924 -4.95191e-15 0 0 -48.169 -64.7878" />
<path d="M-48.169 -64.7878 A1.5 0.401924 -4.95191e-15 0 0 -47.7297 -64.5035" />
<path d="M-56.215 -66.7772 A1.5 0.401924 -4.95191e-15 0 0 -53.6543 -67.0614" />
<path d="M-53.6543 -67.0614 A1.5 0.401924 -4.95191e-15 0 0 -56.6543 -67.0614" />
<path d="M-56.6543 -67.0614 A1.5 0.401924 -4.95191e-15 0 0 -56.215 -66.7772" />
<path d="M-58.6899 -44.9185 A5 1.33975 180 0 1 -60.1543 -45.8658" />
<path id= "547" d=" M -58.6899 -44.9185 L -50.2046 -42.6449 " />
<path d="M-55.4372 -47.9007 A1.4 0.95375 75 0 1 -54.8096 -48.9877" />
<path d="M-54.8096 -48.9877 A1.4 0.95375 75 0 1 -54.0849 -46.2831" />
<path d="M-54.0849 -46.2831 A1.4 0.95375 75 0 1 -55.4372 -47.9007" />
<path d="M10.6066 -76.6921 A5 1.33975 -4.95191e-15 0 0 11.6673 -76.7652" />
<path d="M10.6066 -77.6639 A1.5 0.401924 -4.95191e-15 0 0 11.3995 -78.0184" />
<path d="M11.3995 -78.0184 A1.5 0.401924 -4.95191e-15 0 0 10.6066 -78.3728" />
<path d="M-41.669 -43.5922 A5 1.33975 180 0 1 -50.2046 -42.6449" />
<path id= "555" d=" M -8.13173 -77.3043 L -8.13173 -77.1368 " />
<path id= "556" d=" M -2.12132 -78.0313 L -3.7699 -78.4731 " />
<path id= "557" d=" M -6.49455 -77.743 L -6.49455 -75.8633 " />
<path id= "558" d=" M -2.69784 -74.846 L -2.69784 -78.1858 " />
<path id= "559" d=" M -2.82843 -74.881 L -2.82843 -76.0723 " />
<path d="M-4.94975 -76.6407 A1.5 1.02188 75 0 1 -4.27732 -77.8054" />
<path d="M-4.27732 -77.8054 A1.5 1.02188 75 0 1 -2.82843 -76.0723" />
<path id= "562" d=" M -4.94975 -75.4494 L -4.94975 -76.6407 " />
<path id= "563" d=" M -2.12132 -78.0313 L -1.46549e-14 -77.4629 " />
<path id= "564" d=" M -1.99575e-14 -74.4828 L -2.02538e-14 -77.4629 " />
<path id= "565" d=" M -5.78744 -75.6739 L -5.78744 -77.9325 " />
<path id= "566" d=" M -36.8745 -7.6843 L -38.8909 -9.89128 " />
<path id= "567" d=" M 10.6066 -72.7776 L 10.6066 -82.3253 " />
<path id= "568" d=" M 1.06066 -74.767 L 1.06066 -79.7674 " />
<path id= "569" d=" M -35.3553 -8.94393 L -34.7296 -8.25904 " />
<path id= "570" d=" M -35.3553 -8.94393 L -38.8909 -9.89128 " />
<path id= "571" d=" M -38.8909 -9.89128 L -38.8909 -40.2394 " />
<path id= "572" d=" M -38.8909 -40.2394 L -38.8909 -43.1297 " />
<path id= "573" d=" M -3.53553 -107.792 L -24.7487 -102.108 " />
<path id= "574" d=" M -24.7487 -102.108 L -31.5617 -90.9997 " />
<path id= "575" d=" M -1.24345e-14 -106.845 L 0.687642 -106.092 " />
<path id= "576" d=" M -3.53553 -107.792 L -1.73195e-14 -106.845 " />
<path id= "577" d=" M 4.59619 -74.6755 L 4.59619 -80.7148 " />
<path id= "578" d=" M -38.8909 -68.179 L -38.8909 -71.0693 " />
<path id= "579" d=" M -38.8909 -71.0693 L -38.8909 -80.7536 " />
<path id= "580" d=" M -25.8094 -75.0307 L -25.8094 -28.1532 " />
<path id= "581" d=" M -35.3553 -8.94393 L -35.3553 -12.5568 " />
<path id= "582" d=" M -35.3553 -12.5568 L -32.078 -8.96955 " />
<path id= "583" d=" M -35.3553 -12.5568 L -35.3553 -81.701 " />
<path id= "584" d=" M -38.8909 -41.3762 L -43.3881 -42.5813 " />
<path id= "585" d=" M -38.8909 -43.1297 L -41.669 -43.8741 " />
<path id= "586" d=" M -25.9993 -2.31612 L -24.7487 -0.947343 " />
<path id= "587" d=" M -1.59872e-14 -106.845 L -1.06066 -106.56 " />
<path id= "588" d=" M -20.1525 -101.445 L -21.2132 -101.16 " />
<path id= "589" d=" M -24.7487 -102.108 L -21.2132 -101.16 " />
<path id= "590" d=" M -21.2132 -101.16 L -25.9391 -93.4552 " />
<path d="M-25.9391,-93.4552 L-26.0358,-93.3699  L-26.1322,-93.2834  L-26.2282,-93.1956  L-26.3238,-93.1065  L-26.419,-93.0163  L-26.5137,-92.9249  L-26.608,-92.8324  L-26.7017,-92.7387  L-26.7949,-92.6439  L-26.8876,-92.5481  L-26.9797,-92.4512  L-27.0711,-92.3532  L-27.162,-92.2543  L-27.2522,-92.1544 " /><path id= "592" d=" M -35.3553 -12.5568 L -31.8198 -11.6095 " />
<path id= "593" d=" M -31.8198 -76.6412 L -31.8198 -26.5427 " />
<path id= "594" d=" M -31.8198 -26.5427 L -31.8198 -18.8352 " />
<path id= "595" d=" M -24.7487 -0.947343 L -21.2132 -1.22125e-15 " />
<path id= "596" d=" M -21.2132 -1.33227e-15 L -20.1525 -0.284203 " />
<path id= "597" d=" M -31.8198 -76.6412 L -28.2843 -75.6939 " />
<path id= "598" d=" M 21.2132 -92.393 L 21.2132 -32.14 " />
<path id= "599" d=" M -38.8909 -72.2061 L -41.8452 -72.9977 " />
<path id= "600" d=" M -38.8909 -68.179 L -47.3762 -70.4526 " />
<path id= "601" d=" M -47.3762 -70.4526 L -46.5959 -71.7248 " />
<path id= "602" d=" M -31.8198 -26.5427 L -25.8094 -28.1532 " />
<path id= "603" d=" M -24.7487 -27.869 L -25.8094 -28.1532 " />
<path id= "604" d=" M -31.8198 -11.6095 L -30.6295 -11.2905 " />
<path d="M-30.6295,-11.2905 L-30.6771,-11.2131  L-30.7127,-11.1267  L-30.7362,-11.0316  L-30.7476,-10.9278  L-30.7468,-10.8157  L-30.7339,-10.6954  L-30.7089,-10.5672  L-30.6718,-10.4314  L-30.6227,-10.2882  L-30.5617,-10.1379  L-30.4889,-9.9809  L-30.4045,-9.81739  L-30.3086,-9.64776  L-30.2015,-9.47234 " /><path id= "606" d=" M -23.8543 -2.89085 L -21.2132 -1.59872e-14 " />
<path id= "607" d=" M -47.3762 -66.8719 L -47.3762 -70.4526 " />
<path d="M-42.7977 -65.6356 A1.5 1.02188 -105 0 0 -44.2288 -67.1004" />
<path d="M-44.2288 -67.1004 A1.5 1.02188 -105 0 0 -44.8822 -66.2036" />
<path id= "610" d=" M -1.06066 -106.56 L 2.47487 -105.613 " />
<path id= "611" d=" M -16.617 -100.497 L 2.47487 -105.613 " />
<path id= "612" d=" M -20.1525 -101.445 L -16.617 -100.497 " />
<path id= "613" d=" M -20.1525 -101.445 L -20.1525 -95.0057 " />
<path id= "614" d=" M -25.9391 -93.4552 L -20.1525 -95.0057 " />
<path d="M-28.2843 -81.9562 A6 4.0875 75 0 1 -30.1918 -83.0845" />
<path d="M-16.617 -96.6436 A6 4.0875 -105 0 0 -18.1699 -96.6586" />
<path d="M-18.1699 -96.6586 A6 4.0875 -105 0 0 -20.1525 -95.0057" />
<path id= "618" d=" M -24.9643 -82.8458 L -28.2843 -81.9562 " />
<path d="M-17.8101 -96.73 A6 4.0875 -105 0 0 -19.888 -94.1276" />
<path id= "620" d=" M -28.2843 -81.9562 L -28.2843 -75.6939 " />
<path id= "621" d=" M -31.8198 -18.8352 L -28.2843 -17.8879 " />
<path id= "622" d=" M -28.2843 -11.6256 L -28.2843 -17.8879 " />
<path d="M-30.6295 -11.2905 A6 4.0875 75 0 1 -29.8372 -11.6405" />
<path d="M-29.8372 -11.6405 A6 4.0875 75 0 1 -28.2843 -11.6256" />
<path id= "625" d=" M -24.7487 -24.648 L -31.8198 -26.5427 " />
<path d="M-28.9914 -20.0042 A2 1.3625 75 0 1 -29.509 -23.8629" />
<path d="M-29.509 -23.8629 A2 1.3625 75 0 1 -28.4737 -19.9992" />
<path d="M-28.4737 -19.9992 A2 1.3625 75 0 1 -28.9914 -20.0042" />
<path id= "629" d=" M -20.1525 -0.284203 L -20.1525 -3.88274 " />
<path id= "630" d=" M -20.1525 -0.284203 L -16.617 0.66314 " />
<path id= "631" d=" M 19.3608 -17.1154 L 18.1395 -15.124 " />
<path id= "632" d=" M -24.7487 -74.7465 L -28.2843 -75.6939 " />
<path id= "633" d=" M 10.6066 -104.002 L 7.07107 -104.95 " />
<path id= "634" d=" M 21.2132 -92.393 L 10.6066 -104.002 " />
<path id= "635" d=" M 11.6673 -82.6095 L 11.6673 -72.7808 " />
<path id= "636" d=" M -1.3351 0.357738 L -10.6066 2.84203 " />
<path id= "637" d=" M -10.6066 -98.3184 L 10.6066 -104.002 " />
<path id= "638" d=" M -10.6066 -98.3184 L -21.2132 -81.0249 " />
<path id= "639" d=" M -21.2132 -8.76743 L -21.2132 -81.0249 " />
<path id= "640" d=" M -10.6066 2.84203 L -21.2132 -8.76743 " />
<path d="M-20.5061 -13.0515 A3 2.04375 105 0 0 -19.1612 -10.7221" />
<path d="M-19.1612 -10.7221 A3 2.04375 105 0 0 -17.6083 -16.5177" />
<path d="M-17.6083 -16.5177 A3 2.04375 105 0 0 -20.5061 -13.0515" />
<path id= "644" d=" M -13.9503 -17.9393 L -15.2028 -17.6037 " />
<path id= "645" d=" M -15.2028 -17.6037 L -15.2028 -75.4096 " />
<path id= "646" d=" M -15.2028 -75.4096 L 15.2028 -83.5568 " />
<path id= "647" d=" M 15.2028 -83.5568 L 15.2028 -42.4214 " />
<path d="M16.2635 -86.9722 A3 2.04375 105 0 0 17.6083 -84.6428" />
<path d="M17.6083 -84.6428 A3 2.04375 105 1 0 19.1612 -90.4383" />
<path d="M19.1612 -90.4383 A3 2.04375 105 0 0 16.2635 -86.9722" />
<path d="M-20.5061 -77.1198 A3 2.04375 105 0 0 -19.1612 -74.7904" />
<path d="M-19.1612 -74.7904 A3 2.04375 105 0 0 -17.6083 -80.586" />
<path d="M-17.6083 -80.586 A3 2.04375 105 0 0 -20.5061 -77.1198" />
<path id= "654" d=" M -13.0815 -99.55 L -16.617 -100.497 " />
<path id= "655" d=" M 6.01041 -104.666 L 2.47487 -105.613 " />
<path id= "656" d=" M -16.617 -100.497 L -16.617 -96.6436 " />
<path d="M-18.868,-91.5605 L-19.0382,-90.8266  L-19.2803,-90.0658  L-19.5911,-89.2877  L-19.9668,-88.5019  L-20.4027,-87.7184  L-20.8931,-86.9471  L-21.4321,-86.1976  L-22.0128,-85.4793  L-22.6279,-84.8014  L-23.2696,-84.1723  L-23.93,-83.6  L-24.6006,-83.0915  L-25.2731,-82.6535  L-25.9391,-82.2912 " /><path d="M-25.9391 -82.2912 A6 4.0875 75 0 1 -26.7314 -81.9412" />
<path d="M-26.7314 -81.9412 A6 4.0875 75 0 1 -28.2843 -81.9562" />
<path d="M-15.9147 -96.3757 A6 4.0875 -105 0 0 -16.617 -96.6436" />
<path id= "661" d=" M -25.9391 -82.2912 L -24.7487 -81.9723 " />
<path id= "662" d=" M -25.9391 -10.0337 L -24.7487 -9.71478 " />
<path d="M-28.2843 -11.6256 A6 4.0875 75 0 1 -25.9391 -10.0337" />
<path id= "664" d=" M -21.2132 -8.76743 L -24.7487 -9.71478 " />
<path id= "665" d=" M -24.7487 -24.648 L -24.7487 -74.7465 " />
<path id= "666" d=" M -21.2132 -81.0249 L -24.7487 -81.9723 " />
<path id= "667" d=" M -16.617 0.66314 L -16.617 -0.814188 " />
<path id= "668" d=" M -14.8298 1.14203 L -16.617 0.66314 " />
<path id= "669" d=" M 6.01041 -104.666 L 7.07107 -104.95 " />
<path id= "670" d=" M -10.6066 2.84203 L -14.1421 1.89469 " />
<path id= "671" d=" M -10.6066 -98.3184 L -14.1421 -99.2658 " />
<path id= "672" d=" M -14.1421 -99.2658 L -13.0815 -99.55 " />
<path id= "673" d=" M -14.1421 -99.2658 L -18.868 -91.5605 " />
<path id= "674" d=" M -14.1421 1.89469 L -18.868 -3.27801 " />
<path d="M-18.868,-3.27801 L-19.0382,-3.66303  L-19.2803,-4.0874  L-19.5911,-4.54579  L-19.9668,-5.03243  L-20.4027,-5.54121  L-20.8931,-6.06571  L-21.4321,-6.59935  L-22.0128,-7.13542  L-22.6279,-7.66718  L-23.2696,-8.18793  L-23.93,-8.69113  L-24.6006,-9.17045  L-25.2731,-9.61987  L-25.9391,-10.0337 " /><path d="M-20.1003 -11.4601 A3 2.04375 105 0 0 -18.7906 -16.3481" />
<path d="M16.6693 -85.3808 A3 2.04375 105 0 0 17.979 -90.2688" />
<path d="M-20.1003 -75.5284 A3 2.04375 105 0 0 -18.7906 -80.4164" />
<path d="M-20.494 -12.7465 A1.5 1.02188 105 0 0 -19.7747 -15.4309" />
<path d="M16.2756 -86.6672 A1.5 1.02188 105 0 0 16.9948 -89.3516" />
<path d="M-20.494 -76.8148 A1.5 1.02188 105 0 0 -19.7747 -79.4992" />
</g>
</g>



</svg>

