<?xml version="1.0" encoding="UTF-8" standalone="no"?>

<svg
	xmlns="http://www.w3.org/2000/svg" version="1.1"
	xmlns:freecad="http://www.freecadweb.org/wiki/index.php?title=Svg_Namespace"
	width="420mm"
	height="297mm"
	viewBox="0 0 420 297">
	<!-- Working space 20 10 410 287 -->
	<!-- Title block 230 227 410 287 -->
	<g>
		<rect
			id="drawing-border"
			style="fill:none;stroke:#000000;stroke-width:0.35;stroke-linecap:miter;stroke-miterlimit:4"
			width="390"
			height="277"
			x="20"
			y="10" />
			<!-- width-30, height-20 -->
		<g
			transform="translate(210,0)">
			<!-- A4 Portrait based for other formats width-210, height-297 -->
			<!--        page       rect   translation
			               w    h    rw   rh   tx   ty
			        A4-P  210  297  180  277    0    0
			        A3-L  420  297  390  277  210    0
			        A2-L  594  420  564  400  384  123
			        A1-L  841  594  811  574  631  297
			        A0-L 1189  841 1159  821  979  544
			-->
			<g
				id="titleblock-structure"
				style="fill:none;stroke:#000000;stroke-width:0.35;stroke-linecap:miter;stroke-miterlimit:4">
				<rect width="180" height="60" x="20" y="227" />
				<path d="m 20,239 h 180" />
				<path d="m 80,227 v 12" />
				<path d="m 140,239 v 48" />
				<path d="m 160,239 v 12" />
				<path d="m 180,239 v 12" />
				<path d="m 140,251 h 60" />
				<path d="m 140,275 h 60" />
				<path d="m 180,275 v 12" />
			</g>
			<g
				id="titleblock-text-non-editable"
				style="font-size:3px;text-anchor:start;fill:#000000;font-family:osifont"
				xml:space="preserve">
				<text x="21" y="230">Created by:</text>
				<text x="81" y="230">Title:</text>
				<text x="21" y="242">Supplementary information:</text>
				<text x="141" y="242">Size:</text>
				<text x="161" y="242">Sheet:</text>
				<text x="181" y="242">Scale:</text>
				<text x="141" y="254">Part number:</text>
				<text x="141" y="266">Drawing number:</text>
				<text x="141" y="278">Date:</text>
				<text x="181" y="278">Revision:</text>
			</g>
			<g
				id="titleblock-text-editable"
				style="font-size:5px;text-anchor:middle;fill:#000000;font-family:osifont"
				xml:space="preserve">
				<text freecad:editable="AUTHOR NAME" x="50" y="236"><tspan>DAMIAN DURCZOK</tspan></text>
				<text freecad:editable="DRAWING TITLE" x="140" y="236"><tspan>X-CARRAGE (BACK)</tspan></text>
				<text freecad:editable="SI-1" x="80" y="248"><tspan></tspan></text>
				<text freecad:editable="SI-2" x="80" y="255"><tspan></tspan></text>
				<text freecad:editable="FreeCAD DRAWING" x="80" y="262"><tspan>Back cover for the X-Carrage.</tspan></text>
				<text freecad:editable="SI-4" x="80" y="269"><tspan>Includes two cavities for linear bearings.</tspan></text>
				<text freecad:editable="SI-5" x="80" y="276"><tspan></tspan></text>
				<text freecad:editable="SI-6" x="80" y="283"><tspan></tspan></text>
				<text freecad:editable="FC-SI" x="150" y="248"><tspan>A3</tspan></text>
				<text freecad:editable="FC-SH" x="170" y="248"><tspan>X / Y</tspan></text>
				<text freecad:editable="FC-SC" x="190" y="248"><tspan>SCALE</tspan></text>
				<text freecad:editable="PN" x="170" y="260"><tspan>PN</tspan></text>
				<text freecad:editable="DN" x="170" y="272"><tspan>DN</tspan></text>
				<text freecad:editable="FC-DATE" x="160" y="284"><tspan>8/05/2017</tspan></text>
				<text freecad:editable="FC-REV" x="190" y="284"><tspan>REV A</tspan></text>
			</g>
			<!-- Set display:none to hide FreeCAD Logo -->
			<g
				style="display:inline"
				id="freecad-logo"
				transform="translate(128.5,276)"
				fill-rule="evenodd"
				stroke="#000"
				stroke-width="0.35"
				fill="none">
					<path d="m0.1524 0.15254v8.8549h1.9744v-3.4652h1.396v-1.3661h-1.396v-1.4745h3.4391v-2.5441l-5.4135-0.005z"/>
					<path d="m7.7927 3.4504-0.50715-0.176-0.48387-1.2366-0.76115 0.04-0.34718 1.2787-0.4859 0.23269-1.2119-0.53015-0.51188 0.56882 0.65892 1.1485-0.18006 0.50567-1.2366 0.48387 0.044064 0.76263 1.2787 0.34718 0.23269 0.4859-0.53421 1.2104 0.56882 0.51188 1.1485-0.65891 0.50973 0.18155 0.4798 1.2351 0.7667-0.04258 0.34311-1.2802 0.4859-0.23269 1.2145 0.5357 0.51188-0.56882-0.65891-1.1485 0.17748-0.51122 1.2351-0.4798-0.03851-0.76521-1.2802-0.34311-0.23269-0.4859 0.53163-1.216-0.56881-0.51184zm-0.5715 1.2244 0.23576 0.13679 0.20426 0.18519 0.16353 0.22101 0.11763 0.24572 0.06916 0.26489 0.01146 0.27146-0.03921 0.27139-0.08948 0.25764-0.14234 0.23834-0.17964 0.20167-0.22101 0.16353-0.24572 0.11763-0.26489 0.06916-0.27295 0.01553-0.2719-0.04-0.2576-0.089-0.2383-0.143-0.2002-0.183-0.165-0.217-0.1177-0.246-0.0676-0.269-0.0156-0.273 0.039206-0.2714 0.089484-0.25764 0.14085-0.23427 0.18113-0.20574 0.22101-0.16352 0.24572-0.11763 0.26895-0.06768 0.27147-0.01146 0.27139 0.03921 0.25764 0.08948z"/>
			</g>
		</g>
	</g>
<g id="Ortho_0_0"
   transform="rotate(-90,40,201.333) translate(40,201.333) scale(2,2)"
  >
<g   stroke="rgb(0, 0, 0)"
   stroke-width="0.175"
   stroke-linecap="butt"
   stroke-linejoin="miter"
   fill="none"
   transform="scale(1,-1)"
  >
<path d="M5,-98.3166 L4.66009,-97.7359  L4.38734,-97.1209  L4.18517,-96.4791  L4.05613,-95.8188  L4.00183,-95.1481  L4.02296,-94.4756  L4.11926,-93.8097  L4.28951,-93.1587  L4.53157,-92.5309  L4.84241,-91.9342  L5.2181,-91.376  L5.65393,-90.8634  L6.14441,-90.4028  L6.68338,-90 " /><path d="M10 -101 A6 6 0 0 0 5 -98.3166" /><path d="M10 -89 A6 6 0 0 1 6.68338 -90" /><path id= "4" d=" M 5 -105 L 5 -98.3166 " />
<path id= "5" d=" M 0 -105 L 5 -105 " />
<path id= "6" d=" M 0 -105 L 0 -90 " />
<path id= "7" d=" M 6.68338 -90 L 5 -90 " />
<path id= "8" d=" M 0 -90 L 5 -90 " />
<path id= "9" d=" M 10 -105 L 10 -101 " />
<path id= "10" d=" M 5 -105 L 10 -105 " />
<path id= "11" d=" M 5 -90 L 5 -82.5 " />
<path id= "12" d=" M 5 -82.5 L 10 -82.5 " />
<path id= "13" d=" M 10 -89 L 10 -82.5 " />
<path id= "14" d=" M 0 -90 L 0 -15 " />
<path id= "15" d=" M 0 -15 L 0 -3.55271e-14 " />
<path id= "16" d=" M 0 -15 L 5 -15 " />
<path id= "17" d=" M 5 -22.5 L 5 -15 " />
<path id= "18" d=" M 5 -82.5 L 5 -22.5 " />
<path d="M5 -98.3166 A6 6 0 0 0 6.68338 -90" /><path id= "20" d=" M 5 -15 L 6.68338 -15 " />
<path d="M6.68338,-15 L6.14441,-14.5972  L5.65393,-14.1366  L5.2181,-13.624  L4.84241,-13.0658  L4.53157,-12.4691  L4.28951,-11.8413  L4.11926,-11.1903  L4.02296,-10.5244  L4.00183,-9.85189  L4.05613,-9.18124  L4.18517,-8.52089  L4.38734,-7.87913  L4.66009,-7.26405  L5,-6.68338 " /><path id= "22" d=" M 5 -6.68338 L 5 -3.55271e-14 " />
<path id= "23" d=" M 0 0 L 5 0 " />
<path id= "24" d=" M 5 -22.5 L 10 -22.5 " />
<path d="M6.68338 -15 A6 6 0 0 1 10 -16" /><path id= "26" d=" M 10 -16 L 10 -22.5 " />
<path d="M5 -6.68338 A6 6 0 0 0 10 -4" /><path d="M5 -6.68338 A6 6 0 0 0 10 -4" /><path id= "29" d=" M 5 0 L 10 0 " />
<path id= "30" d=" M 10 0 L 10 -4 " />
</g>
</g>



<g id="Ortho_0_1"
   transform="rotate(90,40,35.6667) translate(40,35.6667) scale(2,2)"
  >
<g   stroke="rgb(0, 0, 0)"
   stroke-width="0.175"
   stroke-linecap="butt"
   stroke-linejoin="miter"
   fill="none"
   transform="scale(1,-1)"
  >
<path id= "1" d=" M 51.6834 98.3166 L 43.5 98.3166 " />
<path d="M51.6834,98.3166 L52.2641,97.7359  L52.8791,97.1209  L53.5209,96.4791  L54.1812,95.8188  L54.8519,95.1481  L55.5244,94.4756  L56.1903,93.8097  L56.8413,93.1587  L57.4691,92.5309  L58.0658,91.9342  L58.624,91.376  L59.1366,90.8634  L59.5972,90.4028  L60,90 " /><path d="M43.5,101 L43.5,100.985  L43.5,100.941  L43.5,100.867  L43.5,100.764  L43.5,100.632  L43.5,100.473  L43.5,100.287  L43.5,100.074  L43.5,99.8365  L43.5,99.5749  L43.5,99.2907  L43.5,98.9852  L43.5,98.66  L43.5,98.3166 " /><path d="M60,89 L60,89.0052  L60,89.021  L60,89.0472  L60,89.0838  L60,89.1308  L60,89.188  L60,89.2554  L60,89.3329  L60,89.4203  L60,89.5174  L60,89.6242  L60,89.7403  L60,89.8657  L60,90 " /><path id= "5" d=" M 42.5 101 L 43.5 101 " />
<path id= "6" d=" M 60 89 L 42.5 89 " />
<path d="M42.5,101 L42.5,100.85  L42.5,100.406  L42.5,99.691  L42.5,98.7409  L42.5,97.6033  L42.5,96.3351  L42.5,95  L42.5,93.6649  L42.5,92.3967  L42.5,91.2591  L42.5,90.309  L42.5,89.5942  L42.5,89.1504  L42.5,89 " /><path id= "8" d=" M 43.5 105 L 45 105 " />
<path id= "9" d=" M 45 105 L 51.6834 98.3166 " />
<path id= "10" d=" M 43.5 105 L 43.5 101 " />
<path id= "11" d=" M 60 89 L 60 82.5 " />
<path id= "12" d=" M 16.5 105 L 43.5 105 " />
<path id= "13" d=" M 42.5 102.46 L 42.5 101 " />
<path id= "14" d=" M 17.5 102.46 L 42.5 102.46 " />
<path id= "15" d=" M 17.5 102.46 L 17.5 101 " />
<path id= "16" d=" M 16.5 101 L 17.5 101 " />
<path id= "17" d=" M 16.5 105 L 16.5 101 " />
<path id= "18" d=" M 17.5 89 L 3.32915e-15 89 " />
<path id= "19" d=" M 17.5 89 L 17.5 87.54 " />
<path id= "20" d=" M 42.5 87.54 L 17.5 87.54 " />
<path id= "21" d=" M 42.5 89 L 42.5 87.54 " />
<path id= "22" d=" M 60 82.5 L 0 82.5 " />
<path id= "23" d=" M 0 89 L 0 82.5 " />
<circle cx ="56" cy ="85.75" r ="1.5" /><circle cx ="4" cy ="85.75" r ="1.5" /><path d="M42.5,87.54 L42.5,87.5477  L42.5,87.5708  L42.5,87.6092  L42.5,87.6629  L42.5,87.7318  L42.5,87.8157  L42.5,87.9144  L42.5,88.0277  L42.5,88.1555  L42.5,88.2974  L42.5,88.4531  L42.5,88.6224  L42.5,88.8048  L42.5,89 " /><path d="M42.5,101 L42.5,101.195  L42.5,101.378  L42.5,101.547  L42.5,101.703  L42.5,101.845  L42.5,101.972  L42.5,102.086  L42.5,102.184  L42.5,102.268  L42.5,102.337  L42.5,102.391  L42.5,102.429  L42.5,102.452  L42.5,102.46 " /><path id= "28" d=" M 15 105 L 16.5 105 " />
<path id= "29" d=" M 60 82.5 L 60 22.5 " />
<path d="M17.5,101 L17.5,100.85  L17.5,100.406  L17.5,99.691  L17.5,98.7409  L17.5,97.6033  L17.5,96.3351  L17.5,95  L17.5,93.6649  L17.5,92.3967  L17.5,91.2591  L17.5,90.309  L17.5,89.5942  L17.5,89.1504  L17.5,89 " /><path d="M6.6583e-15,89 L6.69825e-15,89.0052  L6.7391e-15,89.021  L6.78078e-15,89.0472  L6.82322e-15,89.0838  L6.86633e-15,89.1308  L6.91006e-15,89.188  L6.95431e-15,89.2554  L6.99902e-15,89.3329  L7.04411e-15,89.4203  L7.08949e-15,89.5174  L7.13508e-15,89.6242  L7.18081e-15,89.7403  L7.2266e-15,89.8657  L7.27237e-15,90 " /><path d="M8.31662,98.3166 L7.73595,97.7359  L7.12087,97.1209  L6.47911,96.4791  L5.81876,95.8188  L5.14811,95.1481  L4.47559,94.4756  L3.80967,93.8097  L3.15872,93.1587  L2.53093,92.5309  L1.93419,91.9342  L1.376,91.376  L0.863379,90.8634  L0.402783,90.4028  L1.33227e-14,90 " /><path id= "33" d=" M 16.5 98.3166 L 8.31662 98.3166 " />
<path d="M16.5,101 L16.5,100.985  L16.5,100.941  L16.5,100.867  L16.5,100.764  L16.5,100.632  L16.5,100.473  L16.5,100.287  L16.5,100.074  L16.5,99.8365  L16.5,99.5749  L16.5,99.2907  L16.5,98.9852  L16.5,98.66  L16.5,98.3166 " /><path id= "35" d=" M 15 105 L 8.31662 98.3166 " />
<path id= "36" d=" M 0 22.5 L 0 82.5 " />
<path d="M2.66454e-15,15 L0.402783,14.5972  L0.863379,14.1366  L1.376,13.624  L1.93419,13.0658  L2.53093,12.4691  L3.15872,11.8413  L3.80967,11.1903  L4.47559,10.5244  L5.14811,9.85189  L5.81876,9.18124  L6.47911,8.52089  L7.12087,7.87913  L7.73595,7.26405  L8.31662,6.68338 " /><path id= "38" d=" M 8.31662 6.68338 L 15 -2.84217e-14 " />
<path d="M60,15 L59.5972,14.5972  L59.1366,14.1366  L58.624,13.624  L58.0658,13.0658  L57.4691,12.4691  L56.8413,11.8413  L56.1903,11.1903  L55.5244,10.5244  L54.8519,9.85189  L54.1812,9.18124  L53.5209,8.52089  L52.8791,7.87913  L52.2641,7.26405  L51.6834,6.68338 " /><path id= "40" d=" M 51.6834 6.68338 L 45 3.55271e-14 " />
<path id= "41" d=" M 45 0 L 43.5 0 " />
<path id= "42" d=" M 16.5 0 L 15 0 " />
<circle cx ="56" cy ="19.25" r ="1.5" /><path id= "44" d=" M 8.5 22.5 L 8.5 82.5 " />
<path id= "45" d=" M 51.5 82.5 L 51.5 22.5 " />
<circle cx ="4" cy ="19.25" r ="1.5" /><path d="M60,15 L60,15.1343  L60,15.2597  L60,15.3758  L60,15.4826  L60,15.5797  L60,15.6671  L60,15.7446  L60,15.812  L60,15.8692  L60,15.9162  L60,15.9528  L60,15.979  L60,15.9948  L60,16 " /><path id= "48" d=" M 60 16 L 60 22.5 " />
<path d="M3.36186e-16,15 L3.15267e-16,15.1343  L2.92663e-16,15.2597  L2.68414e-16,15.3758  L2.42561e-16,15.4826  L2.1515e-16,15.5797  L1.86229e-16,15.6671  L1.55849e-16,15.7446  L1.24062e-16,15.812  L9.09247e-17,15.8692  L5.64946e-17,15.9162  L2.08321e-17,15.9528  L-1.60005e-17,15.979  L-5.39387e-17,15.9948  L-9.29161e-17,16 " /><path id= "50" d=" M 0 16 L 0 22.5 " />
<path id= "51" d=" M 16.5 6.68338 L 8.31662 6.68338 " />
<path d="M16.5,6.68338 L16.5,6.34005  L16.5,6.01483  L16.5,5.70934  L16.5,5.42509  L16.5,5.16347  L16.5,4.9258  L16.5,4.71324  L16.5,4.52684  L16.5,4.36753  L16.5,4.23609  L16.5,4.13319  L16.5,4.05932  L16.5,4.01485  L16.5,4 " /><path id= "53" d=" M 17.5 4 L 16.5 4 " />
<path id= "54" d=" M 2.51622e-15 16 L 17.5 16 " />
<path d="M17.5,16 L17.5,15.8496  L17.5,15.4058  L17.5,14.691  L17.5,13.7409  L17.5,12.6033  L17.5,11.3351  L17.5,10  L17.5,8.66487  L17.5,7.3967  L17.5,6.25906  L17.5,5.30901  L17.5,4.59419  L17.5,4.15043  L17.5,4 " /><path id= "56" d=" M 42.5 16 L 60 16 " />
<path id= "57" d=" M 51.6834 6.68338 L 43.5 6.68338 " />
<path d="M42.5,16 L42.5,15.8496  L42.5,15.4058  L42.5,14.691  L42.5,13.7409  L42.5,12.6033  L42.5,11.3351  L42.5,10  L42.5,8.66487  L42.5,7.3967  L42.5,6.25906  L42.5,5.30901  L42.5,4.59419  L42.5,4.15043  L42.5,4 " /><path d="M43.5,6.68338 L43.5,6.34005  L43.5,6.01483  L43.5,5.70934  L43.5,5.42509  L43.5,5.16347  L43.5,4.9258  L43.5,4.71324  L43.5,4.52684  L43.5,4.36753  L43.5,4.23609  L43.5,4.13319  L43.5,4.05932  L43.5,4.01485  L43.5,4 " /><path id= "60" d=" M 43.5 4 L 42.5 4 " />
<path id= "61" d=" M 43.5 0 L 43.5 4 " />
<path id= "62" d=" M 43.5 0 L 16.5 0 " />
<path id= "63" d=" M 42.5 17.46 L 42.5 16 " />
<path id= "64" d=" M 17.5 17.46 L 42.5 17.46 " />
<path id= "65" d=" M 17.5 17.46 L 17.5 16 " />
<path id= "66" d=" M 0 22.5 L 8.5 22.5 " />
<path id= "67" d=" M 8.5 22.5 L 8.5 18.5 " />
<path id= "68" d=" M 8.5 18.5 L 51.5 18.5 " />
<path id= "69" d=" M 51.5 18.5 L 51.5 22.5 " />
<path id= "70" d=" M 51.5 22.5 L 60 22.5 " />
<path id= "71" d=" M 16.5 0 L 16.5 4 " />
<path id= "72" d=" M 17.5 4 L 17.5 2.54 " />
<path id= "73" d=" M 42.5 2.54 L 17.5 2.54 " />
<path id= "74" d=" M 42.5 4 L 42.5 2.54 " />
<path id= "75" d=" M 43.5 0 L 43.5 4 " />
<path d="M17.5,2.54 L17.5,2.5477  L17.5,2.5708  L17.5,2.60924  L17.5,2.66295  L17.5,2.73181  L17.5,2.81568  L17.5,2.91439  L17.5,3.02774  L17.5,3.15549  L17.5,3.29738  L17.5,3.4531  L17.5,3.62236  L17.5,3.80478  L17.5,4 " /><path d="M17.5,16 L17.5,16.1952  L17.5,16.3776  L17.5,16.5469  L17.5,16.7026  L17.5,16.8445  L17.5,16.9723  L17.5,17.0856  L17.5,17.1843  L17.5,17.2682  L17.5,17.3371  L17.5,17.3908  L17.5,17.4292  L17.5,17.4523  L17.5,17.46 " /></g>
</g>



<g id="Ortho_1_1"
   transform="rotate(-98.8,360.767,36.2893) translate(360.767,36.2893) scale(2,2)"
  >
<g   stroke="rgb(0, 0, 0)"
   stroke-width="0.175"
   stroke-linecap="butt"
   stroke-linejoin="miter"
   fill="none"
   transform="scale(1,-1)"
  >
<path id= "1" d=" M -54.0566 33.1241 L -54.0566 25.1256 " />
<path d="M-54.0566,33.1241 L-53.9877,33.8331  L-53.8443,34.5732  L-53.6283,35.3352  L-53.3422,36.1094  L-52.9897,36.886  L-52.5753,37.6554  L-52.1042,38.4078  L-51.5822,39.1338  L-51.016,39.8242  L-50.4126,40.4704  L-49.7797,41.0643  L-49.1252,41.5983  L-48.4574,42.0658  L-47.7846,42.4608 " /><path d="M-51.6081 24.0435 A6 1.2683 180 0 0 -54.063 25.0667" />
<path d="M-54.063 25.0667 A6 1.2683 180 0 0 -54.0566 25.1256" />
<path d="M-44.5179 42.2171 A6 1.2683 -1.05758e-14 0 1 -47.7846 42.4608" />
<path id= "6" d=" M -51.6081 23.0661 L -51.6081 24.0435 " />
<path id= "7" d=" M -44.5179 42.2171 L -44.5179 25.1126 " />
<path d="M-53.5997 24.578 A6 1.2683 180 0 0 -44.5179 25.1126" />
<path id= "9" d=" M -58.0054 23.9858 L -58.0054 25.4519 " />
<path id= "10" d=" M -58.0054 25.4519 L -54.0566 33.1241 " />
<path id= "11" d=" M -58.0054 23.9858 L -54.0566 25.1256 " />
<path id= "12" d=" M -62.0393 26.0764 L -58.0054 25.4519 " />
<path id= "13" d=" M -62.0393 26.0764 L -53.1766 43.2956 " />
<path id= "14" d=" M -47.7846 42.4608 L -49.1427 42.6711 " />
<path id= "15" d=" M -53.1766 43.2956 L -49.1427 42.6711 " />
<path id= "16" d=" M -53.9715 23.3613 L -51.6081 24.0435 " />
<path id= "17" d=" M -58.0054 23.9858 L -53.9715 23.3613 " />
<path id= "18" d=" M -49.1427 42.6711 L -44.7113 43.9501 " />
<path id= "19" d=" M -44.7113 43.9501 L -40.6774 43.3256 " />
<path id= "20" d=" M -44.5179 42.2171 L -40.6774 43.3256 " />
<path id= "21" d=" M -53.9715 -3.02855 L -53.9715 23.3613 " />
<path id= "22" d=" M -52.4708 22.8171 L -51.6081 23.0661 " />
<path id= "23" d=" M -52.4708 -1.61797 L -52.4708 22.8171 " />
<path id= "24" d=" M -52.4708 -1.61797 L -51.6081 -1.36898 " />
<path id= "25" d=" M -51.6081 -2.34639 L -51.6081 -1.36898 " />
<path id= "26" d=" M -53.9715 -3.02855 L -51.6081 -2.34639 " />
<path id= "27" d=" M -44.5179 0.677502 L -44.5179 -16.4271 " />
<path id= "28" d=" M -44.5179 0.677502 L -43.6553 0.926491 " />
<path id= "29" d=" M -43.6553 25.3616 L -43.6553 0.926491 " />
<path id= "30" d=" M -44.5179 25.1126 L -43.6553 25.3616 " />
<path id= "31" d=" M -40.6774 43.3256 L -40.6774 -15.3185 " />
<path id= "32" d=" M -44.5179 -16.4271 L -40.6774 -15.3185 " />
<path d="M-42.5977 40.3279 A1.5 0.866249 -98.8 0 1 -42.8271 37.3794" />
<path d="M-42.8271 37.3794 A1.5 0.866249 -98.8 0 1 -42.3682 40.3441" />
<path d="M-42.3682 40.3441 A1.5 0.866249 -98.8 0 1 -42.5977 40.3279" />
<path d="M-42.5977 -10.4971 A1.5 0.866249 -98.8 0 1 -42.8271 -13.4455" />
<path d="M-42.8271 -13.4455 A1.5 0.866249 -98.8 0 1 -42.3682 -10.4808" />
<path d="M-42.3682 -10.4808 A1.5 0.866249 -98.8 0 1 -42.5977 -10.4971" />
<path id= "39" d=" M -62.0393 -3.24569 L -62.0393 26.0764 " />
<path id= "40" d=" M -62.0393 -3.24569 L -58.0054 -3.87017 " />
<path id= "41" d=" M -58.0054 -3.87017 L -58.0054 -2.40407 " />
<path id= "42" d=" M -58.0054 -2.40407 L -58.0054 23.9858 " />
<path id= "43" d=" M -62.0393 -3.24569 L -53.1766 -15.3486 " />
<path id= "44" d=" M -53.1766 43.2956 L -8.86276 56.0861 " />
<path id= "45" d=" M -10.9307 5.15293 L -40.6774 -3.433 " />
<path id= "46" d=" M -10.9307 45.3925 L -10.9307 5.15293 " />
<path id= "47" d=" M -8.86276 56.0861 L -4.82886 55.4616 " />
<path id= "48" d=" M -9.26024 54.1825 L -4.82886 55.4616 " />
<path id= "49" d=" M -44.7113 43.9501 L -9.26024 54.1825 " />
<path id= "50" d=" M -58.0054 -2.40407 L -53.9715 -3.02855 " />
<path d="M-43.6553 0.926491 A7.46 1.57692 -1.05758e-14 0 1 -52.4708 0.926491" />
<path d="M-51.6081 -1.36898 A6 1.2683 180 0 0 -52.4708 -1.20625" />
<path d="M-52.4708 0.51477 A6 1.2683 180 0 0 -44.5179 0.677502" />
<path d="M-44.5179 -16.4271 A6 1.2683 -1.05758e-14 0 1 -47.7846 -16.1834" />
<path d="M-54.0566,-9.26274 L-53.9877,-9.68881  L-53.8443,-10.151  L-53.6283,-10.6436  L-53.3422,-11.1603  L-52.9897,-11.6946  L-52.5753,-12.2399  L-52.1042,-12.7892  L-51.5822,-13.3357  L-51.016,-13.8725  L-50.4126,-14.3928  L-49.7797,-14.8901  L-49.1252,-15.3582  L-48.4574,-15.7911  L-47.7846,-16.1834 " /><path id= "56" d=" M -54.0566 -3.01538 L -54.0566 -9.26274 " />
<path id= "57" d=" M -47.7846 -16.1834 L -49.1427 -15.9731 " />
<path id= "58" d=" M -58.0054 -3.87017 L -54.0566 -9.26274 " />
<path id= "59" d=" M -53.1766 -15.3486 L -49.1427 -15.9731 " />
<path id= "60" d=" M -9.26024 -4.46164 L -40.6774 -13.5297 " />
<path d="M-1.38581,4.72572 L-1.2886,4.85156  L-1.19002,4.97624  L-1.09012,5.09972  L-0.988917,5.22193  L-0.886466,5.34284  L-0.782805,5.46239  L-0.677975,5.58054  L-0.572017,5.69724  L-0.464973,5.81244  L-0.356887,5.9261  L-0.2478,6.03817  L-0.137756,6.14862  L-0.0267995,6.25738  L0.0850259,6.36443 " /><path id= "62" d=" M 0.0850259 6.36443 L 4.0339 14.0366 " />
<path id= "63" d=" M -4.82886 55.4616 L -3.47074 55.2514 " />
<path d="M-1.38581,50.0562 L-1.2886,49.9599  L-1.19002,49.8638  L-1.09012,49.7682  L-0.988917,49.6729  L-0.886466,49.5781  L-0.782805,49.4838  L-0.677975,49.39  L-0.572017,49.2968  L-0.464973,49.2041  L-0.356887,49.1121  L-0.2478,49.0208  L-0.137756,48.9302  L-0.0267995,48.8403  L0.0850259,48.7512 " /><path id= "65" d=" M 0.0850259 48.7512 L 4.0339 43.3587 " />
<path id= "66" d=" M 4.0339 43.3587 L 4.0339 41.8926 " />
<path id= "67" d=" M 4.0339 14.3776 L 4.0339 14.0366 " />
<path d="M-3.30607 51.6688 A1.5 0.866249 -98.8 0 1 -3.53555 48.7204" />
<path d="M-3.53555 48.7204 A1.5 0.866249 -98.8 0 1 -3.07659 51.6851" />
<path d="M-3.07659 51.6851 A1.5 0.866249 -98.8 0 1 -3.30607 51.6688" />
<path id= "71" d=" M -10.9307 5.15293 L -6.89684 4.52845 " />
<path id= "72" d=" M -6.89684 4.52845 L -9.26024 3.84629 " />
<path id= "73" d=" M -9.26024 3.84629 L -40.6774 -5.22181 " />
<path id= "74" d=" M -40.6774 36.8065 L -9.26024 45.8746 " />
<path id= "75" d=" M -6.89684 45.5087 L -6.89684 4.52845 " />
<path d="M-3.30607 0.843853 A1.5 0.866249 -98.8 0 1 -3.53555 -2.10459" />
<path d="M-3.53555 -2.10459 A1.5 0.866249 -98.8 0 1 -3.07659 0.860091" />
<path d="M-3.07659 0.860091 A1.5 0.866249 -98.8 0 1 -3.30607 0.843853" />
<path id= "79" d=" M -9.26024 54.1825 L -5.22634 53.5581 " />
<path d="M-3.47074 55.2514 A6 1.2683 -1.05758e-14 0 1 -1.38581 54.6666" />
<path id= "81" d=" M -1.38581 54.6666 L -5.22634 53.5581 " />
<path id= "82" d=" M -9.26024 45.8746 L -9.26024 54.1825 " />
<path id= "83" d=" M -9.26024 -4.46164 L -9.26024 3.84629 " />
<path id= "84" d=" M -9.26024 -4.46164 L -5.22634 -5.08612 " />
<path id= "85" d=" M -1.38581 -3.97761 L -5.22634 -5.08612 " />
<path id= "86" d=" M 0.0850259 14.3629 L 0.0850259 6.36443 " />
<path d="M0.0850259 14.3629 A6 1.2683 180 0 0 5.7044 14.196" />
<path id= "88" d=" M 5.7044 15.1734 L 5.7044 14.196 " />
<path id= "89" d=" M -1.38581 -3.97761 L -1.38581 13.1269 " />
<path d="M-1.38581 13.1269 A6 1.2683 180 0 0 -2.24845 13.2897" />
<path d="M-2.24845 15.0107 A6 1.2683 180 0 0 5.7044 15.1734" />
<path id= "92" d=" M -1.38581 37.562 L -1.38581 54.6666 " />
<path id= "93" d=" M 0.0850259 48.7512 L 0.0850259 40.7528 " />
<path d="M-1.38581 39.6085 A6 1.2683 180 0 0 5.7044 39.6085" />
<path d="M0.0850259 40.7528 A6 1.2683 180 0 0 5.7044 40.5859" />
<path id= "96" d=" M 5.7044 40.5859 L 5.7044 39.6085 " />
<path id= "97" d=" M 4.0339 41.8926 L 0.0850259 40.7528 " />
<path id= "98" d=" M 4.0339 41.8926 L 8.06781 41.2681 " />
<path id= "99" d=" M 8.06781 41.2681 L 8.06781 14.8782 " />
<path id= "100" d=" M -2.24845 37.313 L -1.38581 37.562 " />
<path id= "101" d=" M -2.24845 12.878 L -2.24845 37.313 " />
<path id= "102" d=" M -2.24845 12.878 L -1.38581 13.1269 " />
<path id= "103" d=" M -5.22634 -5.08612 L -5.22634 3.22181 " />
<path id= "104" d=" M -5.22634 3.22181 L -2.86293 3.90397 " />
<path id= "105" d=" M -2.86293 3.90397 L -2.86293 45.9323 " />
<path id= "106" d=" M -2.86293 45.9323 L -5.22634 45.2501 " />
<path id= "107" d=" M -5.22634 45.2501 L -5.22634 53.5581 " />
<path id= "108" d=" M -9.26024 3.84629 L -5.22634 3.22181 " />
<path id= "109" d=" M -6.89684 4.52845 L -2.86293 3.90397 " />
<path id= "110" d=" M -9.26024 45.8746 L -5.22634 45.2501 " />
<path id= "111" d=" M 8.06781 14.8782 L 5.7044 14.196 " />
<path id= "112" d=" M 5.7044 15.1734 L 6.56705 15.4224 " />
<path id= "113" d=" M 6.56705 39.8575 L 6.56705 15.4224 " />
<path id= "114" d=" M 5.7044 39.6085 L 6.56705 39.8575 " />
<path id= "115" d=" M 8.06781 41.2681 L 5.7044 40.5859 " />
<path d="M6.56705 15.4224 A7.46 1.57692 -1.05758e-14 0 1 -2.24845 15.4224" />
</g>
</g>



</svg>

